<svg xmlns="http://www.w3.org/2000/svg" width="320" height="285.182" viewBox="0 0 320 285.182">
  <g id="Group_1345" data-name="Group 1345" transform="translate(-4740.127 -2248.6)">
    <g id="Group_1319" data-name="Group 1319" transform="translate(4740.127 2302.692)">
      <g id="Group_1311" data-name="Group 1311" transform="translate(0 0)">
        <path id="Path_925" data-name="Path 925" d="M4747.76,2360.931h-7.634v-17.85h17.85v7.634H4747.76Z" transform="translate(-4740.126 -2343.081)" fill="#231615"/>
      </g>
      <g id="Group_1312" data-name="Group 1312" transform="translate(50.592 0)">
        <path id="Path_926" data-name="Path 926" d="M4873.023,2350.715h-8.906v-7.634h8.906Zm-17.812,0h-8.906v-7.634h8.906Zm-17.812,0h-8.906v-7.634h8.906Z" transform="translate(-4828.494 -2343.081)" fill="#231615"/>
      </g>
      <g id="Group_1313" data-name="Group 1313" transform="translate(116.077 0)">
        <path id="Path_927" data-name="Path 927" d="M4960.725,2360.931h-7.635v-10.216h-10.215v-7.634h17.85Z" transform="translate(-4942.875 -2343.081)" fill="#231615"/>
      </g>
      <g id="Group_1314" data-name="Group 1314" transform="translate(126.293 50.593)">
        <path id="Path_928" data-name="Path 928" d="M4968.351,2475.979h-7.634v-8.906h7.634Zm0-17.812h-7.634v-8.906h7.634Zm0-17.812h-7.634v-8.906h7.634Z" transform="translate(-4960.717 -2431.45)" fill="#231615"/>
      </g>
      <g id="Group_1315" data-name="Group 1315" transform="translate(116.077 116.078)">
        <path id="Path_929" data-name="Path 929" d="M4960.725,2563.678h-17.85v-7.634h10.215v-10.215h7.635Z" transform="translate(-4942.875 -2545.829)" fill="#231615"/>
      </g>
      <g id="Group_1316" data-name="Group 1316" transform="translate(38.806 126.293)">
        <path id="Path_930" data-name="Path 930" d="M4852.437,2571.306h-8.906v-7.634h8.906Zm-17.812,0h-8.907v-7.634h8.907Zm-17.812,0h-8.905v-7.634h8.905Z" transform="translate(-4807.907 -2563.672)" fill="#231615"/>
      </g>
      <g id="Group_1317" data-name="Group 1317" transform="translate(0 116.078)">
        <path id="Path_931" data-name="Path 931" d="M4757.976,2563.678h-17.85v-17.85h7.634v10.215h10.216Z" transform="translate(-4740.126 -2545.829)" fill="#231615"/>
      </g>
      <g id="Group_1318" data-name="Group 1318" transform="translate(0 38.805)">
        <path id="Path_932" data-name="Path 932" d="M4747.76,2455.39h-7.634v-8.906h7.634Zm0-17.812h-7.634v-8.906h7.634Zm0-17.812h-7.634v-8.906h7.634Z" transform="translate(-4740.126 -2410.86)" fill="#231615"/>
      </g>
    </g>
    <g id="Group_1320" data-name="Group 1320" transform="translate(4904.306 2371.072)">
      <rect id="Rectangle_483" data-name="Rectangle 483" width="100.843" height="100.843" transform="translate(0 0)" fill="#eda756"/>
    </g>
    <g id="Group_1321" data-name="Group 1321" transform="translate(4938.388 2395.641)">
      <circle id="Ellipse_51" data-name="Ellipse 51" cx="16.339" cy="16.339" r="16.339" transform="translate(0 0)" fill="#6356ed"/>
    </g>
    <g id="Group_1322" data-name="Group 1322" transform="translate(4918.992 2433.675)">
      <path id="Path_933" data-name="Path 933" d="M5124.01,2607.6c0,.933-.034,1.855-.1,2.771h-71.262c-.068-.916-.1-1.838-.1-2.771a35.734,35.734,0,1,1,71.467,0Z" transform="translate(-5052.542 -2571.863)" fill="#1ddf92"/>
    </g>
    <g id="Group_1323" data-name="Group 1323" transform="translate(4773.79 2337.85)">
      <rect id="Rectangle_484" data-name="Rectangle 484" width="101.389" height="101.389" transform="translate(0)" fill="#6356ed"/>
    </g>
    <g id="Group_1324" data-name="Group 1324" transform="translate(4808.146 2362.692)">
      <circle id="Ellipse_52" data-name="Ellipse 52" cx="16.339" cy="16.339" r="16.339" transform="translate(0 0)" fill="#1ddf92"/>
    </g>
    <g id="Group_1325" data-name="Group 1325" transform="translate(4788.75 2400.773)">
      <path id="Path_934" data-name="Path 934" d="M4896.521,2550.132c0,.933-.034,1.855-.1,2.771h-71.261c-.069-.916-.1-1.838-.1-2.771a35.734,35.734,0,1,1,71.468,0Z" transform="translate(-4825.053 -2514.395)" fill="#ed5c56"/>
    </g>
    <g id="Group_1326" data-name="Group 1326" transform="translate(4840.575 2409)">
      <rect id="Rectangle_485" data-name="Rectangle 485" width="102.008" height="102.008" transform="translate(0)" fill="#f7f7f7"/>
    </g>
    <g id="Group_1327" data-name="Group 1327" transform="translate(4875.24 2434.151)">
      <circle id="Ellipse_53" data-name="Ellipse 53" cx="16.339" cy="16.339" r="16.339" fill="#eda756"/>
    </g>
    <g id="Group_1328" data-name="Group 1328" transform="translate(4855.844 2472.205)">
      <path id="Path_935" data-name="Path 935" d="M5013.712,2674.9c0,.933-.034,1.855-.1,2.771h-71.262c-.069-.916-.1-1.837-.1-2.771a35.734,35.734,0,1,1,71.467,0Z" transform="translate(-4942.245 -2639.161)" fill="#6356ed"/>
    </g>
    <g id="Group_1329" data-name="Group 1329" transform="translate(4950.171 2248.6)">
      <path id="Path_936" data-name="Path 936" d="M5171.774,2358.556l-21.388,0-1.163-14a42.541,42.541,0,0,1-8.867-3.91l-10.324,8.735-15.12-15.121,9.075-10.729a42.616,42.616,0,0,1-3.51-9.033L5107,2313.37l0-21.383,14-1.166a42.555,42.555,0,0,1,3.912-8.871l-8.738-10.325,15.124-15.117,10.727,9.076a42.543,42.543,0,0,1,9.033-3.51l1.124-13.474h21.385l1.166,14a42.443,42.443,0,0,1,8.868,3.91l10.324-8.736,15.12,15.122-9.076,10.728a42.506,42.506,0,0,1,3.512,9.033l13.473,1.124,0,21.384-14,1.167a42.45,42.45,0,0,1-3.911,8.869l8.738,10.325-15.124,15.115-10.728-9.074a42.472,42.472,0,0,1-9.034,3.51Zm-14.361-7.637h7.337l1.013-12.152,2.848-.543a34.965,34.965,0,0,0,11.759-4.546l2.353-1.441,9.5,8.041,5.189-5.186-7.879-9.311,1.631-2.4a34.919,34.919,0,0,0,5.1-11.525l.645-2.684,12.4-1.034v-7.336l-12.15-1.014-.542-2.848a34.994,34.994,0,0,0-4.547-11.758l-1.439-2.353,8.041-9.5-5.189-5.189-9.31,7.878-2.4-1.631a34.984,34.984,0,0,0-11.526-5.1l-2.682-.645-1.033-12.4h-7.337l-1.013,12.15-2.848.543a35.009,35.009,0,0,0-11.759,4.548l-2.352,1.439-9.5-8.041-5.187,5.186,7.881,9.314-1.633,2.4a35.008,35.008,0,0,0-5.109,11.53l-.646,2.679-12.4,1.033v7.336l12.15,1.013.544,2.848a35.025,35.025,0,0,0,4.546,11.76l1.438,2.352-8.04,9.5,5.188,5.188,9.309-7.876,2.4,1.629a35,35,0,0,0,11.527,5.1l2.684.645Z" transform="translate(-5107.001 -2248.6)" fill="#231615"/>
    </g>
    <g id="Group_1335" data-name="Group 1335" transform="translate(4803.273 2518.852)">
      <g id="Group_1330" data-name="Group 1330" transform="translate(0)">
        <path id="Path_937" data-name="Path 937" d="M4865.352,2735.568a14.947,14.947,0,0,1-14.931-14.93h7.633a7.3,7.3,0,0,0,14.593,0h7.634A14.947,14.947,0,0,1,4865.352,2735.568Z" transform="translate(-4850.421 -2720.638)" fill="#231615"/>
      </g>
      <g id="Group_1331" data-name="Group 1331" transform="translate(22.036)">
        <path id="Path_938" data-name="Path 938" d="M4903.842,2735.568a14.947,14.947,0,0,1-14.93-14.93h7.633a7.3,7.3,0,0,0,14.593,0h7.633A14.946,14.946,0,0,1,4903.842,2735.568Z" transform="translate(-4888.912 -2720.638)" fill="#231615"/>
      </g>
      <g id="Group_1332" data-name="Group 1332" transform="translate(44.072)">
        <path id="Path_939" data-name="Path 939" d="M4942.331,2735.568a14.947,14.947,0,0,1-14.931-14.93h7.633a7.3,7.3,0,0,0,14.594,0h7.634A14.948,14.948,0,0,1,4942.331,2735.568Z" transform="translate(-4927.4 -2720.638)" fill="#231615"/>
      </g>
      <g id="Group_1333" data-name="Group 1333" transform="translate(66.109)">
        <path id="Path_940" data-name="Path 940" d="M4980.821,2735.568a14.947,14.947,0,0,1-14.931-14.93h7.633a7.3,7.3,0,0,0,14.593,0h7.633A14.947,14.947,0,0,1,4980.821,2735.568Z" transform="translate(-4965.891 -2720.638)" fill="#231615"/>
      </g>
      <g id="Group_1334" data-name="Group 1334" transform="translate(88.147)">
        <path id="Path_941" data-name="Path 941" d="M5019.312,2735.568a14.946,14.946,0,0,1-14.928-14.93h7.633a7.3,7.3,0,1,0,14.591,0h7.634A14.947,14.947,0,0,1,5019.312,2735.568Z" transform="translate(-5004.384 -2720.638)" fill="#231615"/>
      </g>
    </g>
    <g id="Group_1339" data-name="Group 1339" transform="translate(4756.077 2456.519)">
      <g id="Group_1336" data-name="Group 1336" transform="translate(0)">
        <path id="Path_942" data-name="Path 942" d="M4782.915,2626.691a14.946,14.946,0,0,1-14.928-14.929h7.634a7.3,7.3,0,0,0,14.59,0h7.633A14.946,14.946,0,0,1,4782.915,2626.691Z" transform="translate(-4767.986 -2611.763)" fill="#231615"/>
      </g>
      <g id="Group_1337" data-name="Group 1337" transform="translate(22.035)">
        <path id="Path_943" data-name="Path 943" d="M4821.4,2626.691a14.947,14.947,0,0,1-14.929-14.929h7.634a7.3,7.3,0,0,0,14.592,0h7.633A14.946,14.946,0,0,1,4821.4,2626.691Z" transform="translate(-4806.475 -2611.763)" fill="#231615"/>
      </g>
      <g id="Group_1338" data-name="Group 1338" transform="translate(44.072)">
        <path id="Path_944" data-name="Path 944" d="M4859.9,2626.691a14.947,14.947,0,0,1-14.931-14.929h7.634a7.3,7.3,0,0,0,14.591,0h7.633A14.946,14.946,0,0,1,4859.9,2626.691Z" transform="translate(-4844.965 -2611.763)" fill="#231615"/>
      </g>
    </g>
    <g id="Group_1343" data-name="Group 1343" transform="translate(4944.768 2502.043)">
      <g id="Group_1340" data-name="Group 1340">
        <path id="Path_945" data-name="Path 945" d="M5112.494,2706.207a14.945,14.945,0,0,1-14.928-14.928h7.633a7.3,7.3,0,0,0,14.59,0h7.634A14.946,14.946,0,0,1,5112.494,2706.207Z" transform="translate(-5097.565 -2691.279)" fill="#231615"/>
      </g>
      <g id="Group_1341" data-name="Group 1341" transform="translate(22.035)">
        <path id="Path_946" data-name="Path 946" d="M5150.982,2706.207a14.945,14.945,0,0,1-14.928-14.928h7.634a7.3,7.3,0,0,0,14.591,0h7.633A14.945,14.945,0,0,1,5150.982,2706.207Z" transform="translate(-5136.054 -2691.279)" fill="#231615"/>
      </g>
      <g id="Group_1342" data-name="Group 1342" transform="translate(44.072)">
        <path id="Path_947" data-name="Path 947" d="M5189.475,2706.207a14.946,14.946,0,0,1-14.93-14.928h7.634a7.3,7.3,0,0,0,14.591,0h7.633A14.945,14.945,0,0,1,5189.475,2706.207Z" transform="translate(-5174.544 -2691.279)" fill="#231615"/>
      </g>
    </g>
    <g id="Group_1344" data-name="Group 1344" transform="translate(4987.759 2286.186)">
      <path id="Path_948" data-name="Path 948" d="M5190.044,2349.021a17.385,17.385,0,1,1,0-34.771h0a17.275,17.275,0,0,1,12.3,5.094h0a17.382,17.382,0,0,1-12.3,29.676Zm0-27.137a9.756,9.756,0,1,0,6.9,2.859h0a9.687,9.687,0,0,0-6.9-2.858Z" transform="translate(-5172.657 -2314.25)" fill="#231615"/>
    </g>
  </g>
</svg>
