<svg xmlns="http://www.w3.org/2000/svg" xmlns:xlink="http://www.w3.org/1999/xlink" width="640.089" height="640.089" viewBox="0 0 640.089 640.089"><defs><clipPath id="a"><circle cx="245.849" cy="245.849" r="245.849" transform="translate(1412.912 -5565.895) rotate(-22)" fill="#fff" stroke="#707070" stroke-width="1"/></clipPath></defs><g transform="translate(-1412.912 5750.089)" opacity="0.56" clip-path="url(#a)"><path d="M0,0V515.953" transform="translate(1636.513 -5668.615) rotate(-22)" fill="none" stroke="#6356ed" stroke-width="2"/><path d="M0,0V515.953" transform="translate(1653.632 -5675.531) rotate(-22)" fill="none" stroke="#6356ed" stroke-width="2"/><path d="M0,0V515.953" transform="translate(1670.751 -5682.448) rotate(-22)" fill="none" stroke="#6356ed" stroke-width="2"/><path d="M0,0V515.953" transform="translate(1413.967 -5578.7) rotate(-22)" fill="none" stroke="#6356ed" stroke-width="2"/><path d="M0,0V515.953" transform="translate(1687.87 -5689.364) rotate(-22)" fill="none" stroke="#6356ed" stroke-width="2"/><path d="M0,0V515.953" transform="translate(1431.086 -5585.617) rotate(-22)" fill="none" stroke="#6356ed" stroke-width="2"/><path d="M0,0V515.953" transform="translate(1704.989 -5696.281) rotate(-22)" fill="none" stroke="#6356ed" stroke-width="2"/><path d="M0,0V515.953" transform="translate(1448.205 -5592.534) rotate(-22)" fill="none" stroke="#6356ed" stroke-width="2"/><path d="M0,0V515.953" transform="translate(1722.108 -5703.197) rotate(-22)" fill="none" stroke="#6356ed" stroke-width="2"/><path d="M0,0V515.953" transform="translate(1465.324 -5599.45) rotate(-22)" fill="none" stroke="#6356ed" stroke-width="2"/><path d="M0,0V515.953" transform="translate(1739.227 -5710.114) rotate(-22)" fill="none" stroke="#6356ed" stroke-width="2"/><path d="M0,0V515.953" transform="translate(1482.443 -5606.366) rotate(-22)" fill="none" stroke="#6356ed" stroke-width="2"/><path d="M0,0V515.953" transform="translate(1756.346 -5717.03) rotate(-22)" fill="none" stroke="#6356ed" stroke-width="2"/><path d="M0,0V515.953" transform="translate(1499.562 -5613.283) rotate(-22)" fill="none" stroke="#6356ed" stroke-width="2"/><path d="M0,0V515.953" transform="translate(1773.465 -5723.947) rotate(-22)" fill="none" stroke="#6356ed" stroke-width="2"/><path d="M0,0V515.953" transform="translate(1516.68 -5620.199) rotate(-22)" fill="none" stroke="#6356ed" stroke-width="2"/><path d="M0,0V515.953" transform="translate(1790.583 -5730.863) rotate(-22)" fill="none" stroke="#6356ed" stroke-width="2"/><path d="M0,0V515.953" transform="translate(1533.8 -5627.116) rotate(-22)" fill="none" stroke="#6356ed" stroke-width="2"/><path d="M0,0V515.953" transform="translate(1807.702 -5737.78) rotate(-22)" fill="none" stroke="#6356ed" stroke-width="2"/><path d="M0,0V515.953" transform="translate(1550.918 -5634.032) rotate(-22)" fill="none" stroke="#6356ed" stroke-width="2"/><path d="M0,0V515.953" transform="translate(1824.822 -5744.696) rotate(-22)" fill="none" stroke="#6356ed" stroke-width="2"/><path d="M0,0V515.953" transform="translate(1568.037 -5640.949) rotate(-22)" fill="none" stroke="#6356ed" stroke-width="2"/><path d="M0,0V515.953" transform="translate(1841.94 -5751.613) rotate(-22)" fill="none" stroke="#6356ed" stroke-width="2"/><path d="M0,0V515.953" transform="translate(1585.156 -5647.865) rotate(-22)" fill="none" stroke="#6356ed" stroke-width="2"/><path d="M0,0V515.953" transform="translate(1859.059 -5758.529) rotate(-22)" fill="none" stroke="#6356ed" stroke-width="2"/><path d="M0,0V515.953" transform="translate(1602.275 -5654.782) rotate(-22)" fill="none" stroke="#6356ed" stroke-width="2"/><path d="M0,0V515.953" transform="translate(1619.394 -5661.698) rotate(-22)" fill="none" stroke="#6356ed" stroke-width="2"/></g></svg>