<svg xmlns="http://www.w3.org/2000/svg" xmlns:xlink="http://www.w3.org/1999/xlink" width="697.511" height="697.511" viewBox="0 0 697.511 697.511"><defs><clipPath id="a"><circle cx="260.817" cy="260.817" r="260.817" transform="translate(2145 -5346)" fill="#fff" stroke="#707070" stroke-width="1"/></clipPath></defs><g transform="matrix(0.899, 0.438, -0.438, 0.899, -4042.776, 3864.647)" opacity="0.27" clip-path="url(#a)"><path d="M2297.911-7278.15v547.365" transform="translate(107.854 1919.974)" fill="none" stroke="#1ddf92" stroke-width="2"/><path d="M2297.911-7278.15v547.365" transform="translate(127.441 1919.974)" fill="none" stroke="#1ddf92" stroke-width="2"/><path d="M2297.911-7278.15v547.365" transform="translate(147.029 1919.974)" fill="none" stroke="#1ddf92" stroke-width="2"/><path d="M2297.911-7278.15v547.365" transform="translate(-146.783 1919.974)" fill="none" stroke="#1ddf92" stroke-width="2"/><path d="M2297.911-7278.15v547.365" transform="translate(166.616 1919.974)" fill="none" stroke="#1ddf92" stroke-width="2"/><path d="M2297.911-7278.15v547.365" transform="translate(-127.196 1919.974)" fill="none" stroke="#1ddf92" stroke-width="2"/><path d="M2297.911-7278.15v547.365" transform="translate(186.204 1919.974)" fill="none" stroke="#1ddf92" stroke-width="2"/><path d="M2297.911-7278.15v547.365" transform="translate(-107.608 1919.974)" fill="none" stroke="#1ddf92" stroke-width="2"/><path d="M2297.911-7278.15v547.365" transform="translate(205.791 1919.974)" fill="none" stroke="#1ddf92" stroke-width="2"/><path d="M2297.911-7278.15v547.365" transform="translate(-88.021 1919.974)" fill="none" stroke="#1ddf92" stroke-width="2"/><path d="M2297.911-7278.15v547.365" transform="translate(225.379 1919.974)" fill="none" stroke="#1ddf92" stroke-width="2"/><path d="M2297.911-7278.15v547.365" transform="translate(-68.433 1919.974)" fill="none" stroke="#1ddf92" stroke-width="2"/><path d="M2297.911-7278.15v547.365" transform="translate(244.966 1919.974)" fill="none" stroke="#1ddf92" stroke-width="2"/><path d="M2297.911-7278.15v547.365" transform="translate(-48.846 1919.974)" fill="none" stroke="#1ddf92" stroke-width="2"/><path d="M2297.911-7278.15v547.365" transform="translate(264.554 1919.974)" fill="none" stroke="#1ddf92" stroke-width="2"/><path d="M2297.911-7278.15v547.365" transform="translate(-29.258 1919.974)" fill="none" stroke="#1ddf92" stroke-width="2"/><path d="M2297.911-7278.15v547.365" transform="translate(284.141 1919.974)" fill="none" stroke="#1ddf92" stroke-width="2"/><path d="M2297.911-7278.15v547.365" transform="translate(-9.671 1919.974)" fill="none" stroke="#1ddf92" stroke-width="2"/><path d="M2297.911-7278.15v547.365" transform="translate(303.729 1919.974)" fill="none" stroke="#1ddf92" stroke-width="2"/><path d="M2297.911-7278.15v547.365" transform="translate(9.917 1919.974)" fill="none" stroke="#1ddf92" stroke-width="2"/><path d="M2297.911-7278.15v547.365" transform="translate(323.316 1919.974)" fill="none" stroke="#1ddf92" stroke-width="2"/><path d="M2297.911-7278.15v547.365" transform="translate(29.504 1919.974)" fill="none" stroke="#1ddf92" stroke-width="2"/><path d="M2297.911-7278.15v547.365" transform="translate(342.904 1919.974)" fill="none" stroke="#1ddf92" stroke-width="2"/><path d="M2297.911-7278.15v547.365" transform="translate(49.092 1919.974)" fill="none" stroke="#1ddf92" stroke-width="2"/><path d="M2297.911-7278.15v547.365" transform="translate(362.491 1919.974)" fill="none" stroke="#1ddf92" stroke-width="2"/><path d="M2297.911-7278.15v547.365" transform="translate(68.679 1919.974)" fill="none" stroke="#1ddf92" stroke-width="2"/><path d="M2297.911-7278.15v547.365" transform="translate(88.266 1919.974)" fill="none" stroke="#1ddf92" stroke-width="2"/></g></svg>