<svg xmlns="http://www.w3.org/2000/svg" xmlns:xlink="http://www.w3.org/1999/xlink" width="589.392" height="589.392" viewBox="0 0 589.392 589.392"><defs><clipPath id="a"><circle cx="226.378" cy="226.378" r="226.378" transform="translate(2145 -5346)" fill="#fff" stroke="#707070" stroke-width="1"/></clipPath></defs><g transform="translate(13.837 5929.861) rotate(-22)" opacity="0.27" clip-path="url(#a)"><path d="M2297.911-7278.148v475.087" transform="translate(73.421 1921.58)" fill="none" stroke="#ed5c56" stroke-width="2"/><path d="M2297.911-7278.148v475.087" transform="translate(90.422 1921.58)" fill="none" stroke="#ed5c56" stroke-width="2"/><path d="M2297.911-7278.148v475.087" transform="translate(107.423 1921.58)" fill="none" stroke="#ed5c56" stroke-width="2"/><path d="M2297.911-7278.148v475.087" transform="translate(-147.592 1921.58)" fill="none" stroke="#ed5c56" stroke-width="2"/><path d="M2297.911-7278.148v475.087" transform="translate(124.424 1921.58)" fill="none" stroke="#ed5c56" stroke-width="2"/><path d="M2297.911-7278.148v475.087" transform="translate(-130.591 1921.58)" fill="none" stroke="#ed5c56" stroke-width="2"/><path d="M2297.911-7278.148v475.087" transform="translate(141.425 1921.58)" fill="none" stroke="#ed5c56" stroke-width="2"/><path d="M2297.911-7278.148v475.087" transform="translate(-113.59 1921.58)" fill="none" stroke="#ed5c56" stroke-width="2"/><path d="M2297.911-7278.148v475.087" transform="translate(158.426 1921.58)" fill="none" stroke="#ed5c56" stroke-width="2"/><path d="M2297.911-7278.148v475.087" transform="translate(-96.589 1921.58)" fill="none" stroke="#ed5c56" stroke-width="2"/><path d="M2297.911-7278.148v475.087" transform="translate(175.427 1921.58)" fill="none" stroke="#ed5c56" stroke-width="2"/><path d="M2297.911-7278.148v475.087" transform="translate(-79.588 1921.58)" fill="none" stroke="#ed5c56" stroke-width="2"/><path d="M2297.911-7278.148v475.087" transform="translate(192.428 1921.58)" fill="none" stroke="#ed5c56" stroke-width="2"/><path d="M2297.911-7278.148v475.087" transform="translate(-62.587 1921.58)" fill="none" stroke="#ed5c56" stroke-width="2"/><path d="M2297.911-7278.148v475.087" transform="translate(209.429 1921.58)" fill="none" stroke="#ed5c56" stroke-width="2"/><path d="M2297.911-7278.148v475.087" transform="translate(-45.586 1921.58)" fill="none" stroke="#ed5c56" stroke-width="2"/><path d="M2297.911-7278.148v475.087" transform="translate(226.43 1921.58)" fill="none" stroke="#ed5c56" stroke-width="2"/><path d="M2297.911-7278.148v475.087" transform="translate(-28.585 1921.58)" fill="none" stroke="#ed5c56" stroke-width="2"/><path d="M2297.911-7278.148v475.087" transform="translate(243.431 1921.58)" fill="none" stroke="#ed5c56" stroke-width="2"/><path d="M2297.911-7278.148v475.087" transform="translate(-11.584 1921.58)" fill="none" stroke="#ed5c56" stroke-width="2"/><path d="M2297.911-7278.148v475.087" transform="translate(260.433 1921.58)" fill="none" stroke="#ed5c56" stroke-width="2"/><path d="M2297.911-7278.148v475.087" transform="translate(5.417 1921.58)" fill="none" stroke="#ed5c56" stroke-width="2"/><path d="M2297.911-7278.148v475.087" transform="translate(277.434 1921.58)" fill="none" stroke="#ed5c56" stroke-width="2"/><path d="M2297.911-7278.148v475.087" transform="translate(22.418 1921.58)" fill="none" stroke="#ed5c56" stroke-width="2"/><path d="M2297.911-7278.148v475.087" transform="translate(294.435 1921.58)" fill="none" stroke="#ed5c56" stroke-width="2"/><path d="M2297.911-7278.148v475.087" transform="translate(39.419 1921.58)" fill="none" stroke="#ed5c56" stroke-width="2"/><path d="M2297.911-7278.148v475.087" transform="translate(56.42 1921.58)" fill="none" stroke="#ed5c56" stroke-width="2"/></g></svg>