<svg xmlns="http://www.w3.org/2000/svg" xmlns:xlink="http://www.w3.org/1999/xlink" width="855.974" height="855.974" viewBox="0 0 855.974 855.974"><defs><clipPath id="a"><circle cx="328.768" cy="328.768" r="328.768" transform="translate(2145 -5346)" fill="#fff" stroke="#707070" stroke-width="1"/></clipPath></defs><g transform="translate(13.837 6006.574) rotate(-22)" opacity="0.27" clip-path="url(#a)"><path d="M2297.911-7278.147v689.969" transform="translate(175.791 1916.798)" fill="none" stroke="#eda756" stroke-width="2"/><path d="M2297.911-7278.147v689.969" transform="translate(200.482 1916.798)" fill="none" stroke="#eda756" stroke-width="2"/><path d="M2297.911-7278.147v689.969" transform="translate(225.172 1916.798)" fill="none" stroke="#eda756" stroke-width="2"/><path d="M2297.911-7278.147v689.969" transform="translate(-145.187 1916.798)" fill="none" stroke="#eda756" stroke-width="2"/><path d="M2297.911-7278.147v689.969" transform="translate(249.863 1916.798)" fill="none" stroke="#eda756" stroke-width="2"/><path d="M2297.911-7278.147v689.969" transform="translate(-120.496 1916.798)" fill="none" stroke="#eda756" stroke-width="2"/><path d="M2297.911-7278.147v689.969" transform="translate(274.553 1916.798)" fill="none" stroke="#eda756" stroke-width="2"/><path d="M2297.911-7278.147v689.969" transform="translate(-95.806 1916.798)" fill="none" stroke="#eda756" stroke-width="2"/><path d="M2297.911-7278.147v689.969" transform="translate(299.244 1916.798)" fill="none" stroke="#eda756" stroke-width="2"/><path d="M2297.911-7278.147v689.969" transform="translate(-71.115 1916.798)" fill="none" stroke="#eda756" stroke-width="2"/><path d="M2297.911-7278.147v689.969" transform="translate(323.935 1916.798)" fill="none" stroke="#eda756" stroke-width="2"/><path d="M2297.911-7278.147v689.969" transform="translate(-46.424 1916.798)" fill="none" stroke="#eda756" stroke-width="2"/><path d="M2297.911-7278.147v689.969" transform="translate(348.625 1916.798)" fill="none" stroke="#eda756" stroke-width="2"/><path d="M2297.911-7278.147v689.969" transform="translate(-21.734 1916.798)" fill="none" stroke="#eda756" stroke-width="2"/><path d="M2297.911-7278.147v689.969" transform="translate(373.316 1916.798)" fill="none" stroke="#eda756" stroke-width="2"/><path d="M2297.911-7278.147v689.969" transform="translate(2.957 1916.798)" fill="none" stroke="#eda756" stroke-width="2"/><path d="M2297.911-7278.147v689.969" transform="translate(398.006 1916.798)" fill="none" stroke="#eda756" stroke-width="2"/><path d="M2297.911-7278.147v689.969" transform="translate(27.647 1916.798)" fill="none" stroke="#eda756" stroke-width="2"/><path d="M2297.911-7278.147v689.969" transform="translate(422.697 1916.798)" fill="none" stroke="#eda756" stroke-width="2"/><path d="M2297.911-7278.147v689.969" transform="translate(52.338 1916.798)" fill="none" stroke="#eda756" stroke-width="2"/><path d="M2297.911-7278.147v689.969" transform="translate(447.388 1916.798)" fill="none" stroke="#eda756" stroke-width="2"/><path d="M2297.911-7278.147v689.969" transform="translate(77.029 1916.798)" fill="none" stroke="#eda756" stroke-width="2"/><path d="M2297.911-7278.147v689.969" transform="translate(472.078 1916.798)" fill="none" stroke="#eda756" stroke-width="2"/><path d="M2297.911-7278.147v689.969" transform="translate(101.719 1916.798)" fill="none" stroke="#eda756" stroke-width="2"/><path d="M2297.911-7278.147v689.969" transform="translate(496.769 1916.798)" fill="none" stroke="#eda756" stroke-width="2"/><path d="M2297.911-7278.147v689.969" transform="translate(126.41 1916.798)" fill="none" stroke="#eda756" stroke-width="2"/><path d="M2297.911-7278.147v689.969" transform="translate(151.101 1916.798)" fill="none" stroke="#eda756" stroke-width="2"/></g></svg>