<svg id="Component_6_1" data-name="Component 6 – 1" xmlns="http://www.w3.org/2000/svg" width="76" height="76" viewBox="0 0 76 76">
  <circle id="Ellipse_40" data-name="Ellipse 40" cx="32" cy="32" r="32" transform="translate(6 6)" fill="#ed5c56"/>
  <circle id="Ellipse_42" data-name="Ellipse 42" cx="32" cy="32" r="32" transform="translate(6 6)" fill="#ed5c56"/>
  <g id="Ellipse_41" data-name="Ellipse 41" fill="none" stroke="#462c2b" stroke-width="3">
    <circle cx="38" cy="38" r="38" stroke="none"/>
    <circle cx="38" cy="38" r="36.5" fill="none"/>
  </g>
  <g id="Group_544" data-name="Group 544" transform="translate(-2650.016 607.233)">
    <path id="Path_202" data-name="Path 202" d="M2696.037-509.334c0,.693.016,1.386,0,2.079a2.941,2.941,0,0,1-3.328,2.851,27.221,27.221,0,0,1-11.72-4.459,21.144,21.144,0,0,1-8.615-13.7,24.5,24.5,0,0,1-.343-2.551,2.888,2.888,0,0,1,2.87-3.22c1.409-.024,2.82-.017,4.229,0a2.192,2.192,0,0,1,2.28,1.783,39.936,39.936,0,0,1,.8,4.354,3.681,3.681,0,0,1-.485,1.871,13.466,13.466,0,0,1-1.2,1.686,1.75,1.75,0,0,0-.05,2.077,11.857,11.857,0,0,0,3.583,3.657,1.526,1.526,0,0,0,2.161-.11c1.714-2.068,3.816-1.476,5.927-1.068.678.131,1.364.226,2.038.375a2.245,2.245,0,0,1,1.855,2.3c.012.693,0,1.386,0,2.079Z" transform="translate(0 -48.723)" fill="#fff"/>
    <path id="Path_203" data-name="Path 203" d="M2754.713-584.5q-1.885,1.473-3.768,2.945-2.855,2.224-5.713,4.443c-1.318,1.028-1.922,1.03-3.23.011q-4.465-3.479-8.933-6.955c-.185-.144-.357-.3-.734-.625a8.541,8.541,0,0,1,1.951-.524q9.323-.053,18.645,0a7.393,7.393,0,0,1,1.789.468Z" transform="translate(-51.667)" fill="#fff"/>
    <path id="Path_204" data-name="Path 204" d="M2769.221-511.119a8.386,8.386,0,0,1-1.457.292q-8.959.022-17.918,0a1.208,1.208,0,0,1-.245-.046c.094-.584.158-1.148.289-1.7a.97.97,0,0,1,.4-.459c2.044-1.449,4.088-2.9,6.154-4.316a1.026,1.026,0,0,1,.813-.071,3.05,3.05,0,0,0,2.3-.014.817.817,0,0,1,.639-.029C2763.154-515.4,2766.094-513.321,2769.221-511.119Z" transform="translate(-66.457 -58.01)" fill="#fff"/>
    <path id="Path_205" data-name="Path 205" d="M2837.938-574.16c.337,4.286.1,8.411.084,12.531a4.449,4.449,0,0,1-.347,1.141l-9.094-6.4Z" transform="translate(-134.108 -9.484)" fill="#fff"/>
    <path id="Path_206" data-name="Path 206" d="M2727.547-573.576l9.24,7.185-6.193,4.36c-.191-.992-.4-1.867-.521-2.753a3.715,3.715,0,0,0-2.474-3.293c-.122-.045-.283-.214-.283-.325,0-1.6.018-3.2.044-4.8C2727.362-573.3,2727.458-573.4,2727.547-573.576Z" transform="translate(-47.369 -9.985)" fill="#fff"/>
  </g>
</svg>
