<svg xmlns="http://www.w3.org/2000/svg" width="58.182" height="58.179" viewBox="0 0 58.182 58.179">
  <g id="Group_538" data-name="Group 538" transform="translate(-2168.606 992.583)">
    <path id="Path_194" data-name="Path 194" d="M2197.626-934.4q-13.344,0-26.688,0c-1.769,0-2.312-.536-2.313-2.282,0-10.3.011-20.6-.019-30.9a2.716,2.716,0,0,1,1.139-2.312c2.035-1.635,4.018-3.335,6.053-4.97a2.158,2.158,0,0,0,.907-1.924c-.062-2.232-.031-4.467-.017-6.7.011-1.693.575-2.252,2.238-2.254,3.028,0,6.057.024,9.085-.026a2.65,2.65,0,0,0,1.5-.55c2.244-1.8,4.44-3.655,6.653-5.491,1.243-1.032,1.83-1.027,3.083.014,2.211,1.838,4.406,3.7,6.651,5.493a2.651,2.651,0,0,0,1.509.535c3.028.049,6.056.021,9.085.026,1.614,0,2.2.558,2.209,2.168.02,2.31-.041,4.621.041,6.928a2.479,2.479,0,0,0,.74,1.608c2.017,1.773,4.1,3.474,6.189,5.16a2.726,2.726,0,0,1,1.114,2.326c-.029,10.3-.017,20.6-.019,30.9,0,1.69-.556,2.253-2.228,2.253Q2211.084-934.4,2197.626-934.4Zm25.7-30.614c-.592.356-1.014.6-1.428.86-7.573,4.71-15.156,9.405-22.706,14.152a2.465,2.465,0,0,1-3-.014c-7.711-4.846-15.456-9.638-23.192-14.443-.275-.171-.567-.311-.9-.492v27.068h51.225Zm-43.156-17.261c-.029.282-.07.5-.07.722,0,5.563-.022,11.125.031,16.687a1.861,1.861,0,0,0,.8,1.289c5.3,3.35,10.64,6.637,15.944,9.982a1.383,1.383,0,0,0,1.724-.052q7.87-4.941,15.781-9.815a1.75,1.75,0,0,0,.937-1.727c-.034-5.3-.016-10.6-.021-15.893,0-.4-.041-.794-.063-1.193Zm20.944-3.519c-1.078-.905-1.928-1.653-2.822-2.347-.223-.174-.706-.341-.856-.228-1.029.772-2,1.619-3.151,2.575Zm17.657,19.568,3.4-2.114-3.4-2.774Zm-42.152-4.914-3.373,2.809,3.373,2.092Z" fill="#eda756"/>
    <path id="Path_195" data-name="Path 195" d="M2262.809-919.4c-3.559,2.762-7.441.244-7.969-3.616a8.375,8.375,0,0,1,.495-4.078c1.135-2.83,3.916-3.678,6.62-2.562.776-.467,1.325-1.07,1.87-1.065.929.007.936.894.932,1.638-.013,2.384-.029,4.768-.026,7.152,0,.735-.186,1.648.83,1.859a1.934,1.934,0,0,0,2.155-1.139,7.188,7.188,0,0,0,.608-5.806,8.549,8.549,0,0,0-9.66-5.543,8.568,8.568,0,0,0-6.848,9,8.454,8.454,0,0,0,7.516,7.814c.188.02.376.04.564.066.76.105,1.336.43,1.223,1.306-.1.809-.709.978-1.425.946a10.523,10.523,0,0,1-5.875-2.125,10.8,10.8,0,0,1-3.782-11.951,10.826,10.826,0,0,1,10.3-7.468,10.722,10.722,0,0,1,10.156,7.321,9.185,9.185,0,0,1-.747,7.449C2268.2-917.314,2265.035-916.967,2262.809-919.4Zm-6.1-5.013a15.591,15.591,0,0,0,.981,2.652,2.239,2.239,0,0,0,4.04.007,4.675,4.675,0,0,0,.2-4.758,2.25,2.25,0,0,0-3.773-.634A12.1,12.1,0,0,0,2256.706-924.416Z" transform="translate(-62.531 -44.525)" fill="#eda756"/>
  </g>
</svg>
