<svg xmlns="http://www.w3.org/2000/svg" width="383.994" height="414.383" viewBox="0 0 383.994 414.383">
  <g id="Group_234" data-name="Group 234" transform="translate(1216.257 1666.778)">
    <g id="Group_150" data-name="Group 150" transform="translate(-937.705 -1618.14)">
      <path id="Path_34" data-name="Path 34" d="M-447.181-1441.7h-3.211v-3.9h3.211c.636,0,1.279-.013,1.912-.039l.158,3.9C-445.8-1441.716-446.493-1441.7-447.181-1441.7Zm-8.414,0h-5.2v-3.9h5.2Zm-10.406,0h-5.2v-3.9h5.2Zm-10.406,0h-5.2v-3.9h5.2Zm-10.406,0h-5.2v-3.9h5.2Zm-10.406,0h-5.2v-3.9h5.2Zm57.49-.551-.575-3.86a46.1,46.1,0,0,0,4.886-1l.989,3.775A50.031,50.031,0,0,1-439.727-1442.253Zm10.453-2.74-1.392-3.646a46.281,46.281,0,0,0,4.557-2.031l1.779,3.473A50.148,50.148,0,0,1-429.274-1444.992Zm9.619-4.926-2.143-3.261a46.43,46.43,0,0,0,4.018-2.96l2.479,3.013A50.469,50.469,0,0,1-419.655-1449.918Zm8.341-6.863-2.788-2.731a46.829,46.829,0,0,0,3.3-3.746l3.063,2.417A50.77,50.77,0,0,1-411.314-1456.781Zm6.69-8.479-3.305-2.074a46.483,46.483,0,0,0,2.421-4.361l3.509,1.707A50.479,50.479,0,0,1-404.624-1465.261Zm4.724-9.715-3.673-1.317a46.107,46.107,0,0,0,1.426-4.779l3.794.911A49.948,49.948,0,0,1-399.9-1474.975Zm2.523-10.506-3.87-.5a46.731,46.731,0,0,0,.367-4.976l3.9.079A50.749,50.749,0,0,1-397.378-1485.481Zm-3.665-10.46a46.526,46.526,0,0,0-.694-4.94l3.829-.751a50.34,50.34,0,0,1,.753,5.356Zm-1.918-9.776a46.179,46.179,0,0,0-1.741-4.675l3.577-1.559a49.936,49.936,0,0,1,1.889,5.072Zm-3.978-9.135a46.526,46.526,0,0,0-2.7-4.193l3.161-2.289a50.556,50.556,0,0,1,2.933,4.546Zm-5.844-8.073a46.764,46.764,0,0,0-3.536-3.522l2.6-2.908a50.776,50.776,0,0,1,3.832,3.817Zm-7.427-6.645a46.632,46.632,0,0,0-4.2-2.686l1.921-3.4a50.444,50.444,0,0,1,4.557,2.913Zm-8.669-4.9a46.174,46.174,0,0,0-4.681-1.722l1.147-3.73a50.181,50.181,0,0,1,5.078,1.868Zm-9.52-2.926a46.51,46.51,0,0,0-4.943-.675l.319-3.889a50.542,50.542,0,0,1,5.359.731Zm-9.98-.832h-5.2v-3.9h5.2Zm-10.406,0h-5.2v-3.9h5.2Zm-10.406,0h-1.335v-3.9h1.335Z" transform="translate(502.421 1542.135)" fill="#231615"/>
    </g>
    <g id="Group_154" data-name="Group 154" transform="translate(-1194.224 -1664.099)">
      <g id="Group_151" data-name="Group 151" transform="translate(0 0.954)">
        <path id="Path_35" data-name="Path 35" d="M-1017.762-1634.284v71.5h-142.031v-94.689h118.841Z" transform="translate(1159.794 1657.468)" fill="#eda756"/>
      </g>
      <g id="Group_153" data-name="Group 153" transform="translate(117.884)">
        <g id="Group_152" data-name="Group 152">
          <path id="Path_36" data-name="Path 36" d="M-857.7-1635.763v-24.15l24.157,24.15Z" transform="translate(857.695 1659.913)" fill="#ed5c56"/>
        </g>
      </g>
    </g>
    <g id="Group_160" data-name="Group 160" transform="translate(-1216.257 -1666.778)">
      <g id="Group_155" data-name="Group 155" transform="translate(0.672 0)">
        <rect id="Rectangle_110" data-name="Rectangle 110" width="36.893" height="3.902" fill="#231615"/>
      </g>
      <g id="Group_156" data-name="Group 156" transform="translate(0 11.417)">
        <rect id="Rectangle_111" data-name="Rectangle 111" width="87.615" height="3.902" fill="#231615"/>
      </g>
      <g id="Group_157" data-name="Group 157" transform="translate(0 22.834)">
        <rect id="Rectangle_112" data-name="Rectangle 112" width="87.615" height="3.902" fill="#231615"/>
      </g>
      <g id="Group_158" data-name="Group 158" transform="translate(0 34.251)">
        <rect id="Rectangle_113" data-name="Rectangle 113" width="87.615" height="3.902" fill="#231615"/>
      </g>
      <g id="Group_159" data-name="Group 159" transform="translate(0 45.668)">
        <rect id="Rectangle_114" data-name="Rectangle 114" width="56.7" height="3.902" fill="#231615"/>
      </g>
    </g>
    <g id="Group_161" data-name="Group 161" transform="translate(-1184.64 -1364.767)">
      <path id="Path_37" data-name="Path 37" d="M-1063.118-839.781h-5.2v-3.9h5.2Zm-10.406,0h-5.2v-3.9h5.2Zm-10.405,0h-5.2v-3.9h5.2Zm-10.406,0h-5.2v-3.9h5.2Zm-10.406,0h-5.2v-3.9h5.2Zm-10.79-.555a23.514,23.514,0,0,1-5.334-1.888l1.733-3.5a19.623,19.623,0,0,0,4.448,1.575Zm-10.061-4.961a25.836,25.836,0,0,1-3.909-4.032l3.079-2.4a21.907,21.907,0,0,0,3.316,3.421Zm-6.865-8.789a27.5,27.5,0,0,1-1.914-5.251l3.782-.958a23.66,23.66,0,0,0,1.642,4.506Zm-2.741-10.769c-.024-.474-.036-.96-.036-1.443a28.665,28.665,0,0,1,.3-4.123l3.861.562a24.743,24.743,0,0,0-.257,3.56c0,.418.011.839.032,1.25Zm5.286-9.663-3.672-1.322a27.251,27.251,0,0,1,2.426-5.044l3.323,2.046A23.267,23.267,0,0,0-1129.912-874.518Zm5-8.1-2.814-2.7a25.217,25.217,0,0,1,4.325-3.6l2.143,3.261A21.29,21.29,0,0,0-1124.914-882.618Zm7.882-5.16-1.32-3.672a23.309,23.309,0,0,1,5.522-1.253l.394,3.882A19.4,19.4,0,0,0-1117.032-887.778Zm14.8-1.143h-5.2v-3.9h5.2Z" transform="translate(1135.234 892.823)" fill="#231615"/>
    </g>
    <g id="Group_197" data-name="Group 197" transform="translate(-1114.475 -1324.036)">
      <g id="Group_162" data-name="Group 162" transform="translate(0 0)">
        <path id="Path_38" data-name="Path 38" d="M-820.173-716.8H-951.053a4.375,4.375,0,0,1-4.37-4.369v-62.9a4.375,4.375,0,0,1,4.37-4.37h130.879a4.374,4.374,0,0,1,4.37,4.37v62.9A4.374,4.374,0,0,1-820.173-716.8Zm-130.879-67.739a.468.468,0,0,0-.468.468v62.9a.468.468,0,0,0,.468.467h130.879a.473.473,0,0,0,.467-.467v-62.9a.473.473,0,0,0-.467-.468Z" transform="translate(955.423 788.443)" fill="#231615"/>
      </g>
      <g id="Group_196" data-name="Group 196" transform="translate(12.075 12.295)">
        <g id="Group_171" data-name="Group 171">
          <g id="Group_163" data-name="Group 163" transform="translate(105.071)">
            <rect id="Rectangle_115" data-name="Rectangle 115" width="10.378" height="3.902" fill="#231615"/>
          </g>
          <g id="Group_164" data-name="Group 164" transform="translate(90.063)">
            <rect id="Rectangle_116" data-name="Rectangle 116" width="10.374" height="3.902" fill="#231615"/>
          </g>
          <g id="Group_165" data-name="Group 165" transform="translate(75.051)">
            <rect id="Rectangle_117" data-name="Rectangle 117" width="10.377" height="3.902" fill="#231615"/>
          </g>
          <g id="Group_166" data-name="Group 166" transform="translate(60.042)">
            <rect id="Rectangle_118" data-name="Rectangle 118" width="10.374" height="3.902" fill="#231615"/>
          </g>
          <g id="Group_167" data-name="Group 167" transform="translate(45.03)">
            <rect id="Rectangle_119" data-name="Rectangle 119" width="10.374" height="3.902" fill="#231615"/>
          </g>
          <g id="Group_168" data-name="Group 168" transform="translate(30.021)">
            <rect id="Rectangle_120" data-name="Rectangle 120" width="10.374" height="3.902" fill="#231615"/>
          </g>
          <g id="Group_169" data-name="Group 169" transform="translate(15.013)">
            <rect id="Rectangle_121" data-name="Rectangle 121" width="10.373" height="3.902" fill="#231615"/>
          </g>
          <g id="Group_170" data-name="Group 170">
            <rect id="Rectangle_122" data-name="Rectangle 122" width="10.375" height="3.902" fill="#231615"/>
          </g>
        </g>
        <g id="Group_180" data-name="Group 180" transform="translate(0 13.884)">
          <g id="Group_172" data-name="Group 172" transform="translate(105.071)">
            <rect id="Rectangle_123" data-name="Rectangle 123" width="10.378" height="3.902" fill="#231615"/>
          </g>
          <g id="Group_173" data-name="Group 173" transform="translate(90.063)">
            <rect id="Rectangle_124" data-name="Rectangle 124" width="10.374" height="3.902" fill="#231615"/>
          </g>
          <g id="Group_174" data-name="Group 174" transform="translate(75.051)">
            <rect id="Rectangle_125" data-name="Rectangle 125" width="10.377" height="3.902" fill="#231615"/>
          </g>
          <g id="Group_175" data-name="Group 175" transform="translate(60.042)">
            <rect id="Rectangle_126" data-name="Rectangle 126" width="10.374" height="3.902" fill="#231615"/>
          </g>
          <g id="Group_176" data-name="Group 176" transform="translate(45.03)">
            <rect id="Rectangle_127" data-name="Rectangle 127" width="10.374" height="3.902" fill="#231615"/>
          </g>
          <g id="Group_177" data-name="Group 177" transform="translate(30.021)">
            <rect id="Rectangle_128" data-name="Rectangle 128" width="10.374" height="3.902" fill="#231615"/>
          </g>
          <g id="Group_178" data-name="Group 178" transform="translate(15.013)">
            <rect id="Rectangle_129" data-name="Rectangle 129" width="10.373" height="3.902" fill="#231615"/>
          </g>
          <g id="Group_179" data-name="Group 179">
            <rect id="Rectangle_130" data-name="Rectangle 130" width="10.375" height="3.902" fill="#231615"/>
          </g>
        </g>
        <g id="Group_189" data-name="Group 189" transform="translate(0 27.766)">
          <g id="Group_181" data-name="Group 181" transform="translate(105.071)">
            <rect id="Rectangle_131" data-name="Rectangle 131" width="10.378" height="3.902" fill="#231615"/>
          </g>
          <g id="Group_182" data-name="Group 182" transform="translate(90.063)">
            <rect id="Rectangle_132" data-name="Rectangle 132" width="10.374" height="3.902" fill="#231615"/>
          </g>
          <g id="Group_183" data-name="Group 183" transform="translate(75.051)">
            <rect id="Rectangle_133" data-name="Rectangle 133" width="10.377" height="3.902" fill="#231615"/>
          </g>
          <g id="Group_184" data-name="Group 184" transform="translate(60.042)">
            <rect id="Rectangle_134" data-name="Rectangle 134" width="10.374" height="3.902" fill="#231615"/>
          </g>
          <g id="Group_185" data-name="Group 185" transform="translate(45.03)">
            <rect id="Rectangle_135" data-name="Rectangle 135" width="10.374" height="3.902" fill="#231615"/>
          </g>
          <g id="Group_186" data-name="Group 186" transform="translate(30.021)">
            <rect id="Rectangle_136" data-name="Rectangle 136" width="10.374" height="3.902" fill="#231615"/>
          </g>
          <g id="Group_187" data-name="Group 187" transform="translate(15.013)">
            <rect id="Rectangle_137" data-name="Rectangle 137" width="10.373" height="3.902" fill="#231615"/>
          </g>
          <g id="Group_188" data-name="Group 188">
            <rect id="Rectangle_138" data-name="Rectangle 138" width="10.375" height="3.902" fill="#231615"/>
          </g>
        </g>
        <g id="Group_195" data-name="Group 195" transform="translate(0 41.647)">
          <g id="Group_190" data-name="Group 190" transform="translate(105.071)">
            <rect id="Rectangle_139" data-name="Rectangle 139" width="10.378" height="3.902" fill="#231615"/>
          </g>
          <g id="Group_191" data-name="Group 191" transform="translate(90.063)">
            <rect id="Rectangle_140" data-name="Rectangle 140" width="10.374" height="3.902" fill="#231615"/>
          </g>
          <g id="Group_192" data-name="Group 192" transform="translate(29.881)">
            <rect id="Rectangle_141" data-name="Rectangle 141" width="55.546" height="3.902" fill="#231615"/>
          </g>
          <g id="Group_193" data-name="Group 193" transform="translate(15.013)">
            <rect id="Rectangle_142" data-name="Rectangle 142" width="10.373" height="3.902" fill="#231615"/>
          </g>
          <g id="Group_194" data-name="Group 194">
            <rect id="Rectangle_143" data-name="Rectangle 143" width="10.375" height="3.902" fill="#231615"/>
          </g>
        </g>
      </g>
    </g>
    <g id="Group_206" data-name="Group 206" transform="translate(-1031.083 -1633.321)">
      <g id="Group_198" data-name="Group 198" transform="translate(70.6 9.17)">
        <path id="Path_39" data-name="Path 39" d="M-560.794-1542.52H-511.6a6.213,6.213,0,0,0,6.213-6.213v-2.59a6.214,6.214,0,0,0-6.213-6.215h-49.193Z" transform="translate(560.794 1557.538)" fill="#1ddf92"/>
      </g>
      <g id="Group_199" data-name="Group 199" transform="translate(19.852 10.985)">
        <path id="Path_40" data-name="Path 40" d="M-690.843-1541.494h60.326c3.432,0,6.214-2.113,6.214-4.715v-1.966c0-2.6-2.782-4.712-6.214-4.712h-60.326Z" transform="translate(690.843 1552.887)" fill="#1ddf92"/>
      </g>
      <g id="Group_200" data-name="Group 200" transform="translate(78.884)">
        <path id="Path_41" data-name="Path 41" d="M-502.091-1556.85h-3.9v-16.023a4.267,4.267,0,0,0-4.261-4.263h-29.309v-3.9h29.309a8.173,8.173,0,0,1,8.163,8.165Z" transform="translate(539.563 1581.038)" fill="#231615"/>
      </g>
      <g id="Group_201" data-name="Group 201" transform="translate(68.391 9.17)">
        <rect id="Rectangle_144" data-name="Rectangle 144" width="3.902" height="15.279" fill="#231615"/>
      </g>
      <g id="Group_202" data-name="Group 202" transform="translate(18.001 9.17)">
        <rect id="Rectangle_145" data-name="Rectangle 145" width="3.902" height="15.279" fill="#231615"/>
      </g>
      <g id="Group_205" data-name="Group 205" transform="translate(0 10.328)">
        <g id="Group_203" data-name="Group 203">
          <path id="Path_42" data-name="Path 42" d="M-741.718-1546.105v-3.9c3.912,0,8.616-2.012,8.922-3.094l.374-1.47h9.223v3.9h-6.533C-731.977-1547.63-738.233-1546.105-741.718-1546.105Z" transform="translate(741.718 1554.571)" fill="#231615"/>
        </g>
        <g id="Group_204" data-name="Group 204" transform="translate(0 4.564)">
          <path id="Path_43" data-name="Path 43" d="M-723.2-1534.411h-9.223l-.375-1.469c-.308-1.081-5.014-3.093-8.922-3.093v-3.9c3.485,0,9.74,1.524,11.986,4.562h6.533Z" transform="translate(741.718 1542.876)" fill="#231615"/>
        </g>
      </g>
    </g>
    <g id="Group_207" data-name="Group 207" transform="translate(-1017.779 -1577.607)">
      <rect id="Rectangle_146" data-name="Rectangle 146" width="101.457" height="101.457" transform="translate(0 0)" fill="#ed5c56"/>
    </g>
    <g id="Group_208" data-name="Group 208" transform="translate(-1108.18 -1522.278)">
      <rect id="Rectangle_147" data-name="Rectangle 147" width="28.616" height="16.909" transform="translate(0 0)" fill="#eda756"/>
    </g>
    <g id="Group_209" data-name="Group 209" transform="translate(-1145.901 -1548.292)">
      <path id="Path_44" data-name="Path 44" d="M-930.6-1257.778h-105.359v-105.359H-930.6Zm-101.457-3.9H-934.5v-97.555h-97.554Z" transform="translate(1035.958 1363.137)" fill="#231615"/>
    </g>
    <g id="Group_210" data-name="Group 210" transform="translate(-1019.73 -1579.558)">
      <path id="Path_45" data-name="Path 45" d="M-607.265-1337.9H-712.624v-105.359h105.359Zm-101.457-3.9h97.555v-97.554h-97.555Z" transform="translate(712.624 1443.261)" fill="#231615"/>
    </g>
    <g id="Group_211" data-name="Group 211" transform="translate(-985.911 -1536.634)">
      <rect id="Rectangle_148" data-name="Rectangle 148" width="3.902" height="18.21" transform="translate(0 0)" fill="#231615"/>
    </g>
    <g id="Group_212" data-name="Group 212" transform="translate(-975.506 -1511.92)">
      <rect id="Rectangle_149" data-name="Rectangle 149" width="16.91" height="3.902" transform="translate(0)" fill="#231615"/>
    </g>
    <g id="Group_213" data-name="Group 213" transform="translate(-952.093 -1535.333)">
      <rect id="Rectangle_150" data-name="Rectangle 150" width="3.902" height="16.91" transform="translate(0 0)" fill="#231615"/>
    </g>
    <g id="Group_214" data-name="Group 214" transform="translate(-976.806 -1545.739)">
      <rect id="Rectangle_151" data-name="Rectangle 151" width="18.21" height="3.902" transform="translate(0 0)" fill="#231615"/>
    </g>
    <g id="Group_215" data-name="Group 215" transform="translate(-1109.48 -1522.278)">
      <path id="Path_46" data-name="Path 46" d="M-911.407-1253.547h-31.218v-42.924h31.218Zm-27.315-3.9h23.413v-35.12h-23.413Z" transform="translate(942.624 1296.471)" fill="#231615"/>
    </g>
    <g id="Group_216" data-name="Group 216" transform="translate(-1108.18 -1497.564)">
      <rect id="Rectangle_152" data-name="Rectangle 152" width="28.616" height="3.902" transform="translate(0 0)" fill="#231615"/>
    </g>
    <g id="Group_217" data-name="Group 217" transform="translate(-1100.375 -1481.955)">
      <path id="Path_47" data-name="Path 47" d="M-912.137-1171.939a7.162,7.162,0,0,1-7.154-7.154v-14.044h3.9v14.044a3.256,3.256,0,0,0,3.252,3.252,3.255,3.255,0,0,0,3.252-3.252v-14.044h3.9v14.044A7.162,7.162,0,0,1-912.137-1171.939Z" transform="translate(919.291 1193.137)" fill="#231615"/>
    </g>
    <g id="Group_218" data-name="Group 218" transform="translate(-1099.075 -1520.977)">
      <rect id="Rectangle_153" data-name="Rectangle 153" width="6.504" height="10.406" transform="translate(0 0)" fill="#231615"/>
    </g>
    <g id="Group_219" data-name="Group 219" transform="translate(-993.716 -1553.543)">
      <path id="Path_48" data-name="Path 48" d="M-626.447-1357.083h-19.511v-19.511h19.511Zm-15.609-3.9h11.707v-11.707h-11.707Z" transform="translate(645.958 1376.594)" fill="#231615"/>
    </g>
    <g id="Group_220" data-name="Group 220" transform="translate(-959.897 -1553.543)">
      <path id="Path_49" data-name="Path 49" d="M-539.78-1357.083h-19.511v-19.511h19.511Zm-15.609-3.9h11.706v-11.707h-11.706Z" transform="translate(559.291 1376.594)" fill="#231615"/>
    </g>
    <g id="Group_221" data-name="Group 221" transform="translate(-993.716 -1519.725)">
      <path id="Path_50" data-name="Path 50" d="M-626.447-1270.417h-19.511v-19.511h19.511Zm-15.609-3.9h11.707v-11.707h-11.707Z" transform="translate(645.958 1289.928)" fill="#231615"/>
    </g>
    <g id="Group_222" data-name="Group 222" transform="translate(-959.897 -1519.725)">
      <path id="Path_51" data-name="Path 51" d="M-539.78-1270.417h-19.511v-19.511h19.511Zm-15.609-3.9h11.706v-11.707h-11.706Z" transform="translate(559.291 1289.928)" fill="#231615"/>
    </g>
    <g id="Group_233" data-name="Group 233" transform="translate(-1145.901 -1446.835)">
      <g id="Group_223" data-name="Group 223" transform="translate(28.616 28.616)">
        <rect id="Rectangle_154" data-name="Rectangle 154" width="23.413" height="23.413" fill="#eda756"/>
      </g>
      <g id="Group_224" data-name="Group 224" transform="translate(136.113 64.149)">
        <path id="Path_52" data-name="Path 52" d="M-684.266-938.743l-1.12,1.12a6,6,0,0,0,0,8.486l.575.576a6.417,6.417,0,0,0,9.074,0l10.183-10.182Z" transform="translate(687.144 938.743)" fill="#eda756"/>
      </g>
      <g id="Group_225" data-name="Group 225" transform="translate(101.457 0)">
        <path id="Path_53" data-name="Path 53" d="M-670.6-997.778H-775.958v-105.359H-670.6Zm-101.457-3.9H-674.5v-97.555h-97.555Z" transform="translate(775.958 1103.137)" fill="#231615"/>
      </g>
      <g id="Group_226" data-name="Group 226" transform="translate(0 0)">
        <path id="Path_54" data-name="Path 54" d="M-930.6-997.778h-105.359v-105.359H-930.6Zm-101.457-3.9H-934.5v-97.555h-97.554Z" transform="translate(1035.958 1103.137)" fill="#231615"/>
      </g>
      <g id="Group_227" data-name="Group 227" transform="translate(26.015 26.014)">
        <path id="Path_55" data-name="Path 55" d="M-917.262-983.141h-52.029v-53.33h52.029Zm-48.127-3.9h44.225v-45.525h-44.225Z" transform="translate(969.291 1036.471)" fill="#231615"/>
      </g>
      <g id="Group_228" data-name="Group 228" transform="translate(50.729 27.315)">
        <rect id="Rectangle_155" data-name="Rectangle 155" width="3.902" height="49.428" fill="#231615"/>
      </g>
      <g id="Group_229" data-name="Group 229" transform="translate(27.315 50.728)">
        <rect id="Rectangle_156" data-name="Rectangle 156" width="49.428" height="3.902" fill="#231615"/>
      </g>
      <g id="Group_230" data-name="Group 230" transform="translate(133.28 31.71)">
        <path id="Path_56" data-name="Path 56" d="M-685.875-975.388a8.249,8.249,0,0,1-5.851-2.419l-.259-.26a8.218,8.218,0,0,1-2.42-5.847,8.22,8.22,0,0,1,2.424-5.851l29.686-29.686a8.222,8.222,0,0,1,5.851-2.424h0a8.218,8.218,0,0,1,5.851,2.424l.252.25a8.221,8.221,0,0,1,2.427,5.854,8.222,8.222,0,0,1-2.424,5.851l-29.687,29.688A8.25,8.25,0,0,1-685.875-975.388Zm29.431-42.585a4.344,4.344,0,0,0-3.092,1.281l-29.686,29.685a4.344,4.344,0,0,0-1.281,3.091,4.344,4.344,0,0,0,1.281,3.092l.259.26a4.375,4.375,0,0,0,6.179,0l29.687-29.688a4.344,4.344,0,0,0,1.281-3.092,4.34,4.34,0,0,0-1.281-3.091l-.253-.252A4.342,4.342,0,0,0-656.444-1017.973Z" transform="translate(694.405 1021.875)" fill="#231615"/>
      </g>
      <g id="Group_231" data-name="Group 231" transform="translate(151.007 36.56)">
        <rect id="Rectangle_157" data-name="Rectangle 157" width="3.902" height="31.218" transform="matrix(0.707, -0.707, 0.707, 0.707, 0, 2.759)" fill="#231615"/>
      </g>
      <g id="Group_232" data-name="Group 232" transform="translate(132.073 70.59)">
        <rect id="Rectangle_158" data-name="Rectangle 158" width="10.407" height="3.902" transform="matrix(0.707, -0.707, 0.707, 0.707, 0, 7.36)" fill="#231615"/>
      </g>
    </g>
  </g>
</svg>
