<svg id="Group_1281" data-name="Group 1281" xmlns="http://www.w3.org/2000/svg" xmlns:xlink="http://www.w3.org/1999/xlink" width="20" height="20" viewBox="0 0 20 20">
  <defs>
    <linearGradient id="linear-gradient" x1="0.092" y1="0.908" x2="0.908" y2="0.092" gradientUnits="objectBoundingBox">
      <stop offset="0" stop-color="#ffc107"/>
      <stop offset="0.507" stop-color="#f44336"/>
      <stop offset="0.99" stop-color="#9c27b0"/>
    </linearGradient>
    <linearGradient id="linear-gradient-2" x1="0.146" y1="0.854" x2="0.854" y2="0.146" xlink:href="#linear-gradient"/>
    <linearGradient id="linear-gradient-3" x1="0.146" y1="0.854" x2="0.854" y2="0.146" xlink:href="#linear-gradient"/>
  </defs>
  <path id="Path_776" data-name="Path 776" d="M13.75,0H6.25A6.25,6.25,0,0,0,0,6.25v7.5A6.25,6.25,0,0,0,6.25,20h7.5A6.25,6.25,0,0,0,20,13.75V6.25A6.25,6.25,0,0,0,13.75,0Zm4.375,13.75a4.38,4.38,0,0,1-4.375,4.375H6.25A4.38,4.38,0,0,1,1.875,13.75V6.25A4.38,4.38,0,0,1,6.25,1.875h7.5A4.38,4.38,0,0,1,18.125,6.25Z" fill="url(#linear-gradient)"/>
  <path id="Path_777" data-name="Path 777" d="M9,4a5,5,0,1,0,5,5A5,5,0,0,0,9,4Zm0,8.125A3.125,3.125,0,1,1,12.125,9,3.129,3.129,0,0,1,9,12.125Z" transform="translate(1 1)" fill="url(#linear-gradient-2)"/>
  <circle id="Ellipse_46" data-name="Ellipse 46" cx="0.666" cy="0.666" r="0.666" transform="translate(14.709 3.959)" fill="url(#linear-gradient-3)"/>
</svg>
