<svg id="Group_1254" data-name="Group 1254" xmlns="http://www.w3.org/2000/svg" xmlns:xlink="http://www.w3.org/1999/xlink" width="32" height="32" viewBox="0 0 32 32">
  <defs>
    <linearGradient id="linear-gradient" x1="0.092" y1="0.908" x2="0.908" y2="0.092" gradientUnits="objectBoundingBox">
      <stop offset="0" stop-color="#ffc107"/>
      <stop offset="0.507" stop-color="#f44336"/>
      <stop offset="0.99" stop-color="#9c27b0"/>
    </linearGradient>
    <linearGradient id="linear-gradient-2" x1="0.146" y1="0.854" x2="0.854" y2="0.146" xlink:href="#linear-gradient"/>
    <linearGradient id="linear-gradient-3" x1="0.146" y1="0.854" x2="0.854" y2="0.146" xlink:href="#linear-gradient"/>
  </defs>
  <path id="Path_770" data-name="Path 770" d="M22,0H10A10,10,0,0,0,0,10V22A10,10,0,0,0,10,32H22A10,10,0,0,0,32,22V10A10,10,0,0,0,22,0Zm7,22a7.008,7.008,0,0,1-7,7H10a7.008,7.008,0,0,1-7-7V10a7.008,7.008,0,0,1,7-7H22a7.008,7.008,0,0,1,7,7Z" fill="url(#linear-gradient)"/>
  <path id="Path_771" data-name="Path 771" d="M12,4a8,8,0,1,0,8,8A8,8,0,0,0,12,4Zm0,13a5,5,0,1,1,5-5A5.006,5.006,0,0,1,12,17Z" transform="translate(4 4)" fill="url(#linear-gradient-2)"/>
  <circle id="Ellipse_44" data-name="Ellipse 44" cx="1.066" cy="1.066" r="1.066" transform="translate(23.534 6.334)" fill="url(#linear-gradient-3)"/>
</svg>
