<svg xmlns="http://www.w3.org/2000/svg" width="55.62" height="56.15" viewBox="0 0 55.62 56.15">
  <g id="Group_535" data-name="Group 535" transform="translate(-316.933 391.693)">
    <path id="Path_178" data-name="Path 178" d="M318.261-391.693h35.63a2.036,2.036,0,0,1,1.325,2.208c-.052,1.094-.011,2.192-.011,3.288,0,3.928.006,7.855-.01,11.783,0,.431.078.505.508.407a9.133,9.133,0,0,1,1.844-.23,14.068,14.068,0,0,1,12.89,6.837,12.84,12.84,0,0,1,1.965,9.047,20.158,20.158,0,0,1-2.122,5.943A95.523,95.523,0,0,1,359.6-336.224a1.712,1.712,0,0,1-2.748-.021c-.539-.652-1.049-1.329-1.652-2.1a5.375,5.375,0,0,0,0,.551c.164,1.27-.64,2.252-2.256,2.246-11.309-.043-22.619-.023-33.928-.023a1.807,1.807,0,0,1-2.074-2.072q0-25.923-.015-51.846A2.1,2.1,0,0,1,318.261-391.693Zm2.3,3.523c-.213.123-.106.327-.106.489q-.008,24.049,0,48.1c0,.162-.106.365.1.49,2.645.006,5.291,0,7.936.03.475.005.61-.105.608-.6-.021-4.524-.013-9.049-.012-13.573a1.759,1.759,0,0,1,1.552-1.974H341.5a1.754,1.754,0,0,1,1.555,1.974c0,1.861,0,3.721,0,5.582q0,4.05,0,8.1c0,.269-.023.488.378.485,2.718-.021,5.436-.02,8.154-.026.086-.02.106-.084.106-.161q0-1.939,0-3.877a.244.244,0,0,0-.1-.235c-.083-.14-.16-.284-.251-.42-1.309-1.954-2.582-3.931-3.719-5.991a29.025,29.025,0,0,1-3.516-8.6c-.054-.288-.214-.369-.5-.363-.785.017-1.571.008-2.356,0a2.237,2.237,0,0,1-1.011-.19,1.753,1.753,0,0,1-.99-1.635c.054-.839.5-1.341,1.484-1.667,1.037.005,2.074.012,3.11.014.1,0,.225.036.269-.112a16.375,16.375,0,0,1,.992-3.225c.2-.419.061-.484-.336-.479-1.26.015-2.521.018-3.782,0a1.711,1.711,0,0,1-1.747-1.719,1.723,1.723,0,0,1,1.765-1.7c.511-.006,1.024-.021,1.535,0a35.029,35.029,0,0,1,4.749.123c.178.032.269-.081.365-.189a15.8,15.8,0,0,1,3.936-3.092c.189-.136.1-.336.1-.5q.008-7.285,0-14.571c0-.162.106-.366-.106-.49-.146-.007-.291-.019-.437-.019H321C320.856-388.189,320.711-388.177,320.565-388.17Zm37.643,48.005c.11-.123.2-.211.276-.311,1.21-1.623,2.405-3.257,3.537-4.936a62.776,62.776,0,0,0,6.066-10.6,10.269,10.269,0,0,0,.844-5.637,10.884,10.884,0,0,0-13.985-8.6,10.875,10.875,0,0,0-7.521,10.535,10.023,10.023,0,0,0,.938,3.621C350.836-350.294,354.5-345.235,358.208-340.165Zm-25.681-5.243c0,1.954.011,3.907-.009,5.861,0,.392.115.484.491.48q3.067-.027,6.135,0c.393,0,.482-.118.481-.494q-.02-5.833,0-11.666c0-.386-.114-.494-.493-.491-2.027.016-4.054.023-6.08,0-.455-.006-.537.15-.533.562C332.536-349.242,332.525-347.325,332.526-345.408Z" fill="#e64344"/>
    <path id="Path_179" data-name="Path 179" d="M383.815-252.145c-.894,0-1.789.014-2.683,0a1.846,1.846,0,0,1-1.769-1.224,1.745,1.745,0,0,1,.623-1.95,1.835,1.835,0,0,1,1.177-.366c1.788,0,3.577-.013,5.365,0a1.81,1.81,0,0,1,1.895,1.779,1.833,1.833,0,0,1-1.871,1.758C385.64-252.126,384.727-252.144,383.815-252.145Z" transform="translate(-55.491 -121.053)" fill="#e64344"/>
    <path id="Path_180" data-name="Path 180" d="M383.855-318.222c-1,0-2.009.056-3.007-.015a1.718,1.718,0,0,1-1.463-2.277,1.835,1.835,0,0,1,1.721-1.21c1.842-.015,3.685-.022,5.527,0a1.811,1.811,0,0,1,1.808,1.759,1.787,1.787,0,0,1-1.741,1.755c-.472.033-.948.017-1.422.019s-.949,0-1.423,0Z" transform="translate(-55.509 -62.268)" fill="#e64344"/>
    <path id="Path_181" data-name="Path 181" d="M383.812-123.48c.912,0,1.824-.008,2.736,0a1.773,1.773,0,0,1,1.813,1.731,1.8,1.8,0,0,1-1.788,1.775q-2.791.028-5.582,0a1.809,1.809,0,0,1-1.785-1.779,1.764,1.764,0,0,1,1.814-1.726C381.951-123.486,382.881-123.479,383.812-123.48Z" transform="translate(-55.43 -238.738)" fill="#e64344"/>
    <path id="Path_182" data-name="Path 182" d="M383.833-189.5c.894,0,1.788-.01,2.682,0a1.789,1.789,0,0,1,1.847,1.755,1.811,1.811,0,0,1-1.812,1.757q-2.763.038-5.528,0a1.8,1.8,0,0,1-1.815-1.8,1.777,1.777,0,0,1,1.834-1.708C381.973-189.509,382.9-189.5,383.833-189.5Z" transform="translate(-55.431 -179.972)" fill="#e64344"/>
    <path id="Path_183" data-name="Path 183" d="M524.48-255.2c.932,0,1.864-.007,2.8,0a1.65,1.65,0,0,1,1.73,1.655,1.646,1.646,0,0,1-1.673,1.769q-2.85.031-5.7,0a1.711,1.711,0,0,1-1.7-1.711,1.724,1.724,0,0,1,1.754-1.715C522.616-255.208,523.548-255.2,524.48-255.2Z" transform="translate(-180.691 -121.492)" fill="#e64344"/>
    <path id="Path_184" data-name="Path 184" d="M524.5-317.787c-.931,0-1.863.007-2.794,0a1.725,1.725,0,0,1-1.75-1.72,1.71,1.71,0,0,1,1.7-1.709q2.849-.03,5.7,0a1.644,1.644,0,0,1,1.669,1.769,1.665,1.665,0,0,1-1.731,1.66C526.359-317.779,525.428-317.786,524.5-317.787Z" transform="translate(-180.71 -62.717)" fill="#e64344"/>
    <path id="Path_185" data-name="Path 185" d="M649.05-151.609a5.405,5.405,0,0,1,5.416,5.373,5.431,5.431,0,0,1-5.388,5.407,5.429,5.429,0,0,1-5.417-5.379A5.408,5.408,0,0,1,649.05-151.609Zm.045,3.528a1.824,1.824,0,0,0-1.892,1.84,1.871,1.871,0,0,0,1.857,1.9,1.9,1.9,0,0,0,1.882-1.888A1.866,1.866,0,0,0,649.1-148.081Z" transform="translate(-290.825 -213.702)" fill="#e64344"/>
  </g>
</svg>
