<svg xmlns="http://www.w3.org/2000/svg" width="256" height="73.515" viewBox="0 0 256 73.515">
  <g id="Group_12" data-name="Group 12" transform="translate(424.446 78.981)">
    <g id="Group_2" data-name="Group 2" transform="translate(-424.446 -78.981)">
      <g id="Group_1" data-name="Group 1">
        <path id="Path_1" data-name="Path 1" d="M-358.938-92.824c3.5.415,6.985.443,10.238,1.331a23.946,23.946,0,0,1,8.112,3.917c6,4.6,7.529,11.765,4.377,18.627a2.05,2.05,0,0,0,.331,2.755,17.624,17.624,0,0,1-1.753,25.933c-6.71,5.607-14.406,6.407-22.6,4.071a8.953,8.953,0,0,0-3.348-.659c-1.863,1.389-3.537,3.3-5.628,4.059-4.639,1.686-8.266-1.4-7.821-6.294q2.428-26.732,4.922-53.459a7.031,7.031,0,0,1,10.039-5.6C-359.764-97.05-359.208-94.96-358.938-92.824Zm-4.037,38.913c.272.872.28,2.213.86,2.537,4.155,2.326,8.544,4.061,13.448,3.145a6.24,6.24,0,0,0,4.779-6.186c-.054-2.275-1.851-4.127-5-4.378a52.373,52.373,0,0,0-9.517.135C-362.426-58.243-362.409-58.071-362.975-53.91Zm2.694-25.845c-.214,2.1-.454,3.6-.478,5.112-.008.546.455,1.549.782,1.583a65.1,65.1,0,0,0,9.227.6,3.312,3.312,0,0,0,3.088-3.443c.031-1.878-1.576-2.634-3.071-2.868C-353.786-79.244-356.886-79.423-360.281-79.756Z" transform="translate(457.1 105.839)" fill="#fff"/>
        <path id="Path_2" data-name="Path 2" d="M-300.059-70.813a48.438,48.438,0,0,1,9.051-27.536,15.387,15.387,0,0,1,3.115-3.287c1.728-1.338,3.936-1.875,5.787-.686,2.1,1.355,4.334,1.507,6.635,1.909,9.566,1.669,15.716,7.664,18.791,16.465,4.618,13.222,2.7,26-4.554,37.854a23.023,23.023,0,0,1-6.524,6.58c-8.14,5.622-17.586,4.161-23.863-3.473C-297.924-50.656-300-59.72-300.059-70.813Zm18-17.443a38.4,38.4,0,0,0-2.7,32.812c1.145,3.245,3.034,6.262,7.01,6.287,3.838.022,5.73-2.875,7.076-5.96a38.293,38.293,0,0,0,3.178-18.739c-.6-7.054-4.08-14.484-13.269-14.168A7.113,7.113,0,0,1-282.059-88.256Z" transform="translate(510.178 102.981)" fill="#fff"/>
        <path id="Path_3" data-name="Path 3" d="M-327.5-70.116a49.645,49.645,0,0,1,9.534-28.96c3.095-4.245,5.9-4.784,10.51-2.176a3.549,3.549,0,0,0,1.5.419c11.911.709,19.114,7.59,22.414,18.365,3.793,12.374,2.024,24.484-4.595,35.611-3.921,6.591-9.833,10.542-17.82,10.541-5.521,0-9.7-2.767-13.12-6.836C-324.518-49.634-327.51-59.121-327.5-70.116Zm12.926.7c-.2.046-.405.091-.608.139,1.027,4.652,1.818,9.377,3.167,13.934.929,3.139,2.922,5.924,6.654,6.078,3.75.155,5.715-2.537,7.1-5.551A37.631,37.631,0,0,0-294.837-73.5c-.573-7.6-4.012-14.673-13.08-14.657a2.193,2.193,0,0,0-2.4,1.385A37.72,37.72,0,0,0-314.569-69.412Z" transform="translate(491.268 103.081)" fill="#fff"/>
        <path id="Path_4" data-name="Path 4" d="M-405-87.762c-3.414,4.177-4.718,9.245-5.9,14.784,1.718-.215,3.179-.473,4.652-.566,2.808-.176,5.624-.4,8.431-.351,5.772.108,7.757,2.568,8.73,7.588a38.8,38.8,0,0,1-2.845,24.124c-5.007,10.7-17.61,12.014-24.886,2.661-3.743-4.811-5.514-10.475-6.564-16.374-2.052-11.531-1.345-22.827,3.95-33.425a27.594,27.594,0,0,1,6.63-8.571c8.257-6.977,19.418-2.608,20.987,8.068a26.745,26.745,0,0,1-.027,8.377c-.794,4.5-6.931,6.549-10.6,3.8a5.353,5.353,0,0,1-2-5.061c.107-1.628.157-3.26.233-4.89Zm4.135,27.352-.868-.742c-2.728.524-5.463,1.015-8.174,1.612-.371.081-.966.794-.89,1.037,1.122,3.583,2.012,7.3,3.649,10.639,1.069,2.181,3.262,1.818,3.929-.628C-402.153-52.39-401.619-56.43-400.862-60.41Z" transform="translate(424.446 104.158)" fill="#fff"/>
        <path id="Path_5" data-name="Path 5" d="M-400.985-79.887c0-3.579-.157-7.167.044-10.735.215-3.819,3.26-6.162,7.253-5.926,3.688.22,5.72,2.563,5.544,6.639A145.171,145.171,0,0,0-385.9-56a18.851,18.851,0,0,0,1.855,5.6c.655,1.167,2.188,2.628,3.248,2.568,1.1-.062,2.542-1.62,3.049-2.848a22.643,22.643,0,0,0,1.547-6.629,123.727,123.727,0,0,0-1.863-36.161c-.811-3.873.879-6.853,4.37-7.877a6.1,6.1,0,0,1,7.955,4.218,76.365,76.365,0,0,1,1.971,11.181c1.46,11.33,1.6,22.678-.748,33.894a33.185,33.185,0,0,1-3.931,10.377c-5.341,8.72-16.782,9.48-23.566,1.841-4.152-4.676-6.027-10.406-6.892-16.423-1.125-7.83-1.9-15.71-2.826-23.568Z" transform="translate(440.102 103.892)" fill="#fff"/>
        <path id="Path_6" data-name="Path 6" d="M-333.848-46.074c4.564-.581,8.911-.853,13.118-1.763a6.445,6.445,0,0,1,7.421,5.115,5.945,5.945,0,0,1-4.813,7.357c-3.779.831-7.661,1.2-11.5,1.752-1.884.272-3.764.6-5.657.75-3.649.294-6.841-1.2-9.6-3.272-1.061-.8-1.671-2.774-1.725-4.242-.562-15.146-.964-30.3-1.419-45.445-.1-3.274-.279-6.546-.326-9.819-.063-4.156,2.221-6.553,6.166-6.607,3.992-.056,6.662,2.416,6.787,6.409q.732,23.3,1.411,46.592C-333.959-48.282-333.9-47.318-333.848-46.074Z" transform="translate(476.892 103.484)" fill="#fff"/>
        <path id="Path_7" data-name="Path 7" d="M-298.255-57.866a36.793,36.793,0,0,1-5.527-1.4c-.687-.279-.961-1.571-1.424-2.4.823-.255,1.77-.909,2.444-.7A13.376,13.376,0,0,0-293.6-62.4c1.208-.468,2.5-.394,2.746,1,.112.62-.872,1.853-1.608,2.125A47.342,47.342,0,0,1-298.255-57.866Z" transform="translate(506.63 130.773)" fill="#fff"/>
      </g>
    </g>
  </g>
</svg>
