<svg xmlns="http://www.w3.org/2000/svg" width="111.432" height="32" viewBox="0 0 111.432 32">
  <g id="Group_3" data-name="Group 3" transform="translate(424.446 78.981)">
    <g id="Group_2" data-name="Group 2" transform="translate(-424.446 -78.981)">
      <g id="Group_1" data-name="Group 1">
        <path id="Path_1" data-name="Path 1" d="M-369.137-96.219a31.25,31.25,0,0,1,4.479.579,10.5,10.5,0,0,1,3.549,1.7,6.38,6.38,0,0,1,1.915,8.1.889.889,0,0,0,.145,1.2,7.639,7.639,0,0,1-.767,11.282c-2.935,2.439-6.3,2.787-9.888,1.771a3.936,3.936,0,0,0-1.465-.287,10.97,10.97,0,0,1-2.462,1.766c-2.029.733-3.616-.608-3.422-2.738q1.062-11.63,2.154-23.257a3.077,3.077,0,0,1,4.392-2.438A2.6,2.6,0,0,1-369.137-96.219ZM-370.9-79.29c.119.379.123.963.376,1.1a8.672,8.672,0,0,0,5.883,1.368,2.717,2.717,0,0,0,2.091-2.691c-.024-.99-.81-1.8-2.188-1.9a23.042,23.042,0,0,0-4.164.059C-370.663-81.175-370.656-81.1-370.9-79.29Zm1.179-11.244c-.094.913-.2,1.568-.209,2.224,0,.237.2.674.342.689a28.637,28.637,0,0,0,4.037.263,1.444,1.444,0,0,0,1.351-1.5c.013-.817-.689-1.146-1.344-1.248C-366.883-90.311-368.239-90.389-369.725-90.534Z" transform="translate(411.867 101.899)" fill="#ed5c56"/>
        <path id="Path_2" data-name="Path 2" d="M-300.059-88.986a20.994,20.994,0,0,1,3.96-11.98,6.711,6.711,0,0,1,1.363-1.43,2.178,2.178,0,0,1,2.532-.3,7.278,7.278,0,0,0,2.9.83,10.213,10.213,0,0,1,8.221,7.163,18.532,18.532,0,0,1-1.992,16.469,10.044,10.044,0,0,1-2.854,2.862,7.461,7.461,0,0,1-10.44-1.511C-299.125-80.216-300.035-84.16-300.059-88.986Zm7.875-7.589a16.623,16.623,0,0,0-1.18,14.275c.5,1.412,1.327,2.724,3.067,2.735,1.679.01,2.507-1.251,3.1-2.593a16.578,16.578,0,0,0,1.39-8.152c-.262-3.069-1.785-6.3-5.805-6.164A3.129,3.129,0,0,1-292.184-96.575Z" transform="translate(391.418 102.981)" fill="#ed5c56"/>
        <path id="Path_3" data-name="Path 3" d="M-327.5-88.6a21.517,21.517,0,0,1,4.171-12.6c1.354-1.847,2.58-2.081,4.6-.947a1.559,1.559,0,0,0,.656.182c5.211.309,8.362,3.3,9.806,7.99a18.6,18.6,0,0,1-2.01,15.492,8.714,8.714,0,0,1-7.8,4.586,7.361,7.361,0,0,1-5.74-2.974C-326.193-79.69-327.5-83.817-327.5-88.6Zm5.655.306-.266.06c.449,2.024.8,4.079,1.386,6.062a3.222,3.222,0,0,0,2.911,2.644c1.641.068,2.5-1.1,3.1-2.415a16.292,16.292,0,0,0,1.5-8.129c-.251-3.309-1.755-6.383-5.722-6.377a.96.96,0,0,0-1.049.6A16.336,16.336,0,0,0-321.84-88.294Z" transform="translate(398.703 102.943)" fill="#ed5c56"/>
        <path id="Path_4" data-name="Path 4" d="M-415.938-95.395c-1.493,1.818-2.064,4.023-2.582,6.433.752-.093,1.391-.206,2.035-.246,1.228-.076,2.46-.176,3.689-.153,2.525.047,3.394,1.117,3.819,3.3a16.8,16.8,0,0,1-1.245,10.5c-2.19,4.658-7.7,5.227-10.888,1.158a15.73,15.73,0,0,1-2.872-7.124,22.677,22.677,0,0,1,1.728-14.543,12.014,12.014,0,0,1,2.9-3.729,5.46,5.46,0,0,1,9.182,3.51,11.575,11.575,0,0,1-.012,3.645c-.347,1.958-3.032,2.85-4.638,1.654a2.323,2.323,0,0,1-.877-2.2c.047-.709.069-1.419.1-2.128Zm1.809,11.9-.38-.323c-1.194.228-2.39.442-3.576.7-.162.035-.423.345-.389.451a32.394,32.394,0,0,0,1.6,4.629c.468.949,1.427.791,1.719-.273C-414.693-80-414.46-81.762-414.128-83.494Z" transform="translate(424.446 102.535)" fill="#ed5c56"/>
        <path id="Path_5" data-name="Path 5" d="M-401.405-92.186c0-1.557-.069-3.118.019-4.67a2.761,2.761,0,0,1,3.173-2.578c1.613.1,2.5,1.115,2.426,2.888a62.815,62.815,0,0,0,.981,14.752,8.169,8.169,0,0,0,.811,2.436c.287.508.957,1.144,1.421,1.117.48-.027,1.112-.7,1.334-1.239a9.806,9.806,0,0,0,.677-2.884,53.537,53.537,0,0,0-.815-15.733,2.7,2.7,0,0,1,1.912-3.427,2.671,2.671,0,0,1,3.48,1.835,33.06,33.06,0,0,1,.862,4.865,43.809,43.809,0,0,1-.327,14.746,14.389,14.389,0,0,1-1.72,4.515,6.329,6.329,0,0,1-10.31.8,13.209,13.209,0,0,1-3.015-7.145c-.492-3.406-.831-6.835-1.236-10.254Z" transform="translate(418.519 102.636)" fill="#ed5c56"/>
        <path id="Path_6" data-name="Path 6" d="M-342.007-77.805c2-.253,3.9-.371,5.739-.767a2.819,2.819,0,0,1,3.247,2.226,2.588,2.588,0,0,1-2.105,3.2c-1.653.362-3.352.52-5.031.762-.824.118-1.647.26-2.475.326a6.163,6.163,0,0,1-4.2-1.424,2.651,2.651,0,0,1-.755-1.846c-.246-6.591-.422-13.184-.621-19.776-.043-1.425-.122-2.848-.143-4.273a2.541,2.541,0,0,1,2.7-2.875,2.723,2.723,0,0,1,2.969,2.789q.32,10.137.617,20.275C-342.056-78.766-342.031-78.346-342.007-77.805Z" transform="translate(404.258 102.79)" fill="#ed5c56"/>
        <path id="Path_7" data-name="Path 7" d="M-302.165-60.561a16.1,16.1,0,0,1-2.418-.61c-.3-.122-.421-.687-.623-1.051.36-.112.774-.4,1.069-.3a5.852,5.852,0,0,0,4.009-.017c.528-.2,1.094-.172,1.2.436.049.271-.381.811-.7.93A20.713,20.713,0,0,1-302.165-60.561Z" transform="translate(392.856 92.295)" fill="#ed5c56"/>
      </g>
    </g>
  </g>
</svg>
