<svg xmlns="http://www.w3.org/2000/svg" width="401.42" height="313.245" viewBox="0 0 401.42 313.245">
  <g id="Group_149" data-name="Group 149" transform="translate(2881.765 4902.087)">
    <g id="Group_100" data-name="Group 100" transform="translate(-2881.765 -4859.858)">
      <g id="Group_99" data-name="Group 99">
        <path id="Path_21" data-name="Path 21" d="M-2610.748-4693.666l-6-37.088-33.414,2.59a101.868,101.868,0,0,0-18.456-31.582l17.811-29.586-30.475-21.979-21.787,25.453a101.836,101.836,0,0,0-35.379-9.255l-8.34-33.527-37.088,6,2.59,33.412a101.6,101.6,0,0,0-31.574,18.458l-29.587-17.807-21.984,30.466,25.448,21.79a101.746,101.746,0,0,0-9.253,35.377l-33.524,8.336,6,37.094,33.414-2.592a101.536,101.536,0,0,0,18.456,31.567l-17.806,29.593,30.466,21.98,21.792-25.443a101.517,101.517,0,0,0,35.379,9.25l8.336,33.528,37.088-6-2.59-33.413a101.735,101.735,0,0,0,31.574-18.454l29.592,17.812,21.982-30.477-25.454-21.788a101.818,101.818,0,0,0,9.26-35.379Z" transform="translate(2881.765 4828.64)" fill="#1ddf92"/>
      </g>
    </g>
    <g id="Group_119" data-name="Group 119" transform="translate(-2806.908 -4787.351)">
      <g id="Group_118" data-name="Group 118" transform="translate(0)">
        <g id="Group_113" data-name="Group 113">
          <g id="Group_101" data-name="Group 101" transform="translate(58.219)">
            <rect id="Rectangle_89" data-name="Rectangle 89" width="5.75" height="12.692" fill="#231615"/>
          </g>
          <g id="Group_102" data-name="Group 102" transform="translate(82.808 6.747)">
            <rect id="Rectangle_90" data-name="Rectangle 90" width="12.69" height="5.75" transform="translate(0 10.99) rotate(-60.002)" fill="#231615"/>
          </g>
          <g id="Group_103" data-name="Group 103" transform="translate(101.575 28.059)">
            <rect id="Rectangle_91" data-name="Rectangle 91" width="12.689" height="5.75" transform="matrix(0.866, -0.5, 0.5, 0.866, 0, 6.343)" fill="#231615"/>
          </g>
          <g id="Group_104" data-name="Group 104" transform="translate(109.498 58.218)">
            <rect id="Rectangle_92" data-name="Rectangle 92" width="12.692" height="5.75" fill="#231615"/>
          </g>
          <g id="Group_105" data-name="Group 105" transform="translate(101.575 82.806)">
            <rect id="Rectangle_93" data-name="Rectangle 93" width="5.75" height="12.692" transform="matrix(0.5, -0.866, 0.866, 0.5, 0, 4.98)" fill="#231615"/>
          </g>
          <g id="Group_106" data-name="Group 106" transform="translate(82.808 101.577)">
            <rect id="Rectangle_94" data-name="Rectangle 94" width="5.75" height="12.69" transform="translate(0 2.875) rotate(-29.998)" fill="#231615"/>
          </g>
          <g id="Group_107" data-name="Group 107" transform="translate(58.221 109.497)">
            <rect id="Rectangle_95" data-name="Rectangle 95" width="5.75" height="12.692" fill="#231615"/>
          </g>
          <g id="Group_108" data-name="Group 108" transform="translate(28.056 101.577)">
            <rect id="Rectangle_96" data-name="Rectangle 96" width="12.691" height="5.75" transform="translate(0 10.99) rotate(-59.994)" fill="#231615"/>
          </g>
          <g id="Group_109" data-name="Group 109" transform="translate(6.748 82.809)">
            <rect id="Rectangle_97" data-name="Rectangle 97" width="12.69" height="5.75" transform="matrix(0.866, -0.5, 0.5, 0.866, 0, 6.341)" fill="#231615"/>
          </g>
          <g id="Group_110" data-name="Group 110" transform="translate(0 58.218)">
            <rect id="Rectangle_98" data-name="Rectangle 98" width="12.693" height="5.75" fill="#231615"/>
          </g>
          <g id="Group_111" data-name="Group 111" transform="translate(6.747 28.059)">
            <rect id="Rectangle_99" data-name="Rectangle 99" width="5.75" height="12.691" transform="matrix(0.5, -0.866, 0.866, 0.5, 0, 4.979)" fill="#231615"/>
          </g>
          <g id="Group_112" data-name="Group 112" transform="translate(28.058 6.748)">
            <rect id="Rectangle_100" data-name="Rectangle 100" width="5.75" height="12.691" transform="translate(0 2.873) rotate(-29.975)" fill="#231615"/>
          </g>
        </g>
        <g id="Group_117" data-name="Group 117" transform="translate(31.344 26.6)">
          <g id="Group_114" data-name="Group 114" transform="translate(22.096 26.846)">
            <path id="Path_22" data-name="Path 22" d="M-2650.977-4594.282a7.623,7.623,0,0,1-5.09-1.937,7.607,7.607,0,0,1-2.545-5.285,7.6,7.6,0,0,1,1.941-5.531,7.666,7.666,0,0,1,10.8-.6,7.677,7.677,0,0,1,.613,10.807A7.663,7.663,0,0,1-2650.977-4594.282Z" transform="translate(2658.624 4609.579)" fill="#231615"/>
          </g>
          <g id="Group_115" data-name="Group 115" transform="translate(30.154 0)">
            <rect id="Rectangle_101" data-name="Rectangle 101" width="39.883" height="5.75" transform="matrix(0.667, -0.745, 0.745, 0.667, 0, 29.729)" fill="#231615"/>
          </g>
          <g id="Group_116" data-name="Group 116" transform="translate(0 7.436)">
            <rect id="Rectangle_102" data-name="Rectangle 102" width="5.75" height="35.123" transform="translate(0 4.286) rotate(-48.193)" fill="#231615"/>
          </g>
        </g>
      </g>
    </g>
    <g id="Group_131" data-name="Group 131" transform="translate(-2533.946 -4782.432)">
      <g id="Group_130" data-name="Group 130" transform="translate(0)">
        <g id="Group_120" data-name="Group 120" transform="translate(6.535 7.745)">
          <path id="Path_23" data-name="Path 23" d="M-2253.435-4656.466a12.036,12.036,0,0,1-12.022-12.022,12.034,12.034,0,0,1,12.022-12.02,12.034,12.034,0,0,1,12.022,12.02A12.036,12.036,0,0,1-2253.435-4656.466Zm0-18.293a6.279,6.279,0,0,0-6.272,6.271,6.28,6.28,0,0,0,6.272,6.273,6.28,6.28,0,0,0,6.272-6.273A6.279,6.279,0,0,0-2253.435-4674.759Z" transform="translate(2265.457 4680.508)" fill="#231615"/>
        </g>
        <g id="Group_123" data-name="Group 123" transform="translate(15.682)">
          <g id="Group_121" data-name="Group 121">
            <rect id="Rectangle_103" data-name="Rectangle 103" width="5.75" height="8.647" fill="#231615"/>
          </g>
          <g id="Group_122" data-name="Group 122" transform="translate(0 30.884)">
            <rect id="Rectangle_104" data-name="Rectangle 104" width="5.75" height="8.649" fill="#231615"/>
          </g>
        </g>
        <g id="Group_126" data-name="Group 126" transform="translate(0 7.392)">
          <g id="Group_124" data-name="Group 124" transform="translate(26.75 0)">
            <rect id="Rectangle_105" data-name="Rectangle 105" width="8.648" height="5.75" transform="translate(0 4.323) rotate(-29.993)" fill="#231615"/>
          </g>
          <g id="Group_125" data-name="Group 125" transform="translate(0 15.444)">
            <rect id="Rectangle_106" data-name="Rectangle 106" width="8.649" height="5.75" transform="translate(0 4.323) rotate(-29.994)" fill="#231615"/>
          </g>
        </g>
        <g id="Group_129" data-name="Group 129" transform="translate(0 7.392)">
          <g id="Group_127" data-name="Group 127" transform="translate(26.749 15.445)">
            <rect id="Rectangle_107" data-name="Rectangle 107" width="5.75" height="8.649" transform="translate(0 4.98) rotate(-60.005)" fill="#231615"/>
          </g>
          <g id="Group_128" data-name="Group 128" transform="translate(0 0)">
            <rect id="Rectangle_108" data-name="Rectangle 108" width="5.75" height="8.648" transform="translate(0 4.98) rotate(-60.006)" fill="#231615"/>
          </g>
        </g>
      </g>
    </g>
    <g id="Group_136" data-name="Group 136" transform="translate(-2831.784 -4809.829)">
      <g id="Group_132" data-name="Group 132">
        <path id="Path_24" data-name="Path 24" d="M-2708.283-4570.665l-.072-5.749c2.464-.031,4.949-.176,7.387-.432l.6,5.719C-2702.981-4570.854-2705.643-4570.7-2708.283-4570.665Zm-7.922-.263c-2.628-.208-5.275-.542-7.865-.99l.982-5.665c2.416.419,4.884.729,7.336.923Zm23.677-1.39-1.126-5.638c2.41-.481,4.824-1.083,7.177-1.786l1.647,5.509C-2687.355-4573.479-2689.945-4572.834-2692.529-4572.318Zm-39.282-1.318c-2.542-.69-5.082-1.509-7.547-2.433l2.018-5.384c2.3.862,4.667,1.625,7.036,2.268Zm54.465-3.223-2.155-5.33c2.276-.92,4.537-1.959,6.72-3.088l2.642,5.107C-2672.481-4578.96-2674.906-4577.846-2677.347-4576.859Zm-69.3-2.335c-2.367-1.15-4.709-2.425-6.963-3.791l2.98-4.917c2.1,1.274,4.286,2.464,6.494,3.536Zm-13.545-8.211c-2.115-1.567-4.182-3.252-6.145-5.008l3.834-4.284c1.832,1.638,3.761,3.21,5.733,4.672Zm-11.8-10.561c-1.793-1.93-3.516-3.966-5.122-6.051l4.555-3.508c1.5,1.946,3.106,3.845,4.779,5.645Zm-9.665-12.549c-1.408-2.229-2.728-4.547-3.921-6.893l5.124-2.608c1.113,2.188,2.344,4.351,3.657,6.428Zm-7.186-14.121c-.972-2.45-1.838-4.973-2.576-7.5l5.519-1.613c.688,2.356,1.5,4.708,2.4,6.992Zm-4.441-15.207c-.5-2.581-.882-5.22-1.14-7.845l5.722-.562c.24,2.447.6,4.909,1.063,7.317Zm-1.552-15.757,0-.558c0-2.452.105-4.928.313-7.359l5.729.488c-.194,2.271-.292,4.582-.292,6.872l0,.521Zm7.01-14.759-5.66-1.018c.467-2.594,1.061-5.2,1.766-7.73l5.54,1.541C-2786.837-4675.2-2787.391-4672.777-2787.826-4670.358Zm3.957-14.229-5.371-2.051c.939-2.458,2.005-4.9,3.172-7.267l5.156,2.543C-2782-4689.158-2782.993-4686.879-2783.869-4684.587Zm6.531-13.247-4.9-3.011c1.378-2.243,2.878-4.448,4.458-6.555l4.6,3.45C-2774.652-4701.983-2776.052-4699.926-2777.337-4697.834Zm8.867-11.821-4.261-3.859c1.767-1.951,3.646-3.843,5.586-5.625l3.889,4.236C-2765.067-4713.241-2766.821-4711.476-2768.47-4709.655Zm10.888-9.994-3.481-4.576c2.1-1.595,4.293-3.111,6.526-4.5l3.043,4.878C-2753.578-4722.55-2755.626-4721.137-2757.582-4719.648Zm12.538-7.819-2.577-5.14c2.356-1.181,4.8-2.265,7.248-3.22l2.087,5.357C-2740.574-4729.58-2742.848-4728.57-2745.045-4727.468Zm13.763-5.361-1.577-5.529c2.531-.723,5.128-1.334,7.718-1.817l1.055,5.653C-2726.5-4734.072-2728.922-4733.5-2731.281-4732.829Zm14.519-2.711-.527-5.725c2.613-.241,5.277-.362,7.915-.362v5.75C-2711.837-4735.877-2714.324-4735.764-2716.762-4735.54Z" transform="translate(2794.837 4741.627)" fill="#231615"/>
      </g>
      <g id="Group_133" data-name="Group 133" transform="translate(328.13 18.849)">
        <path id="Path_25" data-name="Path 25" d="M-2221.529-4651.631l-1.766-5.473a24.017,24.017,0,0,0,6.13-3l3.232,4.755A29.815,29.815,0,0,1-2221.529-4651.631Zm13.845-9.4-4.429-3.666a24.122,24.122,0,0,0,3.566-5.819l5.279,2.279A29.855,29.855,0,0,1-2207.684-4661.033Zm6.629-15.367-5.707-.7a24.655,24.655,0,0,0,.182-2.984,24.405,24.405,0,0,0-.3-3.848l5.677-.91a30.223,30.223,0,0,1,.377,4.759A30.283,30.283,0,0,1-2201.055-4676.4Zm-7.856-14.045a24.149,24.149,0,0,0-3.779-5.686l4.293-3.826a29.927,29.927,0,0,1,4.677,7.039Zm-9-10.1a24.016,24.016,0,0,0-6.233-2.771l1.563-5.533a29.77,29.77,0,0,1,7.727,3.434Z" transform="translate(2224.14 4708.844)" fill="#231615"/>
      </g>
      <g id="Group_134" data-name="Group 134" transform="translate(81.421 0.002)">
        <path id="Path_26" data-name="Path 26" d="M-2416.235-4718.2l-7.645-.571.428-5.733,7.645.571Zm-15.29-1.141-7.645-.571.427-5.733,7.646.57Zm-15.29-1.142-7.645-.57.428-5.734,7.645.57Zm-15.289-1.141-7.645-.571.428-5.734,7.645.571Zm-15.29-1.142-7.645-.571.428-5.734,7.645.571Zm-15.29-1.141-7.645-.571.429-5.734,7.645.571Zm-15.29-1.142-7.645-.571.428-5.733,7.645.57Zm-15.289-1.141-7.646-.571.428-5.734,7.645.571Zm-15.29-1.142-7.645-.571.428-5.733,7.645.571Zm-15.29-1.142-7.645-.571.427-5.732,7.646.57Zm-15.29-1.142-7.645-.571.428-5.733,7.645.57Zm-15.289-1.141-7.645-.571.428-5.734,7.645.571Zm-15.29-1.142-7.645-.571.428-5.733,7.646.571Zm-15.289-1.141-7.645-.571.428-5.733,7.645.571Zm-15.29-1.142-7.645-.57.428-5.734,7.645.57Zm-15.29-1.142-7.645-.57.428-5.734,7.645.571Z" transform="translate(2653.226 4741.624)" fill="#231615"/>
      </g>
      <g id="Group_135" data-name="Group 135" transform="translate(116.731 73.291)">
        <path id="Path_27" data-name="Path 27" d="M-2589.605-4523.456l-2.208-5.309,7.078-2.944,2.208,5.309Zm14.156-5.89-2.208-5.309,7.078-2.944,2.208,5.309Zm14.156-5.889-2.208-5.309,7.079-2.945,2.208,5.309Zm14.156-5.89-2.208-5.308,7.078-2.945,2.208,5.309Zm14.156-5.89-2.209-5.308,7.079-2.945,2.208,5.309Zm14.156-5.888-2.209-5.309,7.079-2.944,2.208,5.308Zm14.156-5.889-2.208-5.31,7.078-2.943,2.208,5.308Zm14.156-5.889-2.208-5.309,7.078-2.945,2.208,5.309Zm14.156-5.89-2.208-5.308,7.078-2.945,2.208,5.308Zm14.156-5.888-2.208-5.31,7.078-2.944,2.209,5.308Zm14.156-5.89-2.208-5.309,7.078-2.945,2.208,5.309Zm14.156-5.889-2.208-5.308,7.078-2.945,2.208,5.31Zm14.156-5.89-2.208-5.308,7.078-2.945,2.208,5.309Zm14.156-5.888-2.208-5.309,7.078-2.945,2.208,5.309Zm14.156-5.89-2.208-5.309,7.078-2.944,2.208,5.309Z" transform="translate(2591.814 4614.157)" fill="#231615"/>
      </g>
    </g>
    <g id="Group_139" data-name="Group 139" transform="translate(-2595.115 -4694.082)">
      <g id="Group_137" data-name="Group 137">
        <path id="Path_28" data-name="Path 28" d="M-2300.076-4498.749a41.566,41.566,0,0,1-41.569,41.569,41.565,41.565,0,0,1-41.567-41.569,41.566,41.566,0,0,1,41.567-41.567A41.567,41.567,0,0,1-2300.076-4498.749Z" transform="translate(2383.212 4540.316)" fill="#6356ed"/>
      </g>
      <g id="Group_138" data-name="Group 138" transform="translate(19.046 21.374)">
        <path id="Path_29" data-name="Path 29" d="M-2336.877-4467.167l-13.209-13.212,4.472-4.472,8.738,8.739,27.03-27.028,4.472,4.472Z" transform="translate(2350.087 4503.141)" fill="#fff"/>
      </g>
    </g>
    <g id="Group_140" data-name="Group 140" transform="translate(-2629.736 -4898.111)">
      <rect id="Rectangle_109" data-name="Rectangle 109" width="101.012" height="83.382" transform="translate(0)" fill="#eda756"/>
    </g>
    <g id="Group_148" data-name="Group 148" transform="translate(-2633.049 -4902.087)">
      <g id="Group_142" data-name="Group 142" transform="translate(0)">
        <g id="Group_141" data-name="Group 141">
          <path id="Path_30" data-name="Path 30" d="M-2340.743-4810.761h-108.444v-91.326h108.444Zm-102.694-5.75h96.945v-79.827h-96.945Z" transform="translate(2449.187 4902.087)" fill="#231615"/>
        </g>
      </g>
      <g id="Group_145" data-name="Group 145" transform="translate(0.81 30.989)">
        <g id="Group_143" data-name="Group 143">
          <path id="Path_31" data-name="Path 31" d="M-2348.005-4805.664l-20.125-17.247-23.559,15.706-30.335-32.63-21.624,22.326-4.13-4,25.839-26.678,31.131,33.486,23.113-15.409,23.432,20.081Z" transform="translate(2447.779 4848.188)" fill="#231615"/>
        </g>
        <g id="Group_144" data-name="Group 144" transform="translate(79.648 25.278)">
          <path id="Path_32" data-name="Path 32" d="M-2285.385-4791.344v7.572l-23.866-20.453" transform="translate(2309.251 4804.225)" fill="#231615"/>
        </g>
      </g>
      <g id="Group_147" data-name="Group 147" transform="translate(47.609 15.909)">
        <g id="Group_146" data-name="Group 146">
          <path id="Path_33" data-name="Path 33" d="M-2341.877-4862.167c0,9.66-11.186,16.711-21.276,8.92-7.623-10.11-.586-21.172,9.028-21.172A12.251,12.251,0,0,1-2341.877-4862.167Z" transform="translate(2366.383 4874.418)" fill="#6356ed"/>
        </g>
      </g>
    </g>
  </g>
</svg>
