<svg xmlns="http://www.w3.org/2000/svg" width="355.662" height="325.804" viewBox="0 0 355.662 325.804">
  <g id="Group_2586" data-name="Group 2586" transform="translate(9492.631 6244.904)">
    <g id="Group_2549" data-name="Group 2549" transform="translate(-9388.266 -6244.904)">
      <path id="Path_1988" data-name="Path 1988" d="M-9271.851-5919.1h-131.339a23.905,23.905,0,0,1-23.877-23.876v-278.052a23.9,23.9,0,0,1,23.877-23.876h131.339a23.9,23.9,0,0,1,23.876,23.876v278.052A23.905,23.905,0,0,1-9271.851-5919.1Zm-131.339-319.437a17.527,17.527,0,0,0-17.509,17.509v278.052a17.53,17.53,0,0,0,17.509,17.51h131.339a17.53,17.53,0,0,0,17.509-17.51v-278.052a17.528,17.528,0,0,0-17.509-17.509Z" transform="translate(9427.066 6244.903)" fill="#574a70"/>
    </g>
    <g id="Group_2550" data-name="Group 2550" transform="translate(-9373.025 -6205.484)">
      <rect id="Rectangle_628" data-name="Rectangle 628" width="142.243" height="230.434" transform="translate(3.184 3.185)" fill="#daeaf8"/>
      <path id="Path_1989" data-name="Path 1989" d="M-9268.881-5983.336h-148.61v-236.8h148.61Zm-142.244-6.367h135.878v-224.069h-135.878Z" transform="translate(9417.491 6220.139)" fill="#574a70"/>
    </g>
    <g id="Group_2551" data-name="Group 2551" transform="translate(-9322.494 -6225.194)">
      <rect id="Rectangle_629" data-name="Rectangle 629" width="47.55" height="6.367" fill="#231615"/>
    </g>
    <g id="Group_2552" data-name="Group 2552" transform="translate(-9403.472 -6154.682)">
      <rect id="Rectangle_630" data-name="Rectangle 630" width="42.47" height="6.367" fill="#574a70"/>
    </g>
    <g id="Group_2553" data-name="Group 2553" transform="translate(-9270.067 -6181.505)">
      <rect id="Rectangle_631" data-name="Rectangle 631" width="129.136" height="6.367" fill="#574a70"/>
    </g>
    <g id="Group_2554" data-name="Group 2554" transform="translate(-9325.222 -5955.337)">
      <rect id="Rectangle_632" data-name="Rectangle 632" width="46.636" height="12.802" rx="4.021" transform="translate(3.184 3.183)" fill="#daeaf8"/>
      <path id="Path_1990" data-name="Path 1990" d="M-9344.042-6043.82h-33.835a9.594,9.594,0,0,1-9.582-9.584,9.594,9.594,0,0,1,9.582-9.584h33.835a9.6,9.6,0,0,1,9.586,9.584A9.6,9.6,0,0,1-9344.042-6043.82Zm-33.835-12.8a3.221,3.221,0,0,0-3.216,3.218,3.22,3.22,0,0,0,3.216,3.217h33.835a3.22,3.22,0,0,0,3.218-3.217,3.221,3.221,0,0,0-3.218-3.218Z" transform="translate(9387.459 6062.988)" fill="#574a70"/>
    </g>
    <g id="Group_2555" data-name="Group 2555" transform="translate(-9270.475 -6042.682)">
      <rect id="Rectangle_633" data-name="Rectangle 633" width="133.506" height="28.347" fill="#2a2441"/>
    </g>
    <g id="Group_2556" data-name="Group 2556" transform="translate(-9185.737 -5969.139)">
      <rect id="Rectangle_634" data-name="Rectangle 634" width="39.777" height="39.777" fill="#574a70"/>
    </g>
    <g id="Group_2557" data-name="Group 2557" transform="translate(-9454.444 -6025.488)">
      <path id="Path_1991" data-name="Path 1991" d="M-9451.753-6098.623a8.249,8.249,0,0,1-8.485,8.357,8.259,8.259,0,0,1-8.4-8.453,8.294,8.294,0,0,1,8.451-8.341A8.294,8.294,0,0,1-9451.753-6098.623Z" transform="translate(9468.642 6107.06)" fill="#2a2441"/>
    </g>
    <g id="Group_2558" data-name="Group 2558" transform="translate(-9480.343 -6051.274)">
      <path id="Path_1992" data-name="Path 1992" d="M-9484.911-6123.26v68.636h68.638v-68.636Zm56.857,38.393c-1.209.238-2.4.51-3.612.717a.857.857,0,0,0-.747.685,28.865,28.865,0,0,1-1.275,2.88.744.744,0,0,0,.081.923c.924,1.21,1.813,2.451,2.674,3.629-1.958,1.974-3.885,3.932-5.857,5.953-1.226-.891-2.469-1.767-3.679-2.689a.859.859,0,0,0-1.065-.064,29.13,29.13,0,0,1-2.88,1.242.779.779,0,0,0-.623.7c-.206,1.5-.477,2.96-.731,4.456h-8.451c-.24-1.4-.526-2.8-.7-4.218a1.206,1.206,0,0,0-.89-1.114c-.924-.334-1.8-.764-2.722-1.1a1.236,1.236,0,0,0-.924.064c-1.257.78-2.467,1.624-3.66,2.4-1.959-2.007-3.885-3.979-5.89-6.018.683-1,1.447-2.213,2.274-3.358a1.026,1.026,0,0,0,.032-1.273,19,19,0,0,1-1.178-2.738.841.841,0,0,0-.8-.636c-1.289-.191-2.562-.414-3.851-.622-.351-.047-.605-.127-.605-.589.032-2.451.017-4.9.032-7.37a2.125,2.125,0,0,1,.063-.271c1.321-.159,2.659-.35,4-.461a.994.994,0,0,0,.987-.717c.366-1,.845-1.973,1.228-2.992a1.06,1.06,0,0,0-.128-.779c-.8-1.242-1.641-2.452-2.4-3.6,1.99-2,3.915-3.947,5.905-5.952,1.146.827,2.323,1.655,3.469,2.546a1.083,1.083,0,0,0,1.386.112,18.439,18.439,0,0,1,2.752-1.178.809.809,0,0,0,.605-.715c.176-1.274.4-2.532.606-3.789.046-.207.11-.43.174-.653h8.1c.146,1.21.352,2.4.416,3.614.046.986.286,1.592,1.384,1.814a7.891,7.891,0,0,1,2.18.987.842.842,0,0,0,1.067-.063c1.211-.924,2.451-1.815,3.692-2.706,1.959,1.99,3.853,3.947,5.842,5.969-.795,1.082-1.639,2.292-2.546,3.438a1.108,1.108,0,0,0-.111,1.4c.46.875.795,1.831,1.226,2.737a1.055,1.055,0,0,0,.62.494c1.5.287,3.009.526,4.536.78Z" transform="translate(9484.911 6123.26)" fill="#2a2441"/>
    </g>
    <g id="Group_2560" data-name="Group 2560" transform="translate(-9177.128 -5958.427)">
      <g id="Group_2559" data-name="Group 2559">
        <path id="Path_1993" data-name="Path 1993" d="M-9271.867-6058.8v1.3a1.3,1.3,0,0,0-.074.234,10.756,10.756,0,0,1-1.648,4.462,23.434,23.434,0,0,1-5.314,5.878c-1.361,1.116-2.795,2.141-4.179,3.19a41.98,41.98,0,0,1-6.245-4.926,21.61,21.61,0,0,1-3.455-4.268,12.156,12.156,0,0,1-1.638-4.571v-1.4c.032-.143.069-.286.1-.431a6.421,6.421,0,0,1,4.2-5.078,6.255,6.255,0,0,1,6.424.85c.2.146.373.316.564.48a6.13,6.13,0,0,1,5.49-1.731,6.566,6.566,0,0,1,5.482,4.655A13.5,13.5,0,0,1-9271.867-6058.8Z" transform="translate(9294.421 6064.93)" fill="#daeaf8"/>
      </g>
    </g>
    <g id="Group_2565" data-name="Group 2565" transform="translate(-9492.631 -6104.71)">
      <g id="Group_2561" data-name="Group 2561" transform="translate(28.346)">
        <rect id="Rectangle_635" data-name="Rectangle 635" width="133.506" height="28.347" fill="#a387bc"/>
      </g>
      <g id="Group_2562" data-name="Group 2562">
        <rect id="Rectangle_636" data-name="Rectangle 636" width="28.347" height="28.347" fill="#2a2441"/>
      </g>
      <g id="Group_2563" data-name="Group 2563" transform="translate(8.279 8.279)">
        <circle id="Ellipse_97" data-name="Ellipse 97" cx="5.894" cy="5.894" r="5.894" fill="#daeaf8"/>
      </g>
      <g id="Group_2564" data-name="Group 2564" transform="translate(34.293 10.719)">
        <rect id="Rectangle_637" data-name="Rectangle 637" width="119.484" height="6.909" fill="#daeaf8"/>
      </g>
    </g>
    <g id="Group_2566" data-name="Group 2566" transform="translate(-9456.732 -6174.013)">
      <rect id="Rectangle_638" data-name="Rectangle 638" width="45.031" height="45.031" fill="#a387bc"/>
    </g>
    <g id="Group_2575" data-name="Group 2575" transform="translate(-9355.452 -6177.993)">
      <g id="Group_2567" data-name="Group 2567" transform="translate(45.031 45.03)">
        <rect id="Rectangle_639" data-name="Rectangle 639" width="7.959" height="7.959" fill="#a387bc"/>
      </g>
      <g id="Group_2568" data-name="Group 2568" transform="translate(15.374 45.031)">
        <path id="Path_1994" data-name="Path 1994" d="M-9374.55-6166.619h-7.415v-7.958h7.415Zm-14.83,0h-7.414v-7.958h7.414Z" transform="translate(9396.794 6174.578)" fill="#a387bc"/>
      </g>
      <g id="Group_2569" data-name="Group 2569" transform="translate(0.002 45.03)">
        <rect id="Rectangle_640" data-name="Rectangle 640" width="7.959" height="7.959" fill="#a387bc"/>
      </g>
      <g id="Group_2570" data-name="Group 2570" transform="translate(0 15.374)">
        <path id="Path_1995" data-name="Path 1995" d="M-9398.492-6170.968h-7.959v-7.413h7.959Zm0-14.83h-7.959v-7.412h7.959Z" transform="translate(9406.451 6193.21)" fill="#a387bc"/>
      </g>
      <g id="Group_2571" data-name="Group 2571" transform="translate(0.002)">
        <rect id="Rectangle_641" data-name="Rectangle 641" width="7.959" height="7.959" fill="#a387bc"/>
      </g>
      <g id="Group_2572" data-name="Group 2572" transform="translate(15.374)">
        <path id="Path_1996" data-name="Path 1996" d="M-9374.55-6194.909h-7.415v-7.959h7.415Zm-14.83,0h-7.414v-7.959h7.414Z" transform="translate(9396.794 6202.869)" fill="#a387bc"/>
      </g>
      <g id="Group_2573" data-name="Group 2573" transform="translate(45.031)">
        <rect id="Rectangle_642" data-name="Rectangle 642" width="7.959" height="7.959" fill="#a387bc"/>
      </g>
      <g id="Group_2574" data-name="Group 2574" transform="translate(45.031 15.374)">
        <path id="Path_1997" data-name="Path 1997" d="M-9370.2-6170.968h-7.959v-7.413h7.959Zm0-14.83h-7.959v-7.412h7.959Z" transform="translate(9378.16 6193.21)" fill="#a387bc"/>
      </g>
    </g>
    <g id="Group_2578" data-name="Group 2578" transform="translate(-9274.945 -6121.018)">
      <g id="Group_2576" data-name="Group 2576">
        <rect id="Rectangle_643" data-name="Rectangle 643" width="89.207" height="52.996" fill="#a387bc"/>
      </g>
      <g id="Group_2577" data-name="Group 2577" transform="translate(37.828 18.675)">
        <path id="Path_1998" data-name="Path 1998" d="M-9318.559-6147.52l-13.551-7.823v15.646Z" transform="translate(9332.109 6155.343)" fill="#daeaf8"/>
      </g>
    </g>
    <g id="Group_2579" data-name="Group 2579" transform="translate(-9188.277 -6181.505)">
      <rect id="Rectangle_644" data-name="Rectangle 644" width="47.347" height="6.367" fill="#a387bc"/>
    </g>
    <g id="Group_2580" data-name="Group 2580" transform="translate(-9195.801 -6184.215)">
      <circle id="Ellipse_98" data-name="Ellipse 98" cx="5.894" cy="5.894" r="5.894" fill="#daeaf8"/>
    </g>
    <g id="Group_2585" data-name="Group 2585" transform="translate(-9350.668 -6036.845)">
      <g id="Group_2581" data-name="Group 2581">
        <rect id="Rectangle_645" data-name="Rectangle 645" width="39.777" height="39.777" fill="#2a2441"/>
      </g>
      <g id="Group_2584" data-name="Group 2584" transform="translate(10.104 8.173)">
        <g id="Group_2582" data-name="Group 2582" transform="translate(4.25)">
          <circle id="Ellipse_99" data-name="Ellipse 99" cx="5.234" cy="5.234" r="5.234" fill="#a387bc"/>
        </g>
        <g id="Group_2583" data-name="Group 2583" transform="translate(0 13.645)">
          <path id="Path_1999" data-name="Path 1999" d="M-9377.527-6090.7h-19.57a9.785,9.785,0,0,1,9.786-9.786A9.782,9.782,0,0,1-9377.527-6090.7Z" transform="translate(9397.098 6100.487)" fill="#a387bc"/>
        </g>
      </g>
    </g>
  </g>
</svg>
