<svg xmlns="http://www.w3.org/2000/svg" width="64" height="64" viewBox="0 0 64 64">
  <g id="Group_561" data-name="Group 561" transform="translate(-352 -1904)">
    <rect id="Rectangle_326" data-name="Rectangle 326" width="64" height="64" transform="translate(352 1904)" fill="#fff"/>
    <g id="Group_545" data-name="Group 545" transform="translate(3887.573 -3238.467)">
      <path id="Path_207" data-name="Path 207" d="M-3498.706,5150.635c12.991.1,22.815,9.8,23.02,22.085a21.275,21.275,0,0,1-2.191,9.859,2.465,2.465,0,0,0-.137,1.989c.9,2.888,1.752,5.793,2.654,8.681a1.862,1.862,0,0,1-.323,2.057,1.855,1.855,0,0,1-2.054.342c-2.96-.919-5.924-1.83-8.9-2.682a2.4,2.4,0,0,0-1.544.1,22.612,22.612,0,0,1-17.464.938,2.309,2.309,0,0,0-1.454.031,17.911,17.911,0,0,1-14.325-.391,2.14,2.14,0,0,0-1.347-.077c-2.167.608-4.318,1.275-6.468,1.94a2.008,2.008,0,0,1-2.266-.309,1.971,1.971,0,0,1-.272-2.172c.677-2.147,1.347-4.3,1.952-6.465a2.306,2.306,0,0,0-.109-1.448,17.808,17.808,0,0,1,13.114-25.08,2.323,2.323,0,0,0,1.2-.829A22.005,22.005,0,0,1-3498.706,5150.635Zm19.234,40.9c-.775-2.575-1.438-4.874-2.169-7.15a2.874,2.874,0,0,1,.24-2.427,18.546,18.546,0,0,0,2.042-11.9,18.923,18.923,0,0,0-19.613-15.968,18.9,18.9,0,0,0-17.876,17.179c-.547,7.342,2.229,13.3,8.356,17.4s12.66,4.3,19.255,1.029a3.463,3.463,0,0,1,2.841-.277C-3484.2,5190.14-3481.969,5190.777-3479.473,5191.536Zm-39.19-27.437c-.359.133-.659.228-.945.354a14.3,14.3,0,0,0-6.962,19.651,3.3,3.3,0,0,1,.239,2.835c-.5,1.409-.871,2.861-1.356,4.488,1.758-.524,3.281-1.064,4.847-1.406a4.7,4.7,0,0,1,2.2.19c1.516.435,2.966,1.138,4.5,1.47a11.616,11.616,0,0,0,5.443-.159C-3519.812,5184.182-3522.442,5175.117-3518.663,5164.1Z" fill="#231615"/>
      <path id="Path_208" data-name="Path 208" d="M-3426.676,5203.6c-2.5-.758-4.725-1.394-6.924-2.119a3.461,3.461,0,0,0-2.841.276c-6.6,3.266-13.129,3.062-19.255-1.029s-8.9-10.055-8.357-17.4a18.9,18.9,0,0,1,17.877-17.181,18.922,18.922,0,0,1,19.613,15.967,18.547,18.547,0,0,1-2.042,11.9,2.876,2.876,0,0,0-.24,2.428C-3428.115,5198.726-3427.451,5201.024-3426.676,5203.6Zm-18.589-16.829c2.438,0,4.875.006,7.312,0,1.41,0,2.244-.668,2.231-1.747-.013-1.036-.825-1.7-2.164-1.7q-7.367-.015-14.735,0c-1.319,0-2.14.706-2.123,1.744s.838,1.7,2.166,1.7C-3450.14,5186.777-3447.7,5186.77-3445.265,5186.77Zm-.008-6.334c2.474,0,4.948.01,7.422,0,1.335-.007,2.144-.68,2.13-1.719s-.818-1.693-2.158-1.694q-7.367-.007-14.734,0c-1.32,0-2.14.678-2.132,1.722s.81,1.684,2.16,1.691C-3450.147,5180.444-3447.71,5180.436-3445.273,5180.436Zm-2.616,12.613c1.658,0,3.318.014,4.977-.005,1.221-.014,1.912-.626,1.934-1.651.022-1.068-.7-1.731-1.961-1.737q-4.921-.018-9.843,0a1.75,1.75,0,0,0-1.961,1.653c-.03,1.016.754,1.721,1.988,1.736C-3451.133,5193.063-3449.511,5193.048-3447.889,5193.048Z" transform="translate(-52.796 -12.064)" fill="#ed5c56"/>
      <path id="Path_209" data-name="Path 209" d="M-3505.3,5211.3c-3.779,11.018-1.149,20.083,7.965,27.423a11.616,11.616,0,0,1-5.443.158c-1.534-.332-2.983-1.034-4.5-1.47a4.7,4.7,0,0,0-2.2-.19c-1.566.342-3.09.882-4.847,1.406.485-1.626.859-3.079,1.356-4.486a3.3,3.3,0,0,0-.239-2.837,14.3,14.3,0,0,1,6.962-19.651C-3505.964,5211.525-3505.664,5211.431-3505.3,5211.3Z" transform="translate(-13.358 -47.199)" fill="#1ddf92"/>
      <path id="Path_210" data-name="Path 210" d="M-3412.4,5246.966c-2.437,0-4.875.007-7.312,0-1.329,0-2.15-.665-2.167-1.7s.8-1.741,2.123-1.744q7.368-.018,14.735,0c1.339,0,2.151.665,2.164,1.7.013,1.079-.821,1.743-2.231,1.747C-3407.524,5246.972-3409.962,5246.966-3412.4,5246.966Z" transform="translate(-85.663 -72.26)" fill="#231615"/>
      <path id="Path_211" data-name="Path 211" d="M-3412.407,5218.557c-2.437,0-4.875.009-7.312,0-1.35-.007-2.152-.653-2.16-1.691s.813-1.72,2.132-1.722q7.367-.009,14.734,0c1.34,0,2.144.644,2.158,1.694s-.8,1.711-2.13,1.719C-3407.459,5218.566-3409.933,5218.557-3412.407,5218.557Z" transform="translate(-85.662 -50.185)" fill="#231615"/>
      <path id="Path_212" data-name="Path 212" d="M-3415.026,5275.449c-1.622,0-3.244.014-4.867,0-1.234-.014-2.018-.72-1.988-1.736a1.75,1.75,0,0,1,1.961-1.652q4.922-.021,9.843,0c1.259.005,1.984.669,1.961,1.737-.022,1.024-.713,1.637-1.934,1.651C-3411.708,5275.463-3413.367,5275.449-3415.026,5275.449Z" transform="translate(-85.66 -94.464)" fill="#231615"/>
    </g>
  </g>
</svg>
