<svg xmlns="http://www.w3.org/2000/svg" width="55.296" height="55.315" viewBox="0 0 55.296 55.315">
  <g id="Group_537" data-name="Group 537" transform="translate(-1591.126 -193.165)">
    <g id="Group_536" data-name="Group 536" transform="translate(1591.126 193.165)">
      <path id="Path_186" data-name="Path 186" d="M1630.763,248.48a19.431,19.431,0,0,1-11.386-3.582,102.726,102.726,0,0,1-21.1-19.943c-2.18-2.752-4.439-5.456-5.8-8.764a19.35,19.35,0,0,1,4.315-20.78,7.792,7.792,0,0,1,10.813-.129c1.552,1.447,3.044,2.961,4.517,4.489a7.808,7.808,0,0,1,0,11.134c-.893.937-1.84,1.824-2.741,2.754a2.961,2.961,0,0,0-.181,4.339,102.43,102.43,0,0,0,12.346,12.35,2.983,2.983,0,0,0,4.418-.207c.9-.879,1.77-1.793,2.679-2.664a7.813,7.813,0,0,1,11.212.022q2.131,2.067,4.2,4.2a7.829,7.829,0,0,1-.409,11.578A19.372,19.372,0,0,1,1630.763,248.48Zm-.165-2.184a17.67,17.67,0,0,0,9.3-2.832c.751-.481.674-.731.1-1.3-3.512-3.458-7.013-6.93-10.449-10.462-.783-.8-1.169-.934-2.025-.048a5.133,5.133,0,0,1-7.5.284A108.822,108.822,0,0,1,1607.6,219.51a5.326,5.326,0,0,1,.648-7.82c.493-.444.595-.739.032-1.234-.863-.759-1.641-1.614-2.455-2.428-1.273-1.271-2.551-2.537-3.815-3.817a1.109,1.109,0,0,1-.389-1.339,1.062,1.062,0,0,1,.907-.648c.541-.068.858.27,1.191.6,2.058,2.063,4.131,4.112,6.17,6.193.439.448.676.43,1.074-.052a5.629,5.629,0,0,0-.207-7.475c-1.482-1.569-3.013-3.093-4.575-4.583a5.624,5.624,0,0,0-8.1.292,16.94,16.94,0,0,0-1.6,21.726,101.3,101.3,0,0,0,24.21,24.206A17.153,17.153,0,0,0,1630.6,246.3Zm13.653-9.048a5.392,5.392,0,0,0-1.425-3.684c-1.565-1.635-3.151-3.255-4.8-4.8a5.608,5.608,0,0,0-7.386-.165c-.45.367-.581.593-.1,1.069q5.708,5.653,11.364,11.358c.424.427.659.355,1-.072A6.013,6.013,0,0,0,1644.251,237.248Z" transform="translate(-1591.126 -193.165)" fill="#56b274"/>
      <path id="Path_187" data-name="Path 187" d="M1728.379,213.212c2.915,0,5.831-.005,8.746,0a5.421,5.421,0,0,1,5.581,5.574q.011,4.8,0,9.609a5.3,5.3,0,0,1-5.6,5.5,4.606,4.606,0,0,0-4.262,1.816,24.076,24.076,0,0,1-1.97,2,1.156,1.156,0,0,1-1.369.325,1.082,1.082,0,0,1-.622-1.145c.016-.683-.056-1.374.019-2.049.088-.8-.241-.925-.96-.915-2.807.042-5.615.024-8.422.016a5.417,5.417,0,0,1-5.533-5.511q-.014-4.858,0-9.716a5.417,5.417,0,0,1,5.542-5.5C1722.476,213.206,1725.428,213.212,1728.379,213.212Zm2.766,21.121c2.671-2.512,2.671-2.512,5.814-2.551a3.305,3.305,0,0,0,3.58-3.545q.026-4.639,0-9.278a3.29,3.29,0,0,0-3.542-3.58q-8.631-.022-17.263,0a3.306,3.306,0,0,0-3.59,3.642q-.017,4.585,0,9.17a3.308,3.308,0,0,0,3.641,3.59c2.841.011,5.682,0,8.524,0C1730.84,231.783,1730.84,231.783,1731.145,234.333Z" transform="translate(-1687.43 -208.879)" fill="#56b274"/>
      <path id="Path_188" data-name="Path 188" d="M1663.228,346.785a1.348,1.348,0,0,1,.772.5c1.94,1.977,3.88,3.954,5.954,5.793.559.5.907,1.1.3,1.768-.593.654-1.212.432-1.785-.092-2.123-1.944-4.186-3.949-6.164-6.042a1.1,1.1,0,0,1,.922-1.928Z" transform="translate(-1646.601 -313.587)" fill="#56b274"/>
      <path id="Path_189" data-name="Path 189" d="M1648.878,333.1a1,1,0,0,1,1.1-1.006,1.087,1.087,0,1,1-.074,2.172A1.055,1.055,0,0,1,1648.878,333.1Z" transform="translate(-1636.399 -302.071)" fill="#56b274"/>
      <path id="Path_190" data-name="Path 190" d="M1625.754,222.417a1.014,1.014,0,0,1,1.107-1.115.971.971,0,0,1,1.013,1.039,1.061,1.061,0,1,1-2.12.076Z" transform="translate(-1618.272 -215.223)" fill="#56b274"/>
      <path id="Path_191" data-name="Path 191" d="M1802.037,257.324c-.122.624-.434,1.082-1.119,1.073a.958.958,0,0,1-1.027-1,.973.973,0,0,1,1.006-1.128C1801.581,256.237,1801.9,256.7,1802.037,257.324Z" transform="translate(-1754.78 -242.632)" fill="#56b274"/>
      <path id="Path_192" data-name="Path 192" d="M1753.463,257.273c-.041.73-.4,1.135-1.074,1.124a1.064,1.064,0,1,1,1.074-1.124Z" transform="translate(-1716.72 -242.633)" fill="#56b274"/>
      <path id="Path_193" data-name="Path 193" d="M1776.633,258.408a1.027,1.027,0,0,1-.986-1.161,1.051,1.051,0,0,1,2.1.1A1.035,1.035,0,0,1,1776.633,258.408Z" transform="translate(-1735.773 -242.624)" fill="#56b274"/>
    </g>
  </g>
</svg>
