<svg xmlns="http://www.w3.org/2000/svg" width="112.002" height="53.379" viewBox="0 0 112.002 53.379">
  <g id="Group_1378" data-name="Group 1378" transform="translate(-11341.85 -4948.702)">
    <path id="Path_981" data-name="Path 981" d="M11675.487,5041.332h-9.194c2.734-14.072,5.458-28.087,8.189-42.135.286-.025.538-.069.789-.069,5.893,0,11.786-.045,17.678.038a21.862,21.862,0,0,1,5.013.674,10.584,10.584,0,0,1,8.489,10.7,19.072,19.072,0,0,1-7.172,15.689c-3.319,2.729-7.235,3.688-11.4,3.832-3.018.1-6.04.077-9.059.044-.834-.009-1.214.158-1.374,1.075C11676.86,5034.546,11676.161,5037.893,11675.487,5041.332Zm3.459-17.742c3.257-.139,6.319-.108,9.341-.442a8.353,8.353,0,0,0,7.276-5.489,16.54,16.54,0,0,0,1.258-6.455c-.053-2.849-1.217-4.558-4.038-4.937-3.4-.457-6.867-.469-10.339-.676C11681.263,5011.673,11680.134,5017.479,11678.946,5023.589Z" transform="translate(-252.602 -39.25)" fill="#fff"/>
    <path id="Path_982" data-name="Path 982" d="M11350.036,4999.169c.371-.017.66-.043.951-.043,5.781,0,11.564-.042,17.346.038a22.475,22.475,0,0,1,5.016.644c5.311,1.307,8.448,4.914,8.614,10.348.233,7.667-2.879,13.709-9.568,17.692a18.407,18.407,0,0,1-9.021,2.214c-3.018.1-6.039.07-9.059.048-.773-.005-1.151.132-1.306,1.018-.588,3.368-1.289,6.716-1.962,10.153h-9.2Q11345.944,5020.215,11350.036,4999.169Zm4.459,24.417c3.23-.136,6.287-.1,9.3-.433a8.355,8.355,0,0,0,7.291-5.449,16.489,16.489,0,0,0,1.275-6.66c-.08-2.656-1.23-4.386-3.855-4.744-3.465-.472-6.99-.5-10.517-.721C11356.807,5011.689,11355.68,5017.488,11354.5,5023.586Z" transform="translate(0 -39.25)" fill="#fff"/>
    <path id="Path_983" data-name="Path 983" d="M11537.441,4990.874c.537-2.791,1.051-5.451,1.559-8.113.738-3.864,1.525-7.721,2.189-11.6.49-2.852-.582-4.239-3.48-4.374-2.937-.138-5.883-.031-9-.031q-2.326,11.947-4.684,24.034h-9.125c2.73-14.042,5.449-28.033,8.18-42.09h9.123c-.717,3.714-1.424,7.387-2.154,11.173,2.512,0,4.939-.078,7.359.022a43.694,43.694,0,0,1,6.906.621c5.131,1.045,7.287,4.26,6.385,9.413-1.01,5.758-2.172,11.489-3.271,17.232-.166.866-.422,1.723-.5,2.6s-.428,1.156-1.316,1.137C11542.936,4990.837,11540.254,4990.874,11537.441,4990.874Z" transform="translate(-134.735 0)" fill="#fff"/>
  </g>
</svg>
