<svg xmlns="http://www.w3.org/2000/svg" width="64" height="57.236" viewBox="0 0 64 57.236">
  <g id="Group_1380" data-name="Group 1380" transform="translate(-13603.26 -4660.304)">
    <path id="Path_987" data-name="Path 987" d="M13649.79,4717.268a7.628,7.628,0,0,1-3.8,0,17.617,17.617,0,0,1-2.895-1.246,28.689,28.689,0,0,1-7.26-5.218c-.492-.485-.826-.311-1.242.083-1.191,1.13-7.561,5.539-10.334,6.38a6.6,6.6,0,0,1-2.092.267,5.817,5.817,0,0,1-1.439-.267,7.873,7.873,0,0,1-3-2.059,10.166,10.166,0,0,1-2.172-6.528,23.724,23.724,0,0,1,.758-7.394c.373-1.337.047-1.827-1.283-2.237-3.609-1.11-7.057-2.6-9.717-5.438a6.466,6.466,0,0,1,.027-9.471,15.889,15.889,0,0,1,2.141-1.872,23.68,23.68,0,0,1,7.834-3.636c1.162-.315,1.344-.786,1.055-1.886a25.539,25.539,0,0,1-.814-7.661c.17-3.8,1.3-7.021,5.174-8.587a8.009,8.009,0,0,1,1.439-.188,8.145,8.145,0,0,1,2.092.188,14.425,14.425,0,0,1,4.2,1.734,31.664,31.664,0,0,1,6.029,4.55c.494.471.85.676,1.445.1a25.436,25.436,0,0,1,10.326-6.384,8.357,8.357,0,0,1,3.531,0,7.858,7.858,0,0,1,2.992,2.041,10.178,10.178,0,0,1,2.18,6.543,24.121,24.121,0,0,1-.76,7.391c-.354,1.325-.072,1.838,1.277,2.241a21.169,21.169,0,0,1,9.619,5.333c2.881,3.005,2.883,6.65,0,9.665a15.06,15.06,0,0,1-1.83,1.61,27.151,27.151,0,0,1-8.422,3.969c-.789.246-.955.528-.758,1.332a28.279,28.279,0,0,1,.879,7.927C13654.815,4712.4,13653.71,4715.665,13649.79,4717.268Zm-14.533-18.173.174.009c1.877-.015,3.328-.028,4.262-.007a2.276,2.276,0,0,0,1.141-.225,2.353,2.353,0,0,0,.9-.877c1.7-2.67,3.3-5.4,4.738-8.218a1.738,1.738,0,0,0,.012-1.771,93.66,93.66,0,0,0-4.818-8.329,1.812,1.812,0,0,0-1.656-.95q-4.752.024-9.5.005a1.807,1.807,0,0,0-1.658.945,91.777,91.777,0,0,0-4.82,8.328,1.691,1.691,0,0,0,.008,1.771c.957,1.691,1.826,3.433,2.816,5.1,2.477,4.186,2.5,4.175,7.316,4.214C13634.532,4699.1,13634.9,4699.1,13635.257,4699.1Zm-16.98-29.331a35,35,0,0,0,.8,6.593c.166.885.563,1.127,1.4.934a55.981,55.981,0,0,1,6.7-1.024,1.414,1.414,0,0,0,1.127-.605,63.652,63.652,0,0,1,4.5-5.606c.293-.329.537-.617.092-1.015-2.773-2.487-5.584-4.926-9.371-5.733a3.674,3.674,0,0,0-4.58,2.607A10.832,10.832,0,0,0,13618.276,4669.765Zm33.951.534a15.1,15.1,0,0,0-.213-2.7c-.748-4-2.8-5.24-6.594-3.847a24.42,24.42,0,0,0-7.713,5.2c-.469.422-.344.713.02,1.114a66.374,66.374,0,0,1,4.43,5.485,1.4,1.4,0,0,0,1.076.706,51.306,51.306,0,0,1,6.828,1.026c.725.163,1.193.054,1.357-.814A34.779,34.779,0,0,0,13652.228,4670.3Zm-33.943,36.879a16.555,16.555,0,0,0,.188,2.839c.773,4.252,2.982,5.5,6.984,3.877a25.649,25.649,0,0,0,7.324-5.068c.441-.4.406-.7.02-1.116a63.3,63.3,0,0,1-4.434-5.483,1.418,1.418,0,0,0-1.072-.717,55.1,55.1,0,0,1-6.963-1.048c-.717-.157-1.082.066-1.23.819A34.3,34.3,0,0,0,13618.284,4707.178Zm33.967.989a38.676,38.676,0,0,0-.781-6.628c-.186-1.024-.613-1.258-1.564-1.027a47.165,47.165,0,0,1-6.424.982,1.689,1.689,0,0,0-1.346.739,63.813,63.813,0,0,1-4.424,5.49c-.3.334-.508.613-.068,1.011,2.734,2.466,5.525,4.849,9.236,5.71a3.7,3.7,0,0,0,4.7-2.6A10.769,10.769,0,0,0,13652.251,4708.167Zm-46.191-18.822c.035,1.184,1.025,2.291,2.189,3.256a24.39,24.39,0,0,0,8.471,4.1c.629.2.807-.078.959-.559a63.782,63.782,0,0,1,2.607-6.677,1.454,1.454,0,0,0-.051-1.287,68.918,68.918,0,0,1-2.559-6.551c-.121-.372-.2-.794-.82-.6-3.465,1.081-6.861,2.3-9.482,4.969A4.283,4.283,0,0,0,13606.06,4689.345Zm58.41-.5a5.084,5.084,0,0,0-2.258-3.729,24.576,24.576,0,0,0-8.354-4.042c-.691-.219-.873.066-1.047.607a64.617,64.617,0,0,1-2.561,6.55,1.337,1.337,0,0,0-.053,1.164,67.238,67.238,0,0,1,2.658,6.8c.135.418.291.708.863.526,3.242-1.029,6.422-2.181,8.992-4.526A4.627,4.627,0,0,0,13664.47,4688.849Zm-32.959,13.055c1.217,1.44,2.232,2.643,3.246,3.846.256.3.527.537.879.129a30.669,30.669,0,0,0,3.189-3.975Zm7.338-26.012a32.576,32.576,0,0,0-3.09-3.882c-.2-.235-.461-.564-.771-.219a22.614,22.614,0,0,0-3.262,4.1Zm-13.121,3.388a32.523,32.523,0,0,0-4.986.778c-.484.094-.562.343-.41.774a36.954,36.954,0,0,0,1.826,4.658Zm22.7,6.343c.654-1.795,1.207-3.312,1.758-4.83.1-.267.174-.591-.182-.67a26.007,26.007,0,0,0-5.217-.82C13646.038,4681.471,13647.142,4683.386,13648.431,4685.623Zm-26.346,6.514c-.648,1.779-1.182,3.257-1.725,4.732-.137.373-.232.719.311.822a26.947,26.947,0,0,0,5.039.762C13624.489,4696.328,13623.372,4694.382,13622.085,4692.137Zm26.336-.018-3.7,6.521c1.918-.355,3.461-.648,5.01-.924.449-.08.643-.264.467-.737C13649.634,4695.465,13649.087,4693.944,13648.421,4692.12Z" fill="#fff"/>
    <path id="Path_988" data-name="Path 988" d="M13711.508,4750.4a5.645,5.645,0,1,1-5.635-5.68A5.522,5.522,0,0,1,13711.508,4750.4Z" transform="translate(-70.606 -61.475)" fill="#fff"/>
  </g>
</svg>
