<?xml version="1.0" encoding="utf-8"?>
<!-- Generator: Adobe Illustrator 26.0.1, SVG Export Plug-In . SVG Version: 6.00 Build 0)  -->
<svg version="1.1" id="Layer_1" xmlns="http://www.w3.org/2000/svg" xmlns:xlink="http://www.w3.org/1999/xlink" x="0px" y="0px"
	 viewBox="0 0 447.4 402.4" style="enable-background:new 0 0 447.4 402.4;" xml:space="preserve">
<style type="text/css">
	.st0{fill:#A387BC;}
	.st1{fill:#DAEAF8;}
	.st2{fill:#574A70;}
	.st3{fill:none;}
	.st4{fill:#231615;}
	.st5{fill:#2A2441;}
</style>
<g id="Group_235" transform="translate(665.22 -1423.024)">
	<path id="Path_57" class="st0" d="M-415.5,1544.5c-11.8,0-21.3,9.6-21.4,21.4c0,8.2,4.8,15.7,12.2,19.3v-6.7
		c-4.1-2.9-6.5-7.6-6.5-12.6c0-8.6,7-15.6,15.6-15.6c5.8,0,11.1,3.2,13.8,8.3h6.3C-398.6,1550.2-406.6,1544.5-415.5,1544.5z"/>
</g>
<g id="Group_236" transform="translate(646.828 -1441.416)">
	<path id="Path_58" class="st1" d="M-397.1,1544.5c-21.9,0-39.7,17.8-39.7,39.7c0,18.4,12.7,34.4,30.6,38.7v-5.9
		c-14.7-4.1-24.8-17.5-24.8-32.7c0-18.8,15.2-34,34-34c16,0,29.8,11.1,33.2,26.7h5.9C-361.6,1558.2-378,1544.6-397.1,1544.5z"/>
</g>
<g id="Group_237" transform="translate(607.819 -1358.911)">
	<path id="Path_59" class="st1" d="M-214.7,1639.4h-7.7v-5.7h7.7V1639.4z M-230.1,1639.4h-7.7v-5.7h7.7V1639.4z M-245.4,1639.4h-7.7
		v-5.7h7.7L-245.4,1639.4z M-260.7,1639.4h-7.7v-5.7h7.7V1639.4z M-276,1639.4h-7.7v-5.7h7.7L-276,1639.4z M-291.3,1639.4h-7.7v-5.7
		h7.7V1639.4z M-306.7,1639.4h-7.7v-5.7h7.7V1639.4z M-322,1639.4h-7.7v-5.7h7.7L-322,1639.4z M-337.3,1639.4h-7.7v-5.7h7.7V1639.4z
		 M-352.6,1639.4h-7.7v-5.7h7.7V1639.4z M-367.9,1639.4h-7.7v-5.7h7.7V1639.4z M-383.3,1639.4h-7.7v-5.7h7.7L-383.3,1639.4z
		 M-398.6,1639.4h-7.7v-5.7h7.7V1639.4z M-413.9,1639.4h-7.7v-5.7h7.7L-413.9,1639.4z M-429.2,1639.4h-7.7v-5.7h7.7V1639.4z
		 M-207,1639.4l-0.1-5.7c2.4,0,4.8-0.3,7.1-0.7l1.1,5.6C-201.6,1639-204.3,1639.3-207,1639.4L-207,1639.4z M-191.1,1636.3l-2-5.4
		c2.2-0.8,4.4-1.9,6.4-3.1l2.9,4.9C-186.1,1634.2-188.5,1635.4-191.1,1636.3L-191.1,1636.3z M-177.1,1628.1l-3.7-4.4
		c1.8-1.6,3.5-3.3,5-5.1l4.4,3.7C-173.1,1624.4-175,1626.3-177.1,1628.1L-177.1,1628.1z M-166.7,1615.6l-5-2.9
		c1.2-2.1,2.2-4.2,3-6.5l5.4,2C-164.2,1610.8-165.4,1613.2-166.7,1615.6L-166.7,1615.6z M-161.2,1600.3l-5.7-1
		c0.4-2.4,0.6-4.7,0.6-7.1l5.7,0C-160.5,1595-160.7,1597.7-161.2,1600.3L-161.2,1600.3z M-166.8,1585.1c-0.4-2.4-1-4.7-1.8-6.9
		l5.4-1.9c0.9,2.6,1.6,5.2,2,7.9L-166.8,1585.1z M-171.5,1571.6c-1.2-2.1-2.5-4.1-4-5.9l4.5-3.6c1.7,2.1,3.2,4.4,4.6,6.7
		L-171.5,1571.6z M-180.5,1560.5c-1.8-1.6-3.7-3-5.8-4.2l3-4.9c2.3,1.4,4.5,3,6.6,4.8L-180.5,1560.5z M-192.7,1553.1
		c-2.2-0.9-4.5-1.5-6.9-2l1.1-5.6c2.7,0.5,5.3,1.3,7.8,2.3L-192.7,1553.1z M-206.6,1550.3c-0.4,0-0.8,0-1.2,0h-6.4v-5.7h6.4
		c0.5,0,0.9,0,1.4,0L-206.6,1550.3z M-221.9,1550.3h-7.5v-5.7h7.5L-221.9,1550.3z"/>
</g>
<g id="Group_238" transform="translate(436.895 -1269.142)">
	<path id="Path_60" class="st1" d="M-399.6,1607.9h-5.6c-0.7,0-1.5,0-2.2-0.1l0.4-5.7c0.6,0,1.2,0.1,1.8,0.1h5.6L-399.6,1607.9z
		 M-415.7,1606.2c-2.7-0.9-5.2-2.2-7.5-3.8l3.3-4.7c1.9,1.3,4,2.4,6.1,3.1L-415.7,1606.2z M-429.4,1596.7c-1.8-2.1-3.3-4.5-4.5-7.1
		l5.2-2.4c1,2.1,2.2,4,3.7,5.8L-429.4,1596.7z M-436.4,1581.6c-0.3-1.8-0.5-3.6-0.5-5.4c0-1,0-2,0.1-3l5.7,0.5
		c-0.1,0.8-0.1,1.6-0.1,2.4c0,1.5,0.1,3,0.4,4.4L-436.4,1581.6z M-429.5,1567.1l-5.4-2c1-2.6,2.3-5.1,4-7.4l4.7,3.4
		C-427.6,1562.9-428.7,1564.9-429.5,1567.1L-429.5,1567.1z M-421.5,1556l-3.6-4.5c2.2-1.8,4.6-3.2,7.2-4.4l2.3,5.3
		C-417.7,1553.4-419.7,1554.6-421.5,1556L-421.5,1556z M-409,1550.6l-0.8-5.7c1.5-0.2,3.1-0.3,4.7-0.3h3.4v5.7h-3.4
		C-406.5,1550.3-407.8,1550.4-409,1550.6L-409,1550.6z M-325.2,1550.3h-7.7v-5.7h7.7V1550.3z M-340.5,1550.3h-7.7v-5.7h7.7V1550.3z
		 M-355.8,1550.3h-7.7v-5.7h7.7V1550.3z M-371.2,1550.3h-7.7v-5.7h7.7V1550.3z M-386.5,1550.3h-7.7v-5.7h7.7L-386.5,1550.3z"/>
</g>
<g id="Group_274" transform="translate(484.7 -1225.171)">
	<g id="Group_239" transform="translate(0 0)">
		<path id="Path_61" class="st2" d="M-281.9,1627.6h-149.4c-3.1,0-5.6-2.5-5.6-5.6v-71.8c0-3.1,2.5-5.6,5.6-5.6h149.4
			c3.1,0,5.6,2.5,5.6,5.6v71.8C-276.3,1625.1-278.8,1627.6-281.9,1627.6z M-431.1,1621.8H-282v-71.6h-149.1V1621.8z"/>
	</g>
	<g id="Group_273" transform="translate(14.425 14.03)">
		<g id="Group_248">
			<g id="Group_240" transform="translate(119.903)">
				<rect id="Rectangle_159" x="-436.9" y="1544.5" class="st0" width="11.8" height="5.7"/>
			</g>
			<g id="Group_241" transform="translate(102.775)">
				<rect id="Rectangle_160" x="-436.9" y="1544.5" class="st0" width="11.8" height="5.7"/>
			</g>
			<g id="Group_242" transform="translate(85.644)">
				<rect id="Rectangle_161" x="-436.9" y="1544.5" class="st0" width="11.8" height="5.7"/>
			</g>
			<g id="Group_243" transform="translate(68.516)">
				<rect id="Rectangle_162" x="-436.9" y="1544.5" class="st0" width="11.8" height="5.7"/>
			</g>
			<g id="Group_244" transform="translate(51.387)">
				<rect id="Rectangle_163" x="-436.9" y="1544.5" class="st0" width="11.8" height="5.7"/>
			</g>
			<g id="Group_245" transform="translate(34.258)">
				<rect id="Rectangle_164" x="-436.9" y="1544.5" class="st0" width="11.8" height="5.7"/>
			</g>
			<g id="Group_246" transform="translate(17.132)">
				<rect id="Rectangle_165" x="-436.9" y="1544.5" class="st0" width="11.8" height="5.7"/>
			</g>
			<g id="Group_247">
				<rect id="Rectangle_166" x="-436.9" y="1544.5" class="st0" width="11.8" height="5.7"/>
			</g>
		</g>
		<g id="Group_257" transform="translate(0 15.845)">
			<g id="Group_249" transform="translate(119.903)">
				<rect id="Rectangle_167" x="-436.9" y="1544.5" class="st0" width="11.8" height="5.7"/>
			</g>
			<g id="Group_250" transform="translate(102.775)">
				<rect id="Rectangle_168" x="-436.9" y="1544.5" class="st0" width="11.8" height="5.7"/>
			</g>
			<g id="Group_251" transform="translate(85.644)">
				<rect id="Rectangle_169" x="-436.9" y="1544.5" class="st0" width="11.8" height="5.7"/>
			</g>
			<g id="Group_252" transform="translate(68.516)">
				<rect id="Rectangle_170" x="-436.9" y="1544.5" class="st0" width="11.8" height="5.7"/>
			</g>
			<g id="Group_253" transform="translate(51.387)">
				<rect id="Rectangle_171" x="-436.9" y="1544.5" class="st0" width="11.8" height="5.7"/>
			</g>
			<g id="Group_254" transform="translate(34.258)">
				<rect id="Rectangle_172" x="-436.9" y="1544.5" class="st0" width="11.8" height="5.7"/>
			</g>
			<g id="Group_255" transform="translate(17.132)">
				<rect id="Rectangle_173" x="-436.9" y="1544.5" class="st0" width="11.8" height="5.7"/>
			</g>
			<g id="Group_256">
				<rect id="Rectangle_174" x="-436.9" y="1544.5" class="st0" width="11.8" height="5.7"/>
			</g>
		</g>
		<g id="Group_266" transform="translate(0 31.685)">
			<g id="Group_258" transform="translate(119.903)">
				<rect id="Rectangle_175" x="-436.9" y="1544.5" class="st0" width="11.8" height="5.7"/>
			</g>
			<g id="Group_259" transform="translate(102.775)">
				<rect id="Rectangle_176" x="-436.9" y="1544.5" class="st0" width="11.8" height="5.7"/>
			</g>
			<g id="Group_260" transform="translate(85.644)">
				<rect id="Rectangle_177" x="-436.9" y="1544.5" class="st0" width="11.8" height="5.7"/>
			</g>
			<g id="Group_261" transform="translate(68.516)">
				<rect id="Rectangle_178" x="-436.9" y="1544.5" class="st0" width="11.8" height="5.7"/>
			</g>
			<g id="Group_262" transform="translate(51.387)">
				<rect id="Rectangle_179" x="-436.9" y="1544.5" class="st0" width="11.8" height="5.7"/>
			</g>
			<g id="Group_263" transform="translate(34.258)">
				<rect id="Rectangle_180" x="-436.9" y="1544.5" class="st0" width="11.8" height="5.7"/>
			</g>
			<g id="Group_264" transform="translate(17.132)">
				<rect id="Rectangle_181" x="-436.9" y="1544.5" class="st0" width="11.8" height="5.7"/>
			</g>
			<g id="Group_265">
				<rect id="Rectangle_182" x="-436.9" y="1544.5" class="st0" width="11.8" height="5.7"/>
			</g>
		</g>
		<g id="Group_272" transform="translate(0 47.523)">
			<g id="Group_267" transform="translate(119.903)">
				<rect id="Rectangle_183" x="-436.9" y="1544.5" class="st0" width="11.8" height="5.7"/>
			</g>
			<g id="Group_268" transform="translate(102.775)">
				<rect id="Rectangle_184" x="-436.9" y="1544.5" class="st0" width="11.8" height="5.7"/>
			</g>
			<g id="Group_269" transform="translate(34.1)">
				<rect id="Rectangle_185" x="-436.9" y="1544.5" class="st1" width="63.4" height="5.7"/>
			</g>
			<g id="Group_270" transform="translate(17.132)">
				<rect id="Rectangle_186" x="-436.9" y="1544.5" class="st0" width="11.8" height="5.7"/>
			</g>
			<g id="Group_271">
				<rect id="Rectangle_187" x="-436.9" y="1544.5" class="st0" width="11.8" height="5.7"/>
			</g>
		</g>
	</g>
</g>
<g id="Group_285" transform="translate(673.756 -1251.554)">
	<g id="Group_281" transform="translate(0 0)">
		<g id="Group_275" transform="translate(4.147 5.405)">
			<line id="Line_10" class="st3" x1="-427.1" y1="1554.4" x2="-434.9" y2="1546.6"/>
			
				<rect id="Rectangle_188" x="-433.8" y="1545" transform="matrix(0.7072 -0.707 0.707 0.7072 -1222.405 149.2928)" class="st0" width="5.7" height="11"/>
		</g>
		<g id="Group_276" transform="translate(0 24.602)">
			<line id="Line_11" class="st3" x1="-425.5" y1="1547.3" x2="-436.2" y2="1550.2"/>
			
				<rect id="Rectangle_189" x="-436.3" y="1545.9" transform="matrix(0.9659 -0.2589 0.2589 0.9659 -415.6362 -58.7326)" class="st0" width="11" height="5.7"/>
		</g>
		<g id="Group_277" transform="translate(14.991 34.93)">
			<line id="Line_12" class="st3" x1="-431.3" y1="1545.3" x2="-434.1" y2="1556"/>
			
				<rect id="Rectangle_190" x="-438.2" y="1547.7" transform="matrix(0.2593 -0.9658 0.9658 0.2593 -1818.0967 730.6913)" class="st0" width="11" height="5.7"/>
		</g>
		<g id="Group_278" transform="translate(30.39 29.809)">
			<line id="Line_13" class="st3" x1="-434.9" y1="1546.6" x2="-427" y2="1554.4"/>
			
				<rect id="Rectangle_191" x="-433.8" y="1545" transform="matrix(0.707 -0.7072 0.7072 0.707 -1222.7478 149.4885)" class="st4" width="5.7" height="11.1"/>
		</g>
		<g id="Group_279" transform="translate(34.257 14.077)">
			<line id="Line_14" class="st3" x1="-436.2" y1="1550.2" x2="-425.5" y2="1547.3"/>
			
				<rect id="Rectangle_192" x="-436.3" y="1545.9" transform="matrix(0.9659 -0.2591 0.2591 0.9659 -415.9731 -58.7354)" class="st0" width="11" height="5.7"/>
		</g>
		<g id="Group_280" transform="translate(23.009)">
			<line id="Line_15" class="st3" x1="-434.1" y1="1556" x2="-431.3" y2="1545.3"/>
			
				<rect id="Rectangle_193" x="-438.2" y="1547.7" transform="matrix(0.2586 -0.966 0.966 0.2586 -1818.6844 731.6793)" class="st0" width="11" height="5.7"/>
		</g>
	</g>
	<g id="Group_284" transform="translate(27.272 27.284)">
		<g id="Group_282">
			<path id="Path_62" class="st5" d="M-432.9,1548.6l11,3l11,3.1l-8.1,8l-8.1,8l-2.8-11L-432.9,1548.6z"/>
			<path id="Path_63" class="st1" d="M-428.7,1576.2l-8.2-31.7l31.6,8.8L-428.7,1576.2z M-428.8,1552.7l3.2,12.4l9.2-9
				L-428.8,1552.7z"/>
		</g>
		<g id="Group_283" transform="translate(15.672 16.03)">
			
				<rect id="Rectangle_194" x="-433" y="1544.6" transform="matrix(0.7136 -0.7006 0.7006 0.7136 -1210.0408 142.9921)" class="st1" width="5.7" height="13.4"/>
		</g>
	</g>
</g>
<g id="Group_298" transform="translate(534.858 -1376.183)">
	<g id="Group_297" transform="translate(0)">
		<g id="Group_296">
			<g id="Group_286">
				<path id="Path_64" class="st0" d="M-415.1,1646.4h45.6c0.3-4.3,1.3-9.9,4-13.5c16.8-21.6,17.9-42.3,17.9-43.7
					c0-24.6-20-44.6-44.6-44.6c0,0,0,0,0,0c-24.6,0-44.6,20-44.6,44.6c0,0,0,0,0,0c0,1.5,1,22.1,17.9,43.7
					C-416.3,1636.5-415.4,1642.1-415.1,1646.4z"/>
			</g>
			<g id="Group_289" transform="translate(21.096 52.197)">
				<g id="Group_287">
					
						<rect id="Rectangle_195" x="-432.5" y="1544.7" transform="matrix(0.9842 -0.1773 0.1773 0.9842 -285.0768 -51.3086)" class="st1" width="5.7" height="49.8"/>
				</g>
				<g id="Group_288" transform="translate(32.569 0)">
					
						<rect id="Rectangle_196" x="-454.6" y="1566.7" transform="matrix(0.1772 -0.9842 0.9842 0.1772 -1898.2214 868.5326)" class="st1" width="49.8" height="5.7"/>
				</g>
			</g>
			<g id="Group_290" transform="translate(22.788 53.104)">
				<path id="Path_65" class="st1" d="M-400,1553.4h-2.8l-5.4-3l-5.4,3h-2.8l-5.4-3l-5.4,3h-2.8l-6.8-3.8l2.8-5l5.4,3l5.4-3h2.8
					l5.4,3l5.4-3h2.8l5.4,3l5.4-3l2.8,5L-400,1553.4z"/>
			</g>
			<g id="Group_295" transform="translate(18.856 99.524)">
				<g id="Group_291">
					<rect id="Rectangle_197" x="-436.9" y="1544.5" class="st2" width="51.5" height="5.7"/>
				</g>
				<g id="Group_292" transform="translate(0 13.562)">
					<rect id="Rectangle_198" x="-436.9" y="1544.5" class="st2" width="51.5" height="5.7"/>
				</g>
				<g id="Group_293" transform="translate(8.913 27.124)">
					<rect id="Rectangle_199" x="-436.9" y="1544.5" class="st2" width="33.7" height="5.7"/>
				</g>
				<g id="Group_294" transform="translate(9.766 3.473)">
					<rect id="Rectangle_200" x="-436.9" y="1544.5" class="st1" width="5.7" height="11.8"/>
				</g>
			</g>
		</g>
	</g>
</g>
<g id="Group_299" transform="translate(689.884 -1397.697)">
	<rect id="Rectangle_201" x="-436.9" y="1544.5" class="st0" width="100.9" height="83.3"/>
</g>
<g id="Group_307" transform="translate(686.574 -1401.67)">
	<g id="Group_301" transform="translate(0)">
		<g id="Group_300">
			<path id="Path_66" class="st2" d="M-328.5,1635.8h-108.4v-91.3h108.4V1635.8z M-431.1,1630.1h96.9v-79.8h-96.9V1630.1z"/>
		</g>
	</g>
	<g id="Group_304" transform="translate(0.809 30.968)">
		<g id="Group_302">
			<path id="Path_67" class="st1" d="M-337.2,1587l-20.1-17.2l-23.5,15.7l-30.3-32.6l-21.6,22.3l-4.1-4l25.8-26.7l31.1,33.5
				l23.1-15.4l23.4,20.1L-337.2,1587z"/>
		</g>
		<g id="Group_303" transform="translate(79.594 25.26)">
			<path id="Path_68" class="st1" d="M-413,1557.4v7.6l-23.8-20.4"/>
		</g>
	</g>
	<g id="Group_306" transform="translate(47.577 15.898)">
		<g id="Group_305">
			<path id="Path_69" class="st1" d="M-412.4,1556.8c0,9.7-11.2,16.7-21.3,8.9c-7.6-10.1-0.6-21.2,9-21.2
				C-417.9,1544.5-412.4,1550-412.4,1556.8z"/>
		</g>
	</g>
</g>
<g id="Group_308" transform="translate(711.442 -1466.31)">
	<path id="Path_70" class="st1" d="M-432.8,1586l-4.1-4.1l4.9-4.9l4.1,4.1L-432.8,1586z M-422.6,1575.7l-4.1-4.1l5.4-5.4l4.1,4.1
		L-422.6,1575.7z M-411.7,1564.9l-4.1-4.1l5.4-5.4l4.1,4.1L-411.7,1564.9z M-400.9,1554l-4.1-4.1l5.4-5.4l4.1,4.1L-400.9,1554z"/>
</g>
<g id="Group_309" transform="translate(684.871 -1491.381)">
	<path id="Path_71" class="st1" d="M-431.1,1597.4h-5.7v-6.9h5.7V1597.4z M-431.1,1582.8h-5.7v-7.7h5.7V1582.8z M-431.1,1567.5h-5.7
		v-7.7h5.7V1567.5z M-431.1,1552.2h-5.7v-7.7h5.7V1552.2z"/>
</g>
<g id="Group_310" transform="translate(621.934 -1467.964)">
	<path id="Path_72" class="st1" d="M-399.5,1586l-4.9-4.9l4.1-4.1l4.9,4.9L-399.5,1586z M-409.8,1575.7l-5.4-5.4l4.1-4.1l5.4,5.4
		L-409.8,1575.7z M-420.6,1564.9l-5.4-5.4l4.1-4.1l5.4,5.4L-420.6,1564.9z M-431.5,1554l-5.4-5.4l4.1-4.1l5.4,5.4L-431.5,1554z"/>
</g>
<g id="Group_311" transform="translate(581.748 -1509.585)">
	<circle id="Ellipse_5" class="st5" cx="-410.8" cy="1570.6" r="26.1"/>
</g>
<g id="Group_312" transform="translate(661.311 -1541.666)">
	<circle id="Ellipse_6" class="st5" cx="-410.8" cy="1570.6" r="26.1"/>
</g>
<g id="Group_313" transform="translate(658.799 -1544.539)">
	<path id="Path_73" class="st2" d="M-408,1602.4c-16,0-28.9-13-28.9-28.9c0-16,13-28.9,28.9-28.9c16,0,28.9,13,28.9,28.9
		C-379,1589.5-392,1602.4-408,1602.4z M-408,1550.3c-12.8,0-23.2,10.4-23.2,23.2c0,12.8,10.4,23.2,23.2,23.2
		c12.8,0,23.2-10.4,23.2-23.2C-384.8,1560.7-395.1,1550.3-408,1550.3z"/>
</g>
<g id="Group_314" transform="translate(742.8 -1509.585)">
	<circle id="Ellipse_7" class="st5" cx="-410.8" cy="1570.6" r="26.1"/>
</g>
<g id="Group_315" transform="translate(739.927 -1512.458)">
	<path id="Path_74" class="st2" d="M-407.9,1602.4c-16,0-28.9-13-28.9-28.9c0-16,13-28.9,28.9-28.9c16,0,28.9,13,28.9,28.9
		C-379,1589.5-392,1602.4-407.9,1602.4z M-407.9,1550.3c-12.8,0-23.2,10.4-23.2,23.2c0,12.8,10.4,23.2,23.2,23.2
		c12.8,0,23.2-10.4,23.2-23.2C-384.8,1560.7-395.1,1550.3-407.9,1550.3z"/>
</g>
<g id="Group_316" transform="translate(578.874 -1512.458)">
	<path id="Path_75" class="st2" d="M-407.9,1602.4c-16,0-28.9-13-28.9-28.9c0-16,13-28.9,28.9-28.9c16,0,28.9,13,28.9,28.9
		C-379,1589.5-392,1602.4-407.9,1602.4z M-407.9,1550.3c-12.8,0-23.2,10.4-23.2,23.2c0,12.8,10.4,23.2,23.2,23.2
		c12.8,0,23.2-10.4,23.2-23.2C-384.8,1560.7-395.1,1550.3-407.9,1550.3z"/>
</g>
</svg>
