<svg xmlns="http://www.w3.org/2000/svg" width="447.374" height="402.413" viewBox="0 0 447.374 402.413">
  <g id="Group_317" data-name="Group 317" transform="translate(-436.895 1544.539)">
    <g id="Group_235" data-name="Group 235" transform="translate(665.22 -1423.024)">
      <path id="Path_57" data-name="Path 57" d="M855.637-1333.05a21.378,21.378,0,0,0-21.357,21.357,21.374,21.374,0,0,0,12.2,19.288v-6.665a15.559,15.559,0,0,1-6.458-12.623,15.63,15.63,0,0,1,15.611-15.611A15.617,15.617,0,0,1,869.421-1319h6.28A21.382,21.382,0,0,0,855.637-1333.05Z" transform="translate(-834.28 1333.05)" fill="#231615"/>
    </g>
    <g id="Group_236" data-name="Group 236" transform="translate(646.828 -1441.416)">
      <path id="Path_58" data-name="Path 58" d="M842.019-1365.06a39.791,39.791,0,0,0-39.749,39.749,39.815,39.815,0,0,0,30.6,38.68v-5.935a34.062,34.062,0,0,1-24.85-32.745,34.043,34.043,0,0,1,34-34,34.059,34.059,0,0,1,33.2,26.7h5.866A39.808,39.808,0,0,0,842.019-1365.06Z" transform="translate(-802.27 1365.06)" fill="#231615"/>
    </g>
    <g id="Group_237" data-name="Group 237" transform="translate(607.819 -1358.911)">
      <path id="Path_59" data-name="Path 59" d="M956.544-1126.627h-7.661v-5.746h7.661Zm-15.322,0h-7.661v-5.746h7.661Zm-15.322,0h-7.661v-5.746H925.9Zm-15.322,0h-7.661v-5.746h7.661Zm-15.322,0H887.6v-5.746h7.661Zm-15.322,0h-7.661v-5.746h7.661Zm-15.322,0h-7.661v-5.746h7.661Zm-15.322,0H841.63v-5.746h7.661Zm-15.321,0h-7.661v-5.746h7.661Zm-15.322,0h-7.661v-5.746h7.661Zm-15.322,0h-7.661v-5.746h7.661Zm-15.321,0h-7.661v-5.746H788Zm-15.322,0h-7.661v-5.746h7.661Zm-15.321,0H749.7v-5.746h7.661Zm-15.322,0h-7.661v-5.746h7.661Zm222.216-.007-.1-5.745a41.984,41.984,0,0,0,7.12-.734l1.077,5.643A47.722,47.722,0,0,1,964.255-1126.634Zm15.936-3.05-2.035-5.374a41.55,41.55,0,0,0,6.448-3.1l2.928,4.944A47.386,47.386,0,0,1,980.191-1129.684Zm13.967-8.266-3.728-4.372a42.132,42.132,0,0,0,5.031-5.094l4.417,3.674A47.868,47.868,0,0,1,994.158-1137.95Zm10.373-12.472-4.979-2.867a41.6,41.6,0,0,0,3.021-6.481l5.4,1.968A47.284,47.284,0,0,1,1004.53-1150.422Zm5.559-15.245-5.657-1.009a42.087,42.087,0,0,0,.649-7.129l5.746.032A47.811,47.811,0,0,1,1010.089-1165.666Zm-5.574-15.274a41.456,41.456,0,0,0-1.779-6.928l5.421-1.905a47.241,47.241,0,0,1,2.026,7.889Zm-4.726-13.448a41.9,41.9,0,0,0-4.024-5.921l4.458-3.624a47.617,47.617,0,0,1,4.577,6.736Zm-9-11.071a41.818,41.818,0,0,0-5.775-4.227L988-1214.6a47.7,47.7,0,0,1,6.569,4.807Zm-12.184-7.4a41.451,41.451,0,0,0-6.859-2.024l1.143-5.631a47.147,47.147,0,0,1,7.813,2.306Zm-13.969-2.841q-.61-.017-1.226-.018H957.06v-5.746h6.351q.7,0,1.393.02Zm-15.238-.018h-7.534v-5.746H949.4Z" transform="translate(-734.378 1221.466)" fill="#231615"/>
    </g>
    <g id="Group_238" data-name="Group 238" transform="translate(436.895 -1269.142)">
      <path id="Path_60" data-name="Path 60" d="M474.207-1001.839h-5.614c-.748,0-1.5-.026-2.246-.079l.4-5.732c.61.043,1.23.065,1.844.065h5.614Zm-16.086-1.771a31.592,31.592,0,0,1-7.487-3.8l3.259-4.732a25.891,25.891,0,0,0,6.125,3.112Zm-13.712-9.434a31.717,31.717,0,0,1-4.538-7.067l5.2-2.436a25.948,25.948,0,0,0,3.716,5.786Zm-7.054-15.085a31.965,31.965,0,0,1-.46-5.406c0-.993.047-1.995.138-2.979l5.721.534c-.076.807-.114,1.629-.114,2.444a26.208,26.208,0,0,0,.376,4.432Zm6.941-14.546-5.377-2.024a31.612,31.612,0,0,1,3.977-7.4l4.655,3.368A25.872,25.872,0,0,0,444.3-1042.676Zm7.988-11.045-3.613-4.467a31.7,31.7,0,0,1,7.172-4.371l2.313,5.26A25.957,25.957,0,0,0,452.283-1053.721Zm12.476-5.481-.842-5.684a32.022,32.022,0,0,1,4.676-.343h3.389v5.746h-3.389A26.3,26.3,0,0,0,464.759-1059.2Zm83.832-.281h-7.661v-5.746h7.661Zm-15.322,0h-7.661v-5.746h7.661Zm-15.321,0h-7.661v-5.746h7.661Zm-15.322,0h-7.661v-5.746h7.661Zm-15.322,0h-7.661v-5.746H487.3Z" transform="translate(-436.895 1065.229)" fill="#231615"/>
    </g>
    <g id="Group_274" data-name="Group 274" transform="translate(484.7 -1225.171)">
      <g id="Group_239" data-name="Group 239" transform="translate(0 0)">
        <path id="Path_61" data-name="Path 61" d="M675.084-905.654H525.731a5.641,5.641,0,0,1-5.635-5.633v-71.778a5.641,5.641,0,0,1,5.635-5.634H675.084a5.639,5.639,0,0,1,5.632,5.634v71.778A5.639,5.639,0,0,1,675.084-905.654ZM525.842-911.4H674.97v-71.553H525.842Z" transform="translate(-520.096 988.699)" fill="#231615"/>
      </g>
      <g id="Group_273" data-name="Group 273" transform="translate(14.425 14.03)">
        <g id="Group_248" data-name="Group 248">
          <g id="Group_240" data-name="Group 240" transform="translate(119.903)">
            <rect id="Rectangle_159" data-name="Rectangle 159" width="11.842" height="5.746" fill="#231615"/>
          </g>
          <g id="Group_241" data-name="Group 241" transform="translate(102.775)">
            <rect id="Rectangle_160" data-name="Rectangle 160" width="11.838" height="5.746" fill="#231615"/>
          </g>
          <g id="Group_242" data-name="Group 242" transform="translate(85.644)">
            <rect id="Rectangle_161" data-name="Rectangle 161" width="11.843" height="5.746" fill="#231615"/>
          </g>
          <g id="Group_243" data-name="Group 243" transform="translate(68.516)">
            <rect id="Rectangle_162" data-name="Rectangle 162" width="11.842" height="5.746" fill="#231615"/>
          </g>
          <g id="Group_244" data-name="Group 244" transform="translate(51.387)">
            <rect id="Rectangle_163" data-name="Rectangle 163" width="11.838" height="5.746" fill="#231615"/>
          </g>
          <g id="Group_245" data-name="Group 245" transform="translate(34.258)">
            <rect id="Rectangle_164" data-name="Rectangle 164" width="11.839" height="5.746" fill="#231615"/>
          </g>
          <g id="Group_246" data-name="Group 246" transform="translate(17.132)">
            <rect id="Rectangle_165" data-name="Rectangle 165" width="11.84" height="5.746" fill="#231615"/>
          </g>
          <g id="Group_247" data-name="Group 247">
            <rect id="Rectangle_166" data-name="Rectangle 166" width="11.838" height="5.746" fill="#231615"/>
          </g>
        </g>
        <g id="Group_257" data-name="Group 257" transform="translate(0 15.845)">
          <g id="Group_249" data-name="Group 249" transform="translate(119.903)">
            <rect id="Rectangle_167" data-name="Rectangle 167" width="11.842" height="5.746" fill="#231615"/>
          </g>
          <g id="Group_250" data-name="Group 250" transform="translate(102.775)">
            <rect id="Rectangle_168" data-name="Rectangle 168" width="11.838" height="5.746" fill="#231615"/>
          </g>
          <g id="Group_251" data-name="Group 251" transform="translate(85.644)">
            <rect id="Rectangle_169" data-name="Rectangle 169" width="11.843" height="5.746" fill="#231615"/>
          </g>
          <g id="Group_252" data-name="Group 252" transform="translate(68.516)">
            <rect id="Rectangle_170" data-name="Rectangle 170" width="11.842" height="5.746" fill="#231615"/>
          </g>
          <g id="Group_253" data-name="Group 253" transform="translate(51.387)">
            <rect id="Rectangle_171" data-name="Rectangle 171" width="11.838" height="5.746" fill="#231615"/>
          </g>
          <g id="Group_254" data-name="Group 254" transform="translate(34.258)">
            <rect id="Rectangle_172" data-name="Rectangle 172" width="11.839" height="5.746" fill="#231615"/>
          </g>
          <g id="Group_255" data-name="Group 255" transform="translate(17.132)">
            <rect id="Rectangle_173" data-name="Rectangle 173" width="11.84" height="5.746" fill="#231615"/>
          </g>
          <g id="Group_256" data-name="Group 256">
            <rect id="Rectangle_174" data-name="Rectangle 174" width="11.838" height="5.746" fill="#231615"/>
          </g>
        </g>
        <g id="Group_266" data-name="Group 266" transform="translate(0 31.685)">
          <g id="Group_258" data-name="Group 258" transform="translate(119.903)">
            <rect id="Rectangle_175" data-name="Rectangle 175" width="11.842" height="5.746" fill="#231615"/>
          </g>
          <g id="Group_259" data-name="Group 259" transform="translate(102.775)">
            <rect id="Rectangle_176" data-name="Rectangle 176" width="11.838" height="5.746" fill="#231615"/>
          </g>
          <g id="Group_260" data-name="Group 260" transform="translate(85.644)">
            <rect id="Rectangle_177" data-name="Rectangle 177" width="11.843" height="5.746" fill="#231615"/>
          </g>
          <g id="Group_261" data-name="Group 261" transform="translate(68.516)">
            <rect id="Rectangle_178" data-name="Rectangle 178" width="11.842" height="5.746" fill="#231615"/>
          </g>
          <g id="Group_262" data-name="Group 262" transform="translate(51.387)">
            <rect id="Rectangle_179" data-name="Rectangle 179" width="11.838" height="5.746" fill="#231615"/>
          </g>
          <g id="Group_263" data-name="Group 263" transform="translate(34.258)">
            <rect id="Rectangle_180" data-name="Rectangle 180" width="11.839" height="5.746" fill="#231615"/>
          </g>
          <g id="Group_264" data-name="Group 264" transform="translate(17.132)">
            <rect id="Rectangle_181" data-name="Rectangle 181" width="11.84" height="5.746" fill="#231615"/>
          </g>
          <g id="Group_265" data-name="Group 265">
            <rect id="Rectangle_182" data-name="Rectangle 182" width="11.838" height="5.746" fill="#231615"/>
          </g>
        </g>
        <g id="Group_272" data-name="Group 272" transform="translate(0 47.523)">
          <g id="Group_267" data-name="Group 267" transform="translate(119.903)">
            <rect id="Rectangle_183" data-name="Rectangle 183" width="11.842" height="5.746" fill="#231615"/>
          </g>
          <g id="Group_268" data-name="Group 268" transform="translate(102.775)">
            <rect id="Rectangle_184" data-name="Rectangle 184" width="11.838" height="5.746" fill="#231615"/>
          </g>
          <g id="Group_269" data-name="Group 269" transform="translate(34.1)">
            <rect id="Rectangle_185" data-name="Rectangle 185" width="63.387" height="5.746" fill="#231615"/>
          </g>
          <g id="Group_270" data-name="Group 270" transform="translate(17.132)">
            <rect id="Rectangle_186" data-name="Rectangle 186" width="11.84" height="5.746" fill="#231615"/>
          </g>
          <g id="Group_271" data-name="Group 271">
            <rect id="Rectangle_187" data-name="Rectangle 187" width="11.838" height="5.746" fill="#231615"/>
          </g>
        </g>
      </g>
    </g>
    <g id="Group_285" data-name="Group 285" transform="translate(673.756 -1251.554)">
      <g id="Group_281" data-name="Group 281" transform="translate(0 0)">
        <g id="Group_275" data-name="Group 275" transform="translate(4.147 5.405)">
          <line id="Line_10" data-name="Line 10" x1="7.809" y1="7.811" transform="translate(2.032 2.031)" fill="#fff"/>
          <rect id="Rectangle_188" data-name="Rectangle 188" width="5.746" height="11.044" transform="translate(0 4.062) rotate(-44.993)" fill="#231615"/>
        </g>
        <g id="Group_276" data-name="Group 276" transform="translate(0 24.602)">
          <line id="Line_11" data-name="Line 11" x1="10.668" y2="2.86" transform="translate(0.744 2.775)" fill="#fff"/>
          <rect id="Rectangle_189" data-name="Rectangle 189" width="11.045" height="5.746" transform="translate(0 2.859) rotate(-15.004)" fill="#231615"/>
        </g>
        <g id="Group_277" data-name="Group 277" transform="translate(14.991 34.93)">
          <line id="Line_12" data-name="Line 12" x1="2.863" y2="10.669" transform="translate(2.775 0.745)" fill="#fff"/>
          <rect id="Rectangle_190" data-name="Rectangle 190" width="11.046" height="5.746" transform="translate(0 10.669) rotate(-74.973)" fill="#231615"/>
        </g>
        <g id="Group_278" data-name="Group 278" transform="translate(30.39 29.809)">
          <line id="Line_13" data-name="Line 13" x2="7.814" y2="7.812" transform="translate(2.031 2.032)" fill="#fff"/>
          <rect id="Rectangle_191" data-name="Rectangle 191" width="5.746" height="11.05" transform="translate(0 4.063) rotate(-45.007)" fill="#231615"/>
        </g>
        <g id="Group_279" data-name="Group 279" transform="translate(34.257 14.077)">
          <line id="Line_14" data-name="Line 14" y1="2.862" x2="10.67" transform="translate(0.744 2.775)" fill="#fff"/>
          <rect id="Rectangle_192" data-name="Rectangle 192" width="11.047" height="5.745" transform="translate(0 2.862) rotate(-15.016)" fill="#231615"/>
        </g>
        <g id="Group_280" data-name="Group 280" transform="translate(23.009)">
          <line id="Line_15" data-name="Line 15" y1="10.672" x2="2.857" transform="translate(2.775 0.743)" fill="#fff"/>
          <rect id="Rectangle_193" data-name="Rectangle 193" width="11.048" height="5.746" transform="translate(0 10.672) rotate(-75.014)" fill="#231615"/>
        </g>
      </g>
      <g id="Group_284" data-name="Group 284" transform="translate(27.272 27.284)">
        <g id="Group_282" data-name="Group 282">
          <path id="Path_62" data-name="Path 62" d="M903.609-980l10.981,3.047,10.983,3.052-8.128,7.983-8.136,7.99-2.849-11.039Z" transform="translate(-899.583 984.096)" fill="#ed5c56"/>
          <path id="Path_63" data-name="Path 63" d="M904.789-955.424,896.6-987.131l31.551,8.762Zm-.136-23.51,3.211,12.437,9.164-9Z" transform="translate(-896.602 987.131)" fill="#231615"/>
        </g>
        <g id="Group_283" data-name="Group 283" transform="translate(15.672 16.03)">
          <rect id="Rectangle_194" data-name="Rectangle 194" width="5.746" height="13.403" transform="matrix(0.714, -0.701, 0.701, 0.714, 0, 4.025)" fill="#231615"/>
        </g>
      </g>
    </g>
    <g id="Group_298" data-name="Group 298" transform="translate(534.858 -1376.183)">
      <g id="Group_297" data-name="Group 297" transform="translate(0)">
        <g id="Group_296" data-name="Group 296">
          <g id="Group_286" data-name="Group 286">
            <path id="Path_64" data-name="Path 64" d="M629.2-1149.656h45.56c.318-4.305,1.285-9.913,4-13.519,16.81-21.649,17.887-42.268,17.887-43.727a44.615,44.615,0,0,0-44.628-44.624,44.609,44.609,0,0,0-44.622,44.624c0,1.459,1.047,22.068,17.877,43.727C627.976-1159.569,628.912-1153.961,629.2-1149.656Z" transform="translate(-607.394 1251.526)" fill="#1ddf92"/>
          </g>
          <g id="Group_289" data-name="Group 289" transform="translate(21.096 52.197)">
            <g id="Group_287" data-name="Group 287">
              <rect id="Rectangle_195" data-name="Rectangle 195" width="5.746" height="49.834" transform="translate(0 1.019) rotate(-10.212)" fill="#231615"/>
            </g>
            <g id="Group_288" data-name="Group 288" transform="translate(32.569 0)">
              <rect id="Rectangle_196" data-name="Rectangle 196" width="49.835" height="5.746" transform="translate(0 49.046) rotate(-79.791)" fill="#231615"/>
            </g>
          </g>
          <g id="Group_290" data-name="Group 290" transform="translate(22.788 53.104)">
            <path id="Path_65" data-name="Path 65" d="M683.9-1150.262h-2.814l-5.41-3.039-5.4,3.038h-2.818l-5.4-3.037-5.4,3.037h-2.82l-6.8-3.83,2.821-5.006,5.387,3.036,5.394-3.036h2.818l5.4,3.037,5.4-3.037h2.816l5.411,3.04,5.411-3.04,2.815,5.01Z" transform="translate(-647.055 1159.102)" fill="#231615"/>
          </g>
          <g id="Group_295" data-name="Group 295" transform="translate(18.856 99.524)">
            <g id="Group_291" data-name="Group 291">
              <rect id="Rectangle_197" data-name="Rectangle 197" width="51.538" height="5.746" fill="#231615"/>
            </g>
            <g id="Group_292" data-name="Group 292" transform="translate(0 13.562)">
              <rect id="Rectangle_198" data-name="Rectangle 198" width="51.538" height="5.746" fill="#231615"/>
            </g>
            <g id="Group_293" data-name="Group 293" transform="translate(8.913 27.124)">
              <rect id="Rectangle_199" data-name="Rectangle 199" width="33.707" height="5.746" fill="#231615"/>
            </g>
            <g id="Group_294" data-name="Group 294" transform="translate(9.766 3.473)">
              <rect id="Rectangle_200" data-name="Rectangle 200" width="5.746" height="11.839" fill="#231615"/>
            </g>
          </g>
        </g>
      </g>
    </g>
    <g id="Group_299" data-name="Group 299" transform="translate(689.884 -1397.697)">
      <rect id="Rectangle_201" data-name="Rectangle 201" width="100.942" height="83.325" transform="translate(0 0)" fill="#1ddf92"/>
    </g>
    <g id="Group_307" data-name="Group 307" transform="translate(686.574 -1401.67)">
      <g id="Group_301" data-name="Group 301" transform="translate(0)">
        <g id="Group_300" data-name="Group 300">
          <path id="Path_66" data-name="Path 66" d="M979.815-1204.622H871.445v-91.263h108.37Zm-102.624-5.746h96.879v-79.772H877.191Z" transform="translate(-871.445 1295.885)" fill="#231615"/>
        </g>
      </g>
      <g id="Group_304" data-name="Group 304" transform="translate(0.809 30.968)">
        <g id="Group_302" data-name="Group 302">
          <path id="Path_67" data-name="Path 67" d="M972.559-1199.491l-20.111-17.235-23.543,15.7-30.315-32.608-21.609,22.31-4.127-4,25.821-26.66,31.109,33.464,23.1-15.4,23.416,20.067Z" transform="translate(-872.854 1241.986)" fill="#231615"/>
        </g>
        <g id="Group_303" data-name="Group 303" transform="translate(79.594 25.26)">
          <path id="Path_68" data-name="Path 68" d="M1035.231-1185.15v7.567l-23.85-20.44" transform="translate(-1011.381 1198.022)" fill="#231615"/>
        </g>
      </g>
      <g id="Group_306" data-name="Group 306" transform="translate(47.577 15.898)">
        <g id="Group_305" data-name="Group 305">
          <path id="Path_69" data-name="Path 69" d="M978.738-1255.973c0,9.653-11.178,16.7-21.261,8.914-7.618-10.1-.586-21.158,9.021-21.158A12.243,12.243,0,0,1,978.738-1255.973Z" transform="translate(-954.25 1268.216)" fill="#ed5c56"/>
        </g>
      </g>
    </g>
    <g id="Group_308" data-name="Group 308" transform="translate(711.442 -1466.31)">
      <path id="Path_70" data-name="Path 70" d="M918.789-1366.96l-4.063-4.063,4.861-4.861,4.063,4.063Zm10.278-10.278L925-1381.3l5.416-5.417,4.063,4.063Zm10.834-10.834-4.063-4.063,5.417-5.417,4.063,4.063Zm10.834-10.834-4.063-4.063,5.417-5.417,4.063,4.063Z" transform="translate(-914.726 1408.386)" fill="#231615"/>
    </g>
    <g id="Group_309" data-name="Group 309" transform="translate(684.871 -1491.381)">
      <path id="Path_71" data-name="Path 71" d="M874.227-1399.181h-5.746v-6.874h5.746Zm0-14.535h-5.746v-7.661h5.746Zm0-15.322h-5.746v-7.661h5.746Zm0-15.322h-5.746v-7.661h5.746Z" transform="translate(-868.481 1452.021)" fill="#231615"/>
    </g>
    <g id="Group_310" data-name="Group 310" transform="translate(621.934 -1467.964)">
      <path id="Path_72" data-name="Path 72" d="M796.308-1369.839l-4.861-4.861,4.063-4.063,4.861,4.861Zm-10.278-10.278-5.417-5.417,4.063-4.063,5.417,5.417ZM775.2-1390.952l-5.418-5.417,4.063-4.063,5.417,5.417Zm-10.834-10.834-5.418-5.417,4.063-4.063,5.417,5.418Z" transform="translate(-758.944 1411.266)" fill="#231615"/>
    </g>
    <g id="Group_311" data-name="Group 311" transform="translate(581.748 -1509.585)">
      <circle id="Ellipse_5" data-name="Ellipse 5" cx="26.072" cy="26.072" r="26.072" transform="translate(0)" fill="#6356ed"/>
    </g>
    <g id="Group_312" data-name="Group 312" transform="translate(661.311 -1541.666)">
      <circle id="Ellipse_6" data-name="Ellipse 6" cx="26.072" cy="26.072" r="26.072" fill="#6356ed"/>
    </g>
    <g id="Group_313" data-name="Group 313" transform="translate(658.799 -1544.539)">
      <path id="Path_73" data-name="Path 73" d="M852.049-1486.65a28.977,28.977,0,0,1-28.945-28.944,28.978,28.978,0,0,1,28.945-28.945,28.978,28.978,0,0,1,28.945,28.945A28.977,28.977,0,0,1,852.049-1486.65Zm0-52.143a23.225,23.225,0,0,0-23.2,23.2,23.225,23.225,0,0,0,23.2,23.2,23.225,23.225,0,0,0,23.2-23.2A23.225,23.225,0,0,0,852.049-1538.793Z" transform="translate(-823.105 1544.539)" fill="#231615"/>
    </g>
    <g id="Group_314" data-name="Group 314" transform="translate(742.8 -1509.585)">
      <circle id="Ellipse_7" data-name="Ellipse 7" cx="26.072" cy="26.072" r="26.072" fill="#6356ed"/>
    </g>
    <g id="Group_315" data-name="Group 315" transform="translate(739.927 -1512.458)">
      <path id="Path_74" data-name="Path 74" d="M993.248-1430.814a28.977,28.977,0,0,1-28.945-28.945,28.977,28.977,0,0,1,28.945-28.945,28.978,28.978,0,0,1,28.945,28.945A28.978,28.978,0,0,1,993.248-1430.814Zm0-52.144a23.225,23.225,0,0,0-23.2,23.2,23.225,23.225,0,0,0,23.2,23.2,23.225,23.225,0,0,0,23.2-23.2A23.226,23.226,0,0,0,993.248-1482.958Z" transform="translate(-964.303 1488.704)" fill="#231615"/>
    </g>
    <g id="Group_316" data-name="Group 316" transform="translate(578.874 -1512.458)">
      <path id="Path_75" data-name="Path 75" d="M712.946-1430.814A28.978,28.978,0,0,1,684-1459.759a28.978,28.978,0,0,1,28.945-28.945,28.978,28.978,0,0,1,28.944,28.945A28.978,28.978,0,0,1,712.946-1430.814Zm0-52.144a23.226,23.226,0,0,0-23.2,23.2,23.225,23.225,0,0,0,23.2,23.2,23.225,23.225,0,0,0,23.2-23.2A23.225,23.225,0,0,0,712.946-1482.958Z" transform="translate(-684.001 1488.704)" fill="#231615"/>
    </g>
  </g>
</svg>
