<?xml version="1.0" encoding="utf-8"?>
<!-- Generator: Adobe Illustrator 26.0.1, SVG Export Plug-In . SVG Version: 6.00 Build 0)  -->
<svg version="1.1" id="Layer_1" xmlns="http://www.w3.org/2000/svg" xmlns:xlink="http://www.w3.org/1999/xlink" x="0px" y="0px"
	 viewBox="0 0 501.9 419.2" style="enable-background:new 0 0 501.9 419.2;" xml:space="preserve">
<style type="text/css">
	.st0{fill:#DAEAF8;}
	.st1{fill:#231615;}
	.st2{fill:#574A70;}
	.st3{fill:#A387BC;}
	.st4{fill:#2A2441;}
	.st5{fill:none;}
</style>
<g id="Group_8836" transform="translate(-3778.455 1120.678)">
	<g id="Group_318" transform="translate(3940.426 -1054.817)">
		<rect id="Rectangle_202" x="2.8" y="3.4" class="st0" width="334.3" height="32.1"/>
		<path id="Path_76" class="st1" d="M339.9,38.3H0V0.5h339.9V38.3z M5.7,32.6h328.6V6.2H5.7V32.6z"/>
	</g>
	<g id="Group_343" transform="translate(3940.426 -1054.817)">
		<g id="Group_331" transform="translate(118.183 156.035)">
			<g id="Group_319" transform="translate(16.996 7.554)">
				<rect id="Rectangle_203" x="0" y="0.5" class="st2" width="175.6" height="5.7"/>
			</g>
			<g id="Group_320" transform="translate(0 7.554)">
				<rect id="Rectangle_204" x="0" y="0.5" class="st3" width="8.5" height="5.7"/>
			</g>
			<g id="Group_321" transform="translate(202.068 7.554)">
				<rect id="Rectangle_205" x="0" y="0.5" class="st3" width="8.5" height="5.7"/>
			</g>
			<g id="Group_322" transform="translate(32.104)">
				<rect id="Rectangle_206" x="0" y="0.5" class="st3" width="5.7" height="20.8"/>
			</g>
			<g id="Group_323" transform="translate(16.996 41.074)">
				<rect id="Rectangle_207" x="0" y="0.5" class="st2" width="175.6" height="5.7"/>
			</g>
			<g id="Group_324" transform="translate(0 41.074)">
				<rect id="Rectangle_208" x="0" y="0.5" class="st3" width="8.5" height="5.7"/>
			</g>
			<g id="Group_325" transform="translate(202.068 41.074)">
				<rect id="Rectangle_209" x="0" y="0.5" class="st3" width="8.5" height="5.7"/>
			</g>
			<g id="Group_326" transform="translate(162.882 33.52)">
				<rect id="Rectangle_210" x="0" y="0.5" class="st3" width="5.7" height="20.8"/>
			</g>
			<g id="Group_327" transform="translate(16.996 74.594)">
				<rect id="Rectangle_211" x="0" y="0.5" class="st2" width="175.6" height="5.7"/>
			</g>
			<g id="Group_328" transform="translate(0 74.594)">
				<rect id="Rectangle_212" x="0" y="0.5" class="st3" width="8.5" height="5.7"/>
			</g>
			<g id="Group_329" transform="translate(202.068 74.594)">
				<rect id="Rectangle_213" x="0" y="0.5" class="st3" width="8.5" height="5.7"/>
			</g>
			<g id="Group_330" transform="translate(73.65 67.04)">
				<rect id="Rectangle_214" x="0" y="0.5" class="st3" width="5.7" height="20.8"/>
			</g>
		</g>
		<g id="Group_342" transform="translate(0 0)">
			<g id="Group_332" transform="translate(40.602 72.706)">
				<rect id="Rectangle_215" x="0" y="0.5" class="st4" width="41.5" height="39.7"/>
			</g>
			<g id="Group_333">
				<path id="Path_77" class="st2" d="M339.9,132.7H0V0.5h339.9V132.7z M5.7,127h328.6V6.2H5.7V127z"/>
			</g>
			<g id="Group_334" transform="translate(2.832 32.104)">
				<rect id="Rectangle_216" x="0" y="0.5" class="st2" width="334.3" height="5.7"/>
			</g>
			<g id="Group_335" transform="translate(176.572 51.933)">
				<rect id="Rectangle_217" x="0" y="0.5" class="st4" width="64.2" height="62.3"/>
			</g>
			<g id="Group_336" transform="translate(17.461 52.494)">
				<path id="Path_78" class="st2" d="M0,42.1h41.5V0.5H0V42.1z M7.6,8.1H34v26.4H7.6V8.1z"/>
			</g>
			<g id="Group_337" transform="translate(99.145 51.933)">
				<rect id="Rectangle_218" x="0" y="0.5" class="st2" width="64.2" height="62.3"/>
			</g>
			<g id="Group_338" transform="translate(253.999 51.933)">
				<rect id="Rectangle_219" x="0" y="0.5" class="st2" width="64.2" height="62.3"/>
			</g>
			<g id="Group_339" transform="translate(17.94 14.335)">
				<rect id="Rectangle_220" x="0" y="0.5" class="st2" width="11.3" height="7.6"/>
			</g>
			<g id="Group_340" transform="translate(42.49 14.335)">
				<rect id="Rectangle_221" x="0" y="0.5" class="st2" width="11.3" height="7.6"/>
			</g>
			<g id="Group_341" transform="translate(67.041 14.335)">
				<rect id="Rectangle_222" x="0" y="0.5" class="st2" width="11.3" height="7.6"/>
			</g>
		</g>
	</g>
	<g id="Group_344" transform="translate(3778.455 -826.699)">
		<path id="Path_79" class="st2" d="M44.1,63H37v-5.7h7.1V63z M29.3,63c-2.8-0.2-5.5-0.7-8.1-1.6L23,56c2.2,0.7,4.4,1.2,6.7,1.3
			L29.3,63z M13.7,57.7c-2.3-1.5-4.4-3.4-6.2-5.5l4.3-3.7c1.5,1.7,3.2,3.2,5.1,4.5L13.7,57.7z M3,45.3c-1.2-2.5-2.1-5.2-2.6-7.9
			l5.6-1c0.4,2.2,1.1,4.4,2.1,6.4L3,45.3z M5.6,29.6L0,29.2c0.2-2.8,0.8-5.5,1.8-8.1L7.1,23C6.3,25.2,5.8,27.4,5.6,29.6L5.6,29.6z
			 M10.2,17l-4.6-3.3c1.6-2.3,3.5-4.3,5.6-6.1l3.6,4.4C13.1,13.5,11.5,15.2,10.2,17L10.2,17z M20.6,8.5l-2.3-5.2
			c2.5-1.1,5.2-1.9,7.9-2.4l0.9,5.6C24.8,6.9,22.7,7.5,20.6,8.5L20.6,8.5z M162.6,6.2H155V0.5h7.6V6.2z M147.5,6.2h-7.6V0.5h7.6V6.2
			z M132.4,6.2h-7.6V0.5h7.6V6.2z M117.3,6.2h-7.6V0.5h7.6V6.2z M102.2,6.2h-7.6V0.5h7.6V6.2z M87.1,6.2h-7.6V0.5h7.6V6.2z
			 M71.9,6.2h-7.6V0.5h7.6V6.2z M56.8,6.2h-7.6V0.5h7.6V6.2z M41.7,6.2h-7.6V0.5h7.6V6.2z"/>
	</g>
	<g id="Group_380" transform="translate(3825.486 -783.342)">
		<g id="Group_345" transform="translate(0 0)">
			<path id="Path_80" class="st2" d="M152.8,82.4H5.6c-3.1,0-5.6-2.5-5.6-5.6V6.1C0,3,2.5,0.5,5.6,0.5h147.3c3.1,0,5.5,2.5,5.6,5.6
				v70.8C158.4,79.9,155.9,82.4,152.8,82.4z M5.7,76.7h147V6.2H5.7V76.7z"/>
		</g>
		<g id="Group_379" transform="translate(14.224 13.833)">
			<g id="Group_354">
				<g id="Group_346" transform="translate(118.227)">
					<rect id="Rectangle_223" x="0" y="0.5" class="st2" width="11.7" height="5.7"/>
				</g>
				<g id="Group_347" transform="translate(101.339)">
					<rect id="Rectangle_224" x="0" y="0.5" class="st2" width="11.7" height="5.7"/>
				</g>
				<g id="Group_348" transform="translate(84.447)">
					<rect id="Rectangle_225" x="0" y="0.5" class="st2" width="11.7" height="5.7"/>
				</g>
				<g id="Group_349" transform="translate(67.559)">
					<rect id="Rectangle_226" x="0" y="0.5" class="st2" width="11.7" height="5.7"/>
				</g>
				<g id="Group_350" transform="translate(50.668)">
					<rect id="Rectangle_227" x="0" y="0.5" class="st2" width="11.7" height="5.7"/>
				</g>
				<g id="Group_351" transform="translate(33.779)">
					<rect id="Rectangle_228" x="0" y="0.5" class="st2" width="11.7" height="5.7"/>
				</g>
				<g id="Group_352" transform="translate(16.892)">
					<rect id="Rectangle_229" x="0" y="0.5" class="st2" width="11.7" height="5.7"/>
				</g>
				<g id="Group_353">
					<rect id="Rectangle_230" x="0" y="0.5" class="st2" width="11.7" height="5.7"/>
				</g>
			</g>
			<g id="Group_363" transform="translate(0 15.624)">
				<g id="Group_355" transform="translate(118.227)">
					<rect id="Rectangle_231" x="0" y="0.5" class="st2" width="11.7" height="5.7"/>
				</g>
				<g id="Group_356" transform="translate(101.339)">
					<rect id="Rectangle_232" x="0" y="0.5" class="st2" width="11.7" height="5.7"/>
				</g>
				<g id="Group_357" transform="translate(84.447)">
					<rect id="Rectangle_233" x="0" y="0.5" class="st2" width="11.7" height="5.7"/>
				</g>
				<g id="Group_358" transform="translate(67.559)">
					<rect id="Rectangle_234" x="0" y="0.5" class="st2" width="11.7" height="5.7"/>
				</g>
				<g id="Group_359" transform="translate(50.668)">
					<rect id="Rectangle_235" x="0" y="0.5" class="st2" width="11.7" height="5.7"/>
				</g>
				<g id="Group_360" transform="translate(33.779)">
					<rect id="Rectangle_236" x="0" y="0.5" class="st2" width="11.7" height="5.7"/>
				</g>
				<g id="Group_361" transform="translate(16.892)">
					<rect id="Rectangle_237" x="0" y="0.5" class="st2" width="11.7" height="5.7"/>
				</g>
				<g id="Group_362">
					<rect id="Rectangle_238" x="0" y="0.5" class="st2" width="11.7" height="5.7"/>
				</g>
			</g>
			<g id="Group_372" transform="translate(0 31.243)">
				<g id="Group_364" transform="translate(118.227)">
					<rect id="Rectangle_239" x="0" y="0.5" class="st2" width="11.7" height="5.7"/>
				</g>
				<g id="Group_365" transform="translate(101.339)">
					<rect id="Rectangle_240" x="0" y="0.5" class="st2" width="11.7" height="5.7"/>
				</g>
				<g id="Group_366" transform="translate(84.447)">
					<rect id="Rectangle_241" x="0" y="0.5" class="st2" width="11.7" height="5.7"/>
				</g>
				<g id="Group_367" transform="translate(67.559)">
					<rect id="Rectangle_242" x="0" y="0.5" class="st2" width="11.7" height="5.7"/>
				</g>
				<g id="Group_368" transform="translate(50.668)">
					<rect id="Rectangle_243" x="0" y="0.5" class="st2" width="11.7" height="5.7"/>
				</g>
				<g id="Group_369" transform="translate(33.779)">
					<rect id="Rectangle_244" x="0" y="0.5" class="st2" width="11.7" height="5.7"/>
				</g>
				<g id="Group_370" transform="translate(16.892)">
					<rect id="Rectangle_245" x="0" y="0.5" class="st2" width="11.7" height="5.7"/>
				</g>
				<g id="Group_371">
					<rect id="Rectangle_246" x="0" y="0.5" class="st2" width="11.7" height="5.7"/>
				</g>
			</g>
			<g id="Group_378" transform="translate(0 46.859)">
				<g id="Group_373" transform="translate(118.227)">
					<rect id="Rectangle_247" x="0" y="0.5" class="st2" width="11.7" height="5.7"/>
				</g>
				<g id="Group_374" transform="translate(101.339)">
					<rect id="Rectangle_248" x="0" y="0.5" class="st2" width="11.7" height="5.7"/>
				</g>
				<g id="Group_375" transform="translate(33.623)">
					<rect id="Rectangle_249" x="0" y="0.5" class="st2" width="62.5" height="5.7"/>
				</g>
				<g id="Group_376" transform="translate(16.892)">
					<rect id="Rectangle_250" x="0" y="0.5" class="st2" width="11.7" height="5.7"/>
				</g>
				<g id="Group_377">
					<rect id="Rectangle_251" x="0" y="0.5" class="st2" width="11.7" height="5.7"/>
				</g>
			</g>
		</g>
	</g>
	<g id="Group_391" transform="translate(4199.351 -1120.678)">
		<g id="Group_387" transform="translate(0 0)">
			<g id="Group_381" transform="translate(4.089 5.33)">
				<line id="Line_16" class="st5" x1="9.7" y1="10.2" x2="2" y2="2.5"/>
				
					<rect id="Rectangle_252" x="3" y="0.9" transform="matrix(0.7072 -0.707 0.707 0.7072 -2.7905 6.0041)" class="st4" width="5.7" height="10.9"/>
			</g>
			<g id="Group_382" transform="translate(0 24.257)">
				<line id="Line_17" class="st5" x1="11.3" y1="3.3" x2="0.7" y2="6.1"/>
				
					<rect id="Rectangle_253" x="0.5" y="1.8" transform="matrix(0.9659 -0.259 0.259 0.9659 -1.0032 1.7114)" class="st4" width="10.9" height="5.7"/>
			</g>
			<g id="Group_383" transform="translate(14.782 34.442)">
				<line id="Line_18" class="st5" x1="5.6" y1="1.3" x2="2.7" y2="11.8"/>
				
					<rect id="Rectangle_254" x="-1.3" y="3.7" transform="matrix(0.2592 -0.9658 0.9658 0.2592 -3.2163 8.8299)" class="st4" width="10.9" height="5.7"/>
			</g>
			<g id="Group_384" transform="translate(29.966 29.393)">
				<line id="Line_19" class="st5" x1="2" y1="2.5" x2="9.7" y2="10.2"/>
				
					<rect id="Rectangle_255" x="3" y="0.9" transform="matrix(0.7071 -0.7071 0.7071 0.7071 -2.791 6.0061)" class="st4" width="5.7" height="10.9"/>
			</g>
			<g id="Group_385" transform="translate(33.778 13.881)">
				<line id="Line_20" class="st5" x1="0.7" y1="6.1" x2="11.3" y2="3.3"/>
				
					<rect id="Rectangle_256" x="0.5" y="1.8" transform="matrix(0.9659 -0.259 0.259 0.9659 -1.0033 1.7118)" class="st4" width="10.9" height="5.7"/>
			</g>
			<g id="Group_386" transform="translate(22.687)">
				<line id="Line_21" class="st5" x1="2.7" y1="11.8" x2="5.6" y2="1.2"/>
				
					<rect id="Rectangle_257" x="-1.3" y="3.7" transform="matrix(0.2586 -0.966 0.966 0.2586 -3.2165 8.8324)" class="st4" width="10.9" height="5.7"/>
			</g>
		</g>
		<g id="Group_390" transform="translate(26.89 26.903)">
			<g id="Group_388">
				<path id="Path_81" class="st0" d="M4,4.6l10.8,3l10.8,3l-8,7.9l-8,7.9L6.8,15.4L4,4.6z"/>
				<path id="Path_82" class="st2" d="M8.1,31.8L0,0.5l31.1,8.6L8.1,31.8z M7.9,8.6l3.2,12.3l9-8.9L7.9,8.6z"/>
			</g>
			<g id="Group_389" transform="translate(15.453 15.805)">
				
					<rect id="Rectangle_258" x="3.8" y="0.6" transform="matrix(0.7136 -0.7006 0.7006 0.7136 -3.1511 6.7302)" class="st2" width="5.7" height="13.2"/>
			</g>
		</g>
	</g>
	<g id="Group_392" transform="translate(3937.839 -910.548)">
		<path id="Path_83" class="st2" d="M89.7,90c9.7-9.9,15.1-23.4,14.9-37.3c0-13.9-5.4-27.2-15.2-37c-9.8-9.8-23.1-15.3-37-15.2
			c-14.3,0.1-27.9,5.8-38,15.8C5,25.9,0,38.6,0,53.1C0.1,72.9,9.5,85.2,17.3,92c9.8,8.4,22.2,13.1,35.2,13.2h0.2
			C66.6,105.3,79.9,99.8,89.7,90z M70.7,94.1c2.9-4.2,5.2-8.9,6.8-13.7l6.2,5C80,89,75.6,92,70.7,94.1z M74.8,56.5l-1.6,13.4
			c-5.5-2.4-11.3-3.8-17.2-4.2v-9.2L74.8,56.5z M56,49.2V40c5.9-0.5,11.7-1.9,17.2-4.2l1.7,13.4L56,49.2z M88.5,80
			c-0.3-0.2-0.5-0.5-0.8-0.7C86,77.7,84.1,76.2,82,75c-2.2-1.2-2.5-2.1-1.9-4.7c0.7-3.3,1.1-6.6,1.3-9.9c0.1-1.3,0.2-2.6,0.4-3.9
			h15.5C97.2,62.8,94,72.9,88.5,80L88.5,80z M88.5,25.8c5,6.4,8.7,16.3,8.8,23.4H81.9c0-0.4-0.1-0.8-0.1-1.2c-0.2-2.3-0.4-4.7-0.7-7
			c-0.2-1.6-0.5-3.2-0.8-4.7c-0.2-1.2-0.5-2.4-0.6-3.7c0-0.1,0-0.1,0-0.2c2.6-2,5.1-3.9,7.8-5.9L88.5,25.8z M83.7,20.4l-6.2,5
			c-1.7-5-4.1-9.7-7.1-14C75.3,13.6,79.8,16.7,83.7,20.4L83.7,20.4z M56,8.3c0.6,0.2,1.1,0.4,1.6,0.7c2.4,1.6,4.6,3.6,6.6,5.7
			c3.7,4.4,5.8,9.8,7.1,14.1c-4.8,2.3-10,3.6-15.3,4L56,8.3z M56,72.9c5.3,0.4,10.5,1.7,15.2,4c-3.4,11.7-10,19-15.2,20.6V72.9z
			 M48.7,8.3v24.5c-5.3-0.4-10.5-1.7-15.2-4C36.8,17.2,43.5,9.9,48.7,8.3L48.7,8.3z M34,11.6c-2.9,4.2-5.2,8.9-6.8,13.7l-6.2-5
			C24.7,16.7,29.1,13.8,34,11.6L34,11.6z M16.2,25.8l1.1,0.8c2.7,2,5.3,3.9,7.9,5.9c-0.7,4.8-1.4,9.5-2.2,14.5l-0.3,2.2H7.3
			C8,40.7,11,32.6,16.2,25.8L16.2,25.8z M17.2,79.2l-1,0.8C11,73.1,8,65,7.3,56.5h15.5c0,0.3,0.1,1.1,0.1,1.1
			c0.2,2.2,0.4,4.5,0.7,6.7c0.2,1.7,0.5,3.3,0.8,4.9l0,0.1c0.2,1.2,0.5,2.5,0.7,3.8c0,0.1,0,0.1,0,0.2
			C22.5,75.2,19.9,77.2,17.2,79.2L17.2,79.2z M20.9,85.3l6.2-5c1.7,4.8,3.9,9.5,6.8,13.7C29.1,92,24.7,89,20.9,85.3L20.9,85.3z
			 M48.7,97.4c-1.1-0.4-2.1-0.9-3-1.6c-2.7-2.3-5.1-4.8-7.1-7.7c-2.3-3.5-4.1-7.3-5.2-11.3c4.8-2.3,10-3.6,15.3-4L48.7,97.4z
			 M48.7,65.7c-5.9,0.5-11.7,1.9-17.1,4.2c-0.9-4.4-1.5-8.9-1.7-13.4h18.8L48.7,65.7z M48.7,49.2H29.8l1.7-13.4
			c5.5,2.3,11.3,3.8,17.2,4.2L48.7,49.2z"/>
	</g>
</g>
</svg>
