<svg xmlns="http://www.w3.org/2000/svg" width="501.895" height="419.222" viewBox="0 0 501.895 419.222">
  <g id="Group_393" data-name="Group 393" transform="translate(-3778.455 1120.678)">
    <g id="Group_318" data-name="Group 318" transform="translate(3940.426 -1054.817)">
      <rect id="Rectangle_202" data-name="Rectangle 202" width="334.259" height="32.104" transform="translate(2.833 2.833)" fill="#eda756"/>
      <path id="Path_76" data-name="Path 76" d="M4404.274-966.656H4064.35v-37.77h339.924Zm-334.259-5.665h328.594v-26.439H4070.015Z" transform="translate(-4064.35 1004.426)" fill="#231615"/>
    </g>
    <g id="Group_343" data-name="Group 343" transform="translate(3940.426 -1054.817)">
      <g id="Group_331" data-name="Group 331" transform="translate(118.183 156.035)">
        <g id="Group_319" data-name="Group 319" transform="translate(16.996 7.554)">
          <rect id="Rectangle_203" data-name="Rectangle 203" width="175.629" height="5.665" fill="#231615"/>
        </g>
        <g id="Group_320" data-name="Group 320" transform="translate(0 7.554)">
          <rect id="Rectangle_204" data-name="Rectangle 204" width="8.498" height="5.665" fill="#231615"/>
        </g>
        <g id="Group_321" data-name="Group 321" transform="translate(202.068 7.554)">
          <rect id="Rectangle_205" data-name="Rectangle 205" width="8.498" height="5.665" fill="#231615"/>
        </g>
        <g id="Group_322" data-name="Group 322" transform="translate(32.104)">
          <rect id="Rectangle_206" data-name="Rectangle 206" width="5.665" height="20.773" fill="#231615"/>
        </g>
        <g id="Group_323" data-name="Group 323" transform="translate(16.996 41.074)">
          <rect id="Rectangle_207" data-name="Rectangle 207" width="175.629" height="5.665" fill="#231615"/>
        </g>
        <g id="Group_324" data-name="Group 324" transform="translate(0 41.074)">
          <rect id="Rectangle_208" data-name="Rectangle 208" width="8.498" height="5.665" fill="#231615"/>
        </g>
        <g id="Group_325" data-name="Group 325" transform="translate(202.068 41.074)">
          <rect id="Rectangle_209" data-name="Rectangle 209" width="8.498" height="5.665" fill="#231615"/>
        </g>
        <g id="Group_326" data-name="Group 326" transform="translate(162.882 33.52)">
          <rect id="Rectangle_210" data-name="Rectangle 210" width="5.665" height="20.773" fill="#231615"/>
        </g>
        <g id="Group_327" data-name="Group 327" transform="translate(16.996 74.594)">
          <rect id="Rectangle_211" data-name="Rectangle 211" width="175.629" height="5.665" fill="#231615"/>
        </g>
        <g id="Group_328" data-name="Group 328" transform="translate(0 74.594)">
          <rect id="Rectangle_212" data-name="Rectangle 212" width="8.498" height="5.665" fill="#231615"/>
        </g>
        <g id="Group_329" data-name="Group 329" transform="translate(202.068 74.594)">
          <rect id="Rectangle_213" data-name="Rectangle 213" width="8.498" height="5.665" fill="#231615"/>
        </g>
        <g id="Group_330" data-name="Group 330" transform="translate(73.65 67.04)">
          <rect id="Rectangle_214" data-name="Rectangle 214" width="5.665" height="20.773" fill="#231615"/>
        </g>
      </g>
      <g id="Group_342" data-name="Group 342" transform="translate(0 0)">
        <g id="Group_332" data-name="Group 332" transform="translate(40.602 72.706)">
          <rect id="Rectangle_215" data-name="Rectangle 215" width="41.546" height="39.658" fill="#eda756"/>
        </g>
        <g id="Group_333" data-name="Group 333">
          <path id="Path_77" data-name="Path 77" d="M4404.274-872.233H4064.35v-132.193h339.924ZM4070.015-877.9h328.594V-998.761H4070.015Z" transform="translate(-4064.35 1004.426)" fill="#231615"/>
        </g>
        <g id="Group_334" data-name="Group 334" transform="translate(2.832 32.104)">
          <rect id="Rectangle_216" data-name="Rectangle 216" width="334.259" height="5.665" fill="#231615"/>
        </g>
        <g id="Group_335" data-name="Group 335" transform="translate(176.572 51.933)">
          <rect id="Rectangle_217" data-name="Rectangle 217" width="64.208" height="62.319" fill="#6356ed"/>
        </g>
        <g id="Group_336" data-name="Group 336" transform="translate(17.461 52.494)">
          <path id="Path_78" data-name="Path 78" d="M4095.17-870.223h41.547v-41.546H4095.17Zm7.554-33.992h26.438v26.439h-26.438Z" transform="translate(-4095.17 911.769)" fill="#231615"/>
        </g>
        <g id="Group_337" data-name="Group 337" transform="translate(99.145 51.933)">
          <rect id="Rectangle_218" data-name="Rectangle 218" width="64.208" height="62.319" fill="#ed5c56"/>
        </g>
        <g id="Group_338" data-name="Group 338" transform="translate(253.999 51.933)">
          <rect id="Rectangle_219" data-name="Rectangle 219" width="64.208" height="62.319" fill="#ed5c56"/>
        </g>
        <g id="Group_339" data-name="Group 339" transform="translate(17.94 14.335)">
          <rect id="Rectangle_220" data-name="Rectangle 220" width="11.331" height="7.554" fill="#231615"/>
        </g>
        <g id="Group_340" data-name="Group 340" transform="translate(42.49 14.335)">
          <rect id="Rectangle_221" data-name="Rectangle 221" width="11.331" height="7.554" fill="#231615"/>
        </g>
        <g id="Group_341" data-name="Group 341" transform="translate(67.041 14.335)">
          <rect id="Rectangle_222" data-name="Rectangle 222" width="11.331" height="7.554" fill="#231615"/>
        </g>
      </g>
    </g>
    <g id="Group_344" data-name="Group 344" transform="translate(3778.455 -826.699)">
      <path id="Path_79" data-name="Path 79" d="M3822.518-539.271h-7.067v-5.665h7.067Zm-14.788-.055a31.173,31.173,0,0,1-8.128-1.58l1.811-5.368a25.527,25.527,0,0,0,6.653,1.292Zm-15.551-5.249a31.4,31.4,0,0,1-6.2-5.485l4.281-3.711a25.753,25.753,0,0,0,5.08,4.495Zm-10.75-12.4a31.043,31.043,0,0,1-2.567-7.88l5.572-1.021a25.4,25.4,0,0,0,2.1,6.442Zm2.672-15.677-5.647-.465a31.169,31.169,0,0,1,1.77-8.091l5.324,1.937A25.5,25.5,0,0,0,3784.1-572.655Zm4.59-12.621-4.626-3.27a31.411,31.411,0,0,1,5.627-6.07l3.611,4.366A25.761,25.761,0,0,0,3788.692-585.276Zm10.362-8.567L3796.717-599a31.115,31.115,0,0,1,7.937-2.382l.891,5.6A25.416,25.416,0,0,0,3799.054-593.842Zm141.994-2.267h-7.554v-5.665h7.554Zm-15.108,0h-7.554v-5.665h7.554Zm-15.107,0h-7.554v-5.665h7.554Zm-15.108,0h-7.554v-5.665h7.554Zm-15.107,0h-7.554v-5.665h7.554Zm-15.108,0h-7.554v-5.665h7.554Zm-15.108,0h-7.554v-5.665h7.554Zm-15.107,0h-7.553v-5.665h7.553Zm-15.108,0h-7.554v-5.665h7.554Z" transform="translate(-3778.455 601.775)" fill="#231615"/>
    </g>
    <g id="Group_380" data-name="Group 380" transform="translate(3825.486 -783.342)">
      <g id="Group_345" data-name="Group 345" transform="translate(0 0)">
        <path id="Path_80" data-name="Path 80" d="M4014.291-443.36H3867.024a5.562,5.562,0,0,1-5.555-5.555V-519.69a5.562,5.562,0,0,1,5.555-5.555h147.267a5.561,5.561,0,0,1,5.553,5.555v70.775A5.561,5.561,0,0,1,4014.291-443.36Zm-147.157-5.665h147.044V-519.58H3867.134Z" transform="translate(-3861.469 525.245)" fill="#231615"/>
      </g>
      <g id="Group_379" data-name="Group 379" transform="translate(14.224 13.833)">
        <g id="Group_354" data-name="Group 354">
          <g id="Group_346" data-name="Group 346" transform="translate(118.227)">
            <rect id="Rectangle_223" data-name="Rectangle 223" width="11.677" height="5.665" fill="#231615"/>
          </g>
          <g id="Group_347" data-name="Group 347" transform="translate(101.339)">
            <rect id="Rectangle_224" data-name="Rectangle 224" width="11.673" height="5.665" fill="#231615"/>
          </g>
          <g id="Group_348" data-name="Group 348" transform="translate(84.447)">
            <rect id="Rectangle_225" data-name="Rectangle 225" width="11.678" height="5.665" fill="#231615"/>
          </g>
          <g id="Group_349" data-name="Group 349" transform="translate(67.559)">
            <rect id="Rectangle_226" data-name="Rectangle 226" width="11.677" height="5.665" fill="#231615"/>
          </g>
          <g id="Group_350" data-name="Group 350" transform="translate(50.668)">
            <rect id="Rectangle_227" data-name="Rectangle 227" width="11.673" height="5.665" fill="#231615"/>
          </g>
          <g id="Group_351" data-name="Group 351" transform="translate(33.779)">
            <rect id="Rectangle_228" data-name="Rectangle 228" width="11.674" height="5.665" fill="#231615"/>
          </g>
          <g id="Group_352" data-name="Group 352" transform="translate(16.892)">
            <rect id="Rectangle_229" data-name="Rectangle 229" width="11.675" height="5.665" fill="#231615"/>
          </g>
          <g id="Group_353" data-name="Group 353">
            <rect id="Rectangle_230" data-name="Rectangle 230" width="11.673" height="5.665" fill="#231615"/>
          </g>
        </g>
        <g id="Group_363" data-name="Group 363" transform="translate(0 15.624)">
          <g id="Group_355" data-name="Group 355" transform="translate(118.227)">
            <rect id="Rectangle_231" data-name="Rectangle 231" width="11.677" height="5.665" fill="#231615"/>
          </g>
          <g id="Group_356" data-name="Group 356" transform="translate(101.339)">
            <rect id="Rectangle_232" data-name="Rectangle 232" width="11.673" height="5.665" fill="#231615"/>
          </g>
          <g id="Group_357" data-name="Group 357" transform="translate(84.447)">
            <rect id="Rectangle_233" data-name="Rectangle 233" width="11.678" height="5.665" fill="#231615"/>
          </g>
          <g id="Group_358" data-name="Group 358" transform="translate(67.559)">
            <rect id="Rectangle_234" data-name="Rectangle 234" width="11.677" height="5.665" fill="#231615"/>
          </g>
          <g id="Group_359" data-name="Group 359" transform="translate(50.668)">
            <rect id="Rectangle_235" data-name="Rectangle 235" width="11.673" height="5.665" fill="#231615"/>
          </g>
          <g id="Group_360" data-name="Group 360" transform="translate(33.779)">
            <rect id="Rectangle_236" data-name="Rectangle 236" width="11.674" height="5.665" fill="#231615"/>
          </g>
          <g id="Group_361" data-name="Group 361" transform="translate(16.892)">
            <rect id="Rectangle_237" data-name="Rectangle 237" width="11.675" height="5.665" fill="#231615"/>
          </g>
          <g id="Group_362" data-name="Group 362">
            <rect id="Rectangle_238" data-name="Rectangle 238" width="11.673" height="5.665" fill="#231615"/>
          </g>
        </g>
        <g id="Group_372" data-name="Group 372" transform="translate(0 31.243)">
          <g id="Group_364" data-name="Group 364" transform="translate(118.227)">
            <rect id="Rectangle_239" data-name="Rectangle 239" width="11.677" height="5.665" fill="#231615"/>
          </g>
          <g id="Group_365" data-name="Group 365" transform="translate(101.339)">
            <rect id="Rectangle_240" data-name="Rectangle 240" width="11.673" height="5.665" fill="#231615"/>
          </g>
          <g id="Group_366" data-name="Group 366" transform="translate(84.447)">
            <rect id="Rectangle_241" data-name="Rectangle 241" width="11.678" height="5.665" fill="#231615"/>
          </g>
          <g id="Group_367" data-name="Group 367" transform="translate(67.559)">
            <rect id="Rectangle_242" data-name="Rectangle 242" width="11.677" height="5.665" fill="#231615"/>
          </g>
          <g id="Group_368" data-name="Group 368" transform="translate(50.668)">
            <rect id="Rectangle_243" data-name="Rectangle 243" width="11.673" height="5.665" fill="#231615"/>
          </g>
          <g id="Group_369" data-name="Group 369" transform="translate(33.779)">
            <rect id="Rectangle_244" data-name="Rectangle 244" width="11.674" height="5.665" fill="#231615"/>
          </g>
          <g id="Group_370" data-name="Group 370" transform="translate(16.892)">
            <rect id="Rectangle_245" data-name="Rectangle 245" width="11.675" height="5.665" fill="#231615"/>
          </g>
          <g id="Group_371" data-name="Group 371">
            <rect id="Rectangle_246" data-name="Rectangle 246" width="11.673" height="5.665" fill="#231615"/>
          </g>
        </g>
        <g id="Group_378" data-name="Group 378" transform="translate(0 46.859)">
          <g id="Group_373" data-name="Group 373" transform="translate(118.227)">
            <rect id="Rectangle_247" data-name="Rectangle 247" width="11.677" height="5.665" fill="#231615"/>
          </g>
          <g id="Group_374" data-name="Group 374" transform="translate(101.339)">
            <rect id="Rectangle_248" data-name="Rectangle 248" width="11.673" height="5.665" fill="#231615"/>
          </g>
          <g id="Group_375" data-name="Group 375" transform="translate(33.623)">
            <rect id="Rectangle_249" data-name="Rectangle 249" width="62.501" height="5.665" fill="#231615"/>
          </g>
          <g id="Group_376" data-name="Group 376" transform="translate(16.892)">
            <rect id="Rectangle_250" data-name="Rectangle 250" width="11.675" height="5.665" fill="#231615"/>
          </g>
          <g id="Group_377" data-name="Group 377">
            <rect id="Rectangle_251" data-name="Rectangle 251" width="11.673" height="5.665" fill="#231615"/>
          </g>
        </g>
      </g>
    </g>
    <g id="Group_391" data-name="Group 391" transform="translate(4199.351 -1120.678)">
      <g id="Group_387" data-name="Group 387" transform="translate(0 0)">
        <g id="Group_381" data-name="Group 381" transform="translate(4.089 5.33)">
          <line id="Line_16" data-name="Line 16" x1="7.699" y1="7.701" transform="translate(2.003 2.003)" fill="#fff"/>
          <rect id="Rectangle_252" data-name="Rectangle 252" width="5.666" height="10.89" transform="translate(0 4.006) rotate(-44.992)" fill="#231615"/>
        </g>
        <g id="Group_382" data-name="Group 382" transform="translate(0 24.257)">
          <line id="Line_17" data-name="Line 17" x1="10.519" y2="2.82" transform="translate(0.733 2.736)" fill="#fff"/>
          <rect id="Rectangle_253" data-name="Rectangle 253" width="10.891" height="5.666" transform="translate(0 2.82) rotate(-15.009)" fill="#231615"/>
        </g>
        <g id="Group_383" data-name="Group 383" transform="translate(14.782 34.442)">
          <line id="Line_18" data-name="Line 18" x1="2.823" y2="10.52" transform="translate(2.736 0.734)" fill="#fff"/>
          <rect id="Rectangle_254" data-name="Rectangle 254" width="10.892" height="5.665" transform="translate(0 10.52) rotate(-74.978)" fill="#231615"/>
        </g>
        <g id="Group_384" data-name="Group 384" transform="translate(29.966 29.393)">
          <line id="Line_19" data-name="Line 19" x2="7.705" y2="7.703" transform="translate(2.003 2.003)" fill="#fff"/>
          <rect id="Rectangle_255" data-name="Rectangle 255" width="5.665" height="10.895" transform="matrix(0.707, -0.707, 0.707, 0.707, 0, 4.006)" fill="#231615"/>
        </g>
        <g id="Group_385" data-name="Group 385" transform="translate(33.778 13.881)">
          <line id="Line_20" data-name="Line 20" y1="2.822" x2="10.521" transform="translate(0.734 2.736)" fill="#fff"/>
          <rect id="Rectangle_256" data-name="Rectangle 256" width="10.893" height="5.665" transform="matrix(0.966, -0.259, 0.259, 0.966, 0, 2.821)" fill="#231615"/>
        </g>
        <g id="Group_386" data-name="Group 386" transform="translate(22.687)">
          <line id="Line_21" data-name="Line 21" y1="10.523" x2="2.817" transform="translate(2.736 0.732)" fill="#fff"/>
          <rect id="Rectangle_257" data-name="Rectangle 257" width="10.893" height="5.666" transform="translate(0 10.523) rotate(-75.014)" fill="#231615"/>
        </g>
      </g>
      <g id="Group_390" data-name="Group 390" transform="translate(26.89 26.903)">
        <g id="Group_388" data-name="Group 388">
          <path id="Path_81" data-name="Path 81" d="M4575.849-1066.059l10.828,3,10.829,3.01-8.016,7.871-8.021,7.878-2.81-10.884Z" transform="translate(-4571.878 1070.1)" fill="#eda756"/>
          <path id="Path_82" data-name="Path 82" d="M4576.915-1041.928l-8.072-31.264,31.11,8.639Zm-.133-23.182,3.167,12.263,9.037-8.874Z" transform="translate(-4568.842 1073.192)" fill="#231615"/>
        </g>
        <g id="Group_389" data-name="Group 389" transform="translate(15.453 15.805)">
          <rect id="Rectangle_258" data-name="Rectangle 258" width="5.665" height="13.216" transform="matrix(0.714, -0.701, 0.701, 0.714, 0, 3.969)" fill="#231615"/>
        </g>
      </g>
    </g>
    <g id="Group_392" data-name="Group 392" transform="translate(3937.839 -910.548)">
      <path id="Path_83" data-name="Path 83" d="M4149.522-660.3a52.283,52.283,0,0,0,14.947-37.286,52.164,52.164,0,0,0-15.232-37.018,51.863,51.863,0,0,0-36.966-15.174,54.847,54.847,0,0,0-38.035,15.843c-9.5,9.538-14.5,22.231-14.451,36.706.066,19.862,9.459,32.141,17.327,38.944a54.542,54.542,0,0,0,35.153,13.184h.205A51.8,51.8,0,0,0,4149.522-660.3Zm-19.008,4.068a57.323,57.323,0,0,0,6.815-13.727l6.216,4.984A43.822,43.822,0,0,1,4130.514-656.232Zm4.116-37.564L4133-680.348a53.047,53.047,0,0,0-17.219-4.245v-9.2Zm-18.818-7.313v-9.184a54.813,54.813,0,0,0,17.165-4.231l1.668,13.414Zm32.467,30.795c-.263-.227-.523-.455-.782-.68a36.225,36.225,0,0,0-5.674-4.324c-2.165-1.244-2.526-2.124-1.931-4.709a71.967,71.967,0,0,0,1.332-9.9c.111-1.282.227-2.6.371-3.909h15.5C4157.022-687.5,4153.8-677.347,4148.278-670.313Zm.044-54.187c4.955,6.422,8.667,16.261,8.846,23.413h-15.478q-.053-.614-.1-1.227c-.2-2.289-.4-4.655-.7-6.994-.208-1.591-.506-3.169-.8-4.705-.228-1.2-.463-2.445-.646-3.658a.759.759,0,0,1,.013-.185c2.566-1.984,5.131-3.881,7.842-5.885Zm-4.818-5.4-6.184,4.956a54.143,54.143,0,0,0-7.093-13.992A50.757,50.757,0,0,1,4143.5-729.9Zm-27.729-12.132a5.967,5.967,0,0,1,1.614.734,37.611,37.611,0,0,1,6.563,5.713c3.72,4.407,5.77,9.756,7.13,14.134a43.436,43.436,0,0,1-15.307,3.995Zm0,64.6a42.862,42.862,0,0,1,15.244,3.965c-3.378,11.735-10.034,19.036-15.244,20.592Zm-7.281-64.558v24.539a42.814,42.814,0,0,1-15.25-3.972C4096.6-733.1,4103.265-740.4,4108.491-741.986Zm-14.727,3.33a57.638,57.638,0,0,0-6.82,13.711l-6.236-4.958A44.25,44.25,0,0,1,4093.764-738.656Zm-17.834,14.148,1.056.782c2.742,2.03,5.333,3.949,7.917,5.914-.7,4.812-1.442,9.536-2.221,14.531l-.343,2.2H4067.1A44.6,44.6,0,0,1,4075.93-724.508Zm1.033,53.386-1.034.763a44.8,44.8,0,0,1-8.838-23.393h15.5c.024.292.093,1.125.093,1.125.181,2.2.367,4.468.664,6.712.219,1.661.528,3.309.827,4.9l.012.061c.231,1.24.471,2.521.659,3.766a.727.727,0,0,1-.017.17C4082.278-675.046,4079.7-673.144,4076.963-671.123Zm3.75,6.169,6.21-4.969a57.8,57.8,0,0,0,6.82,13.7A44.212,44.212,0,0,1,4080.713-664.953Zm27.779,12.084a10.52,10.52,0,0,1-3-1.551,46.16,46.16,0,0,1-7.13-7.666,37.583,37.583,0,0,1-5.177-11.3,42.189,42.189,0,0,1,15.306-4Zm0-31.727a54.1,54.1,0,0,0-17.1,4.2,79.775,79.775,0,0,1-1.655-13.4h18.752Zm.021-16.54h-18.9l1.669-13.391a55.252,55.252,0,0,0,17.227,4.248Z" transform="translate(-4059.784 749.777)" fill="#231615"/>
    </g>
  </g>
</svg>
