<svg xmlns="http://www.w3.org/2000/svg" width="358.988" height="432" viewBox="0 0 358.988 432">
  <g id="Group_8834" data-name="Group 8834" transform="translate(-4325.536 -1087.149)">
    <g id="Group_395" data-name="Group 395" transform="translate(4404.993 1197.463)">
      <g id="Group_394" data-name="Group 394" transform="translate(0 0)">
        <path id="Path_84" data-name="Path 84" d="M4493.329,1279.4l-21.24,21.231,17.31,20.449a81.34,81.34,0,0,0-11.845,26.731l-27.509,2.291,0,30.031,26.684,2.223a81.471,81.471,0,0,0,10.543,27.263l-17.834,21.081,21.234,21.235,20.447-17.3a81.315,81.315,0,0,0,26.728,11.835l2.288,27.509,30.033.006,2.226-26.688a81.369,81.369,0,0,0,27.263-10.542l21.08,17.83,21.239-21.227-17.305-20.449a81.206,81.206,0,0,0,11.837-26.727l27.507-2.294,0-30.03-26.686-2.227a81.291,81.291,0,0,0-10.541-27.261l17.834-21.081-21.235-21.237-20.447,17.3a81.3,81.3,0,0,0-26.727-11.835l-2.292-27.509h-30.032l-2.225,26.684a81.339,81.339,0,0,0-27.264,10.543Zm87.255,64.041a33.309,33.309,0,1,1-47.1,0A33.3,33.3,0,0,1,4580.583,1343.441Z" transform="translate(-4450.044 -1260.01)" fill="#a387bc"/>
      </g>
    </g>
    <g id="Group_407" data-name="Group 407" transform="translate(4528.923 1100.837)">
      <g id="Group_406" data-name="Group 406" transform="translate(0 0)">
        <g id="Group_396" data-name="Group 396" transform="translate(5.417 4.867)">
          <path id="Path_85" data-name="Path 85" d="M4663.337,1137.435a10.605,10.605,0,1,1,10.6-10.605A10.618,10.618,0,0,1,4663.337,1137.435Zm0-14.829a4.224,4.224,0,1,0,4.224,4.224A4.229,4.229,0,0,0,4663.337,1122.606Z" transform="translate(-4652.73 -1116.224)" fill="#231615"/>
        </g>
        <g id="Group_399" data-name="Group 399" transform="translate(0 12.282)">
          <g id="Group_397" data-name="Group 397" transform="translate(25.036)">
            <rect id="Rectangle_260" data-name="Rectangle 260" width="7.01" height="6.382" fill="#231615"/>
          </g>
          <g id="Group_398" data-name="Group 398">
            <rect id="Rectangle_261" data-name="Rectangle 261" width="7.012" height="6.382" fill="#231615"/>
          </g>
        </g>
        <g id="Group_402" data-name="Group 402" transform="translate(5.247 0.001)">
          <g id="Group_400" data-name="Group 400" transform="translate(12.519 0)">
            <rect id="Rectangle_262" data-name="Rectangle 262" width="7.01" height="6.381" transform="translate(0 6.071) rotate(-60.005)" fill="#231615"/>
          </g>
          <g id="Group_401" data-name="Group 401" transform="translate(0 21.682)">
            <rect id="Rectangle_263" data-name="Rectangle 263" width="7.011" height="6.382" transform="translate(0 6.071) rotate(-59.995)" fill="#231615"/>
          </g>
        </g>
        <g id="Group_405" data-name="Group 405" transform="translate(5.247)">
          <g id="Group_403" data-name="Group 403">
            <rect id="Rectangle_264" data-name="Rectangle 264" width="6.382" height="7.011" transform="translate(0 3.191) rotate(-30.005)" fill="#231615"/>
          </g>
          <g id="Group_404" data-name="Group 404" transform="translate(12.519 21.683)">
            <rect id="Rectangle_265" data-name="Rectangle 265" width="6.381" height="7.01" transform="matrix(0.866, -0.5, 0.5, 0.866, 0, 3.19)" fill="#231615"/>
          </g>
        </g>
      </g>
    </g>
    <g id="Group_412" data-name="Group 412" transform="translate(4443.731 1087.149)">
      <g id="Group_408" data-name="Group 408" transform="translate(0 183.891)">
        <path id="Path_86" data-name="Path 86" d="M4580.913,1477.9c-1.889,0-3.794-.075-5.667-.225l.508-6.362a65.313,65.313,0,0,0,8.1.138l.29,6.375C4583.08,1477.875,4581.994,1477.9,4580.913,1477.9Zm12.083-1.038-1.092-6.288a63.316,63.316,0,0,0,7.868-1.892l1.886,6.1A70,70,0,0,1,4593,1476.862Zm-26.564-.457a70.047,70.047,0,0,1-8.591-2.384l2.1-6.027a63.6,63.6,0,0,0,7.8,2.165Zm43.552-4.8-2.649-5.807a63.618,63.618,0,0,0,7.131-3.819l3.365,5.423A70.2,70.2,0,0,1,4609.984,1471.608Zm-60.356-1.046a70.327,70.327,0,0,1-7.7-4.475l3.548-5.3a64.059,64.059,0,0,0,7,4.067Zm75.457-8.319-4.022-4.955a64.349,64.349,0,0,0,5.953-5.49l4.614,4.408A70.78,70.78,0,0,1,4625.084,1462.243Zm-90.235-1.567a70.994,70.994,0,0,1-6.333-6.258l4.763-4.248a64.316,64.316,0,0,0,5.76,5.692Zm102.513-11.283-5.134-3.791a63.851,63.851,0,0,0,4.39-6.807l5.572,3.112A70.575,70.575,0,0,1,4637.363,1449.392Zm-114.34-1.981a70.293,70.293,0,0,1-4.563-7.644l5.677-2.916a63.826,63.826,0,0,0,4.148,6.948Zm123.008-13.546-5.921-2.378a63.478,63.478,0,0,0,2.528-7.692l6.178,1.6A69.575,69.575,0,0,1,4646.03,1433.865ZM4514.9,1431.6a70.013,70.013,0,0,1-2.486-8.555l6.23-1.385a63.656,63.656,0,0,0,2.258,7.772Zm135.591-14.953-6.332-.8a64.609,64.609,0,0,0,.508-8.082h6.381A71.069,71.069,0,0,1,4650.494,1416.648Zm-139.452-2.4c-.2-2.138-.3-4.319-.3-6.481q0-1.214.042-2.417l6.378.218q-.037,1.095-.038,2.2c0,1.968.09,3.953.269,5.9Zm6.906-16.744-6.3-1.018a69.765,69.765,0,0,1,1.981-8.689l6.119,1.814A63.318,63.318,0,0,0,4517.948,1397.5Zm4.592-15.491-5.837-2.579c.613-1.387,1.281-2.775,1.986-4.126l5.658,2.953C4523.7,1379.486,4523.1,1380.75,4522.54,1382.01Z" transform="translate(-4510.746 -1375.304)" fill="#231615"/>
      </g>
      <g id="Group_409" data-name="Group 409" transform="translate(76.97)">
        <path id="Path_87" data-name="Path 87" d="M4673.832,1110.073a18.512,18.512,0,0,0-2.159-6.884l5.6-3.055a24.862,24.862,0,0,1,2.9,9.245Zm-36.4-3.7-6.073-1.961a24.959,24.959,0,0,1,4.705-8.468l4.876,4.118A18.581,18.581,0,0,0,4637.431,1106.378Zm29.625-8.749a18.57,18.57,0,0,0-6.368-3.4l1.857-6.106a24.919,24.919,0,0,1,8.546,4.562Zm-20.479-2.085-2.959-5.653a24.852,24.852,0,0,1,9.3-2.742l.584,6.355A18.521,18.521,0,0,0,4646.577,1095.544Z" transform="translate(-4631.358 -1087.149)" fill="#231615"/>
      </g>
      <g id="Group_410" data-name="Group 410" transform="translate(119.595 27.114)">
        <path id="Path_88" data-name="Path 88" d="M4712.519,1322.563l-.431-5.775,6.364-.475.431,5.775Zm-1.065-14.26-.633-8.485,6.364-.475.634,8.485Zm-1.267-16.971-.633-8.485,6.364-.475.633,8.485Zm-1.268-16.97-.633-8.485,6.365-.475.633,8.486Zm-1.266-16.971-.634-8.485,6.364-.475.634,8.485Zm-1.267-16.971-.633-8.484,6.364-.475.633,8.485Zm-1.267-16.97-.633-8.485,6.364-.475.633,8.485Zm-1.267-16.97-.634-8.486,6.364-.475.635,8.486Zm-1.267-16.97-.634-8.486,6.364-.475.633,8.485Zm-1.267-16.971-.633-8.486,6.364-.475.633,8.486Zm-1.267-16.971-.634-8.485,6.364-.475.634,8.485Zm-1.267-16.97-.635-8.486,6.364-.475.634,8.486Z" transform="translate(-4698.15 -1129.637)" fill="#231615"/>
      </g>
      <g id="Group_411" data-name="Group 411" transform="translate(5.722 23.906)">
        <path id="Path_89" data-name="Path 89" d="M4525.6,1292.04l-5.892-2.451,3.268-7.857,5.892,2.451Zm6.537-15.712-5.893-2.451,3.268-7.856,5.893,2.451Zm6.537-15.713-5.893-2.451,3.268-7.856,5.892,2.451Zm6.536-15.712-5.893-2.451,3.269-7.856,5.892,2.451Zm6.536-15.712-5.892-2.451,3.268-7.856,5.892,2.451Zm6.536-15.712-5.892-2.452,3.269-7.856,5.892,2.452Zm6.537-15.713-5.892-2.451,3.268-7.856,5.893,2.451Zm6.537-15.712-5.893-2.451,3.268-7.856,5.893,2.45Zm6.536-15.712L4572,1163.89l3.268-7.856,5.893,2.451Zm6.537-15.712-5.892-2.451,3.268-7.857,5.892,2.451Zm6.536-15.712-5.892-2.451,3.268-7.856,5.892,2.451Z" transform="translate(-4519.712 -1124.609)" fill="#231615"/>
      </g>
    </g>
    <g id="Group_418" data-name="Group 418" transform="translate(4325.536 1274.344)">
      <g id="Group_417" data-name="Group 417" transform="translate(0 0)">
        <g id="Group_413" data-name="Group 413" transform="translate(17.628 17.743)">
          <rect id="Rectangle_266" data-name="Rectangle 266" width="6.381" height="14.857" transform="matrix(0.707, -0.707, 0.707, 0.707, 0, 4.512)" fill="#231615"/>
        </g>
        <g id="Group_414" data-name="Group 414" transform="translate(0 43.701)">
          <rect id="Rectangle_267" data-name="Rectangle 267" width="6.381" height="14.859" transform="translate(0 5.784) rotate(-65.007)" fill="#231615"/>
        </g>
        <g id="Group_415" data-name="Group 415" transform="translate(43.508)">
          <rect id="Rectangle_268" data-name="Rectangle 268" width="6.382" height="14.861" transform="translate(0 2.696) rotate(-24.992)" fill="#231615"/>
        </g>
        <g id="Group_416" data-name="Group 416" transform="translate(17.628 17.743)">
          <rect id="Rectangle_269" data-name="Rectangle 269" width="6.381" height="14.859" transform="matrix(0.707, -0.707, 0.707, 0.707, 0, 4.512)" fill="#231615"/>
        </g>
      </g>
    </g>
    <g id="Group_426" data-name="Group 426" transform="translate(4337.179 1320.551)">
      <g id="Group_419" data-name="Group 419" transform="translate(3.191 155.754)">
        <rect id="Rectangle_270" data-name="Rectangle 270" width="144.601" height="25.736" fill="none"/>
      </g>
      <g id="Group_420" data-name="Group 420" transform="translate(15.62 3.191)">
        <path id="Path_90" data-name="Path 90" d="M4488,1609.843H4368.257l33.895-151.955h51.964Z" transform="translate(-4368.257 -1457.888)" fill="none"/>
      </g>
      <g id="Group_421" data-name="Group 421" transform="translate(15.705 90.868)">
        <path id="Path_91" data-name="Path 91" d="M4419.263,1659.555l59.717-36.948-6.715-27.33-103.875,64.278Z" transform="translate(-4368.39 -1595.277)" fill="#2a2441"/>
      </g>
      <g id="Group_422" data-name="Group 422" transform="translate(25.367 34.281)">
        <path id="Path_92" data-name="Path 92" d="M4383.53,1587.787l87.031-53.851-6.713-27.33-71.2,44.059Z" transform="translate(-4383.53 -1506.605)" fill="#2a2441"/>
      </g>
      <g id="Group_423" data-name="Group 423" transform="translate(0 152.564)">
        <path id="Path_93" data-name="Path 93" d="M4494.764,1724.072H4343.781v-32.118h150.983Zm-144.6-6.382h138.219v-19.354H4350.163Z" transform="translate(-4343.781 -1691.954)" fill="#231615"/>
      </g>
      <g id="Group_424" data-name="Group 424" transform="translate(11.639)">
        <path id="Path_94" data-name="Path 94" d="M4489.726,1611.225H4362.02l35.317-158.337h57.08Zm-119.745-6.382h111.784L4449.3,1459.27h-46.849Z" transform="translate(-4362.02 -1452.888)" fill="#231615"/>
      </g>
      <g id="Group_425" data-name="Group 425" transform="translate(59.561 19.953)">
        <line id="Line_22" data-name="Line 22" x2="31.862" transform="translate(0 3.191)" fill="#fff"/>
        <rect id="Rectangle_271" data-name="Rectangle 271" width="31.862" height="6.382" fill="#231615"/>
      </g>
    </g>
    <g id="Group_441" data-name="Group 441" transform="translate(4633.771 1207.858)">
      <g id="Group_427" data-name="Group 427" transform="translate(0)">
        <path id="Path_95" data-name="Path 95" d="M4859.29,1338.433V1276.3h-50.753V1587.59h50.753Z" transform="translate(-4808.537 -1276.299)" fill="#2a2441"/>
      </g>
      <g id="Group_428" data-name="Group 428" transform="translate(27.687 26.644)">
        <rect id="Rectangle_272" data-name="Rectangle 272" width="19.986" height="6.382" fill="#daeaf8"/>
      </g>
      <g id="Group_429" data-name="Group 429" transform="translate(36.913 47.796)">
        <rect id="Rectangle_273" data-name="Rectangle 273" width="10.76" height="6.382" fill="#daeaf8"/>
      </g>
      <g id="Group_430" data-name="Group 430" transform="translate(27.687 68.942)">
        <rect id="Rectangle_274" data-name="Rectangle 274" width="19.986" height="6.382" fill="#daeaf8"/>
      </g>
      <g id="Group_431" data-name="Group 431" transform="translate(36.913 90.089)">
        <rect id="Rectangle_275" data-name="Rectangle 275" width="10.76" height="6.382" fill="#daeaf8"/>
      </g>
      <g id="Group_432" data-name="Group 432" transform="translate(27.687 111.237)">
        <rect id="Rectangle_276" data-name="Rectangle 276" width="19.986" height="6.382" fill="#daeaf8"/>
      </g>
      <g id="Group_433" data-name="Group 433" transform="translate(36.913 132.38)">
        <rect id="Rectangle_277" data-name="Rectangle 277" width="10.76" height="6.382" fill="#daeaf8"/>
      </g>
      <g id="Group_434" data-name="Group 434" transform="translate(27.687 153.53)">
        <rect id="Rectangle_278" data-name="Rectangle 278" width="19.986" height="6.382" fill="#daeaf8"/>
      </g>
      <g id="Group_435" data-name="Group 435" transform="translate(36.913 174.679)">
        <rect id="Rectangle_279" data-name="Rectangle 279" width="10.76" height="6.382" fill="#daeaf8"/>
      </g>
      <g id="Group_436" data-name="Group 436" transform="translate(27.687 195.821)">
        <rect id="Rectangle_280" data-name="Rectangle 280" width="19.986" height="6.382" fill="#daeaf8"/>
      </g>
      <g id="Group_437" data-name="Group 437" transform="translate(36.913 216.974)">
        <rect id="Rectangle_281" data-name="Rectangle 281" width="10.76" height="6.382" fill="#daeaf8"/>
      </g>
      <g id="Group_438" data-name="Group 438" transform="translate(27.687 238.122)">
        <rect id="Rectangle_282" data-name="Rectangle 282" width="19.986" height="6.382" fill="#daeaf8"/>
      </g>
      <g id="Group_439" data-name="Group 439" transform="translate(36.913 259.265)">
        <rect id="Rectangle_283" data-name="Rectangle 283" width="10.76" height="6.382" fill="#daeaf8"/>
      </g>
      <g id="Group_440" data-name="Group 440" transform="translate(27.687 280.415)">
        <rect id="Rectangle_284" data-name="Rectangle 284" width="19.986" height="6.382" fill="#daeaf8"/>
      </g>
    </g>
    <g id="Group_446" data-name="Group 446" transform="translate(4512.041 1403.279)">
      <g id="Group_442" data-name="Group 442" transform="translate(2.603 63.214)">
        <path id="Path_96" data-name="Path 96" d="M4632.424,1681.576l-10.558,10.559,18.416,18.418,28.98-28.977Z" transform="translate(-4621.867 -1681.576)" fill="#a387bc"/>
      </g>
      <g id="Group_443" data-name="Group 443" transform="translate(2.577)">
        <path id="Path_97" data-name="Path 97" d="M4637.959,1672.75a15.536,15.536,0,0,1-11.059-4.582l-.5-.5a15.662,15.662,0,0,1,0-22.119l58.442-58.444a15.639,15.639,0,0,1,22.121,0l.5.493a15.638,15.638,0,0,1,.006,22.122l-58.444,58.448A15.537,15.537,0,0,1,4637.959,1672.75ZM4695.9,1588.9a9.2,9.2,0,0,0-6.549,2.713l-58.442,58.445a9.27,9.27,0,0,0,0,13.094l.5.5a9.255,9.255,0,0,0,13.093,0h0l58.444-58.449a9.255,9.255,0,0,0,0-13.09l-.5-.5A9.2,9.2,0,0,0,4695.9,1588.9Z" transform="translate(-4621.826 -1582.521)" fill="#231615"/>
      </g>
      <g id="Group_444" data-name="Group 444" transform="translate(37.279 9.358)">
        <rect id="Rectangle_285" data-name="Rectangle 285" width="6.381" height="61.458" transform="translate(0 4.512) rotate(-44.999)" fill="#231615"/>
      </g>
      <g id="Group_445" data-name="Group 445" transform="translate(0 76.355)">
        <rect id="Rectangle_286" data-name="Rectangle 286" width="20.486" height="6.382" transform="matrix(0.707, -0.707, 0.707, 0.707, 0, 14.488)" fill="#231615"/>
      </g>
    </g>
    <g id="Group_455" data-name="Group 455" transform="translate(4406.393 1166.28)">
      <g id="Group_447" data-name="Group 447" transform="translate(6.678 3.191)">
        <path id="Path_98" data-name="Path 98" d="M4462.7,1229.567l24.558-13.358,3.724-.061-1.71,26.774.855,0Z" transform="translate(-4462.701 -1216.148)" fill="#a387bc"/>
      </g>
      <g id="Group_448" data-name="Group 448" transform="translate(215.725 4.207)">
        <rect id="Rectangle_287" data-name="Rectangle 287" width="11.653" height="23.3" fill="#a387bc"/>
      </g>
      <g id="Group_454" data-name="Group 454" transform="translate(0 0)">
        <g id="Group_449" data-name="Group 449" transform="translate(0 0.062)">
          <path id="Path_99" data-name="Path 99" d="M4488.15,1244.343h-5.488l-30.424-16.55,30.424-16.549h5.488v6.382h-3.866l-18.691,10.167,18.691,10.168h3.866Z" transform="translate(-4452.237 -1211.244)" fill="#231615"/>
        </g>
        <g id="Group_450" data-name="Group 450" transform="translate(30.913 0.071)">
          <path id="Path_100" data-name="Path 100" d="M4681.117,1244.343H4500.678v-33.083h180.438v6.382H4507.06v20.32h174.057Z" transform="translate(-4500.678 -1211.258)" fill="#231615"/>
        </g>
        <g id="Group_451" data-name="Group 451" transform="translate(35.457 13.42)">
          <rect id="Rectangle_288" data-name="Rectangle 288" width="175.894" height="6.382" fill="#231615"/>
        </g>
        <g id="Group_452" data-name="Group 452" transform="translate(210.499)">
          <path id="Path_101" data-name="Path 101" d="M4798.712,1244.369h-16.625v-33.222h16.625a5.375,5.375,0,0,1,5.367,5.369V1239A5.375,5.375,0,0,1,4798.712,1244.369Zm-10.244-6.382h9.229v-20.459h-9.229Z" transform="translate(-4782.087 -1211.147)" fill="#231615"/>
        </g>
        <g id="Group_453" data-name="Group 453" transform="translate(13.529 9.939)">
          <path id="Path_102" data-name="Path 102" d="M4479.8,1239.712l-6.316-.906a38.331,38.331,0,0,0-.044-11.128l6.309-.956a44.621,44.621,0,0,1,.052,12.99Z" transform="translate(-4473.438 -1226.722)" fill="#231615"/>
        </g>
      </g>
    </g>
  </g>
</svg>
