<svg xmlns="http://www.w3.org/2000/svg" width="176" height="176" viewBox="0 0 176 176">
  <g id="Group_483" data-name="Group 483" transform="translate(-464 -1840)">
    <circle id="Ellipse_4" data-name="Ellipse 4" cx="88" cy="88" r="88" transform="translate(464 1840)" fill="#6356ed"/>
    <circle id="Ellipse_19" data-name="Ellipse 19" cx="88" cy="88" r="88" transform="translate(464 1840)" fill="#eda756"/>
    <g id="Group_475" data-name="Group 475" transform="translate(-4905.082 950.056)">
      <g id="Group_457" data-name="Group 457" transform="translate(5419.665 959.656)">
        <path id="Path_103" data-name="Path 103" d="M5477.524,1185.726c-.03,0-.061,0-.091,0a37.861,37.861,0,0,1-25.691-12.233,38.455,38.455,0,0,1-5.9-43.453,1.539,1.539,0,0,1,2.74,1.4,35.13,35.13,0,0,0,29.03,51.211,1.539,1.539,0,0,1-.088,3.075Z" transform="translate(-5441.643 -1129.2)" fill="#231615"/>
      </g>
      <g id="Group_458" data-name="Group 458" transform="translate(5426.206 939.732)">
        <path id="Path_104" data-name="Path 104" d="M5540.345,1015.9a1.539,1.539,0,0,1-.209-3.063,34.716,34.716,0,0,0,22.641-13.083,35.285,35.285,0,0,0-11.668-53.152,34.793,34.793,0,0,0-31.57-.006,35.249,35.249,0,0,0-12.9,11.287,1.538,1.538,0,1,1-2.528-1.753,38.324,38.324,0,0,1,14.027-12.276,37.873,37.873,0,0,1,34.371.007,38.381,38.381,0,0,1,12.689,57.791,37.779,37.779,0,0,1-24.641,14.234A1.575,1.575,0,0,1,5540.345,1015.9Z" transform="translate(-5503.837 -939.732)" fill="#231615"/>
      </g>
      <g id="Group_459" data-name="Group 459" transform="translate(5436.266 955.465)">
        <path id="Path_105" data-name="Path 105" d="M5601.662,1144.589a1.539,1.539,0,0,1-.818-.235q-.319-.2-.635-.408a1.539,1.539,0,0,1,1.606-2.623,84.631,84.631,0,0,0,36.21-28.847q.437-.605.854-1.213a84.875,84.875,0,0,0,10.534-20.873,1.539,1.539,0,0,1,2.913.994,87.937,87.937,0,0,1-10.914,21.628q-.437.634-.89,1.262a87.692,87.692,0,0,1-38.283,30.2A1.539,1.539,0,0,1,5601.662,1144.589Z" transform="translate(-5599.513 -1089.347)" fill="#231615"/>
      </g>
      <g id="Group_460" data-name="Group 460" transform="translate(5469.958 968.737)">
        <path id="Path_106" data-name="Path 106" d="M5936.309,1249.062a1.539,1.539,0,0,1-1.487-1.148,84.869,84.869,0,0,0-7.9-19.655c-.456-.816-.921-1.621-1.385-2.389a85.355,85.355,0,0,0-5.308-7.838,1.539,1.539,0,0,1,2.449-1.865,88.8,88.8,0,0,1,5.5,8.119c.478.795.961,1.628,1.433,2.476a87.9,87.9,0,0,1,8.19,20.371,1.54,1.54,0,0,1-1.489,1.93Z" transform="translate(-5919.913 -1215.559)" fill="#231615"/>
      </g>
      <g id="Group_461" data-name="Group 461" transform="translate(5439.667 943.683)">
        <path id="Path_107" data-name="Path 107" d="M5658.667,999.429a1.533,1.533,0,0,1-1.135-.5,85.506,85.506,0,0,0-8.092-7.75,84.333,84.333,0,0,0-16.728-10.955,1.539,1.539,0,0,1,1.368-2.758,87.394,87.394,0,0,1,17.338,11.354,88.568,88.568,0,0,1,8.384,8.03,1.539,1.539,0,0,1-1.135,2.578Z" transform="translate(-5631.856 -977.307)" fill="#231615"/>
      </g>
      <g id="Group_462" data-name="Group 462" transform="translate(5429.36 943.69)">
        <path id="Path_108" data-name="Path 108" d="M5535.377,1038.125a1.54,1.54,0,0,1-1.5-1.866,87.5,87.5,0,0,1,14.664-32.842,88.18,88.18,0,0,1,29.385-25.862,1.539,1.539,0,1,1,1.467,2.706,85.112,85.112,0,0,0-42.506,56.653A1.54,1.54,0,0,1,5535.377,1038.125Z" transform="translate(-5533.837 -977.368)" fill="#231615"/>
      </g>
      <g id="Group_463" data-name="Group 463" transform="translate(5420.2 968.738)">
        <path id="Path_109" data-name="Path 109" d="M5518.672,1238.448a1.53,1.53,0,0,1-.982-.356,84.877,84.877,0,0,0-13.585-9.229c-.761-.417-1.512-.811-2.234-1.173A83.286,83.286,0,0,0,5471.7,1219c-2.576-.237-5.2-.357-7.794-.357a84.536,84.536,0,0,0-15.352,1.4,1.539,1.539,0,1,1-.561-3.026,87.631,87.631,0,0,1,15.913-1.454c2.689,0,5.406.124,8.075.37a86.346,86.346,0,0,1,31.278,9.012c.748.375,1.531.786,2.323,1.219a87.958,87.958,0,0,1,14.078,9.564,1.539,1.539,0,0,1-.986,2.722Z" transform="translate(-5446.731 -1215.561)" fill="#231615"/>
      </g>
      <g id="Group_464" data-name="Group 464" transform="translate(5469.331 940.383)">
        <circle id="Ellipse_8" data-name="Ellipse 8" cx="3.307" cy="3.307" r="3.307" transform="translate(1.539 1.539)" fill="#ed5c56"/>
        <path id="Path_110" data-name="Path 110" d="M5918.787,955.616a4.846,4.846,0,1,1,4.846-4.846A4.852,4.852,0,0,1,5918.787,955.616Zm0-6.614a1.768,1.768,0,1,0,1.768,1.768A1.77,1.77,0,0,0,5918.787,949Z" transform="translate(-5913.941 -945.924)" fill="#231615"/>
      </g>
      <g id="Group_465" data-name="Group 465" transform="translate(5482.778 952.159)">
        <circle id="Ellipse_9" data-name="Ellipse 9" cx="3.307" cy="3.307" r="3.307" transform="translate(1.539 1.539)" fill="#1ddf92"/>
        <path id="Path_111" data-name="Path 111" d="M6046.663,1067.6a4.846,4.846,0,1,1,4.846-4.846A4.851,4.851,0,0,1,6046.663,1067.6Zm0-6.614a1.768,1.768,0,1,0,1.768,1.768A1.769,1.769,0,0,0,6046.663,1060.986Z" transform="translate(-6041.818 -1057.908)" fill="#231615"/>
      </g>
      <g id="Group_466" data-name="Group 466" transform="translate(5453.544 952.159)">
        <circle id="Ellipse_10" data-name="Ellipse 10" cx="3.307" cy="3.307" r="3.307" transform="translate(1.539 1.539)" fill="#1ddf92"/>
        <path id="Path_112" data-name="Path 112" d="M5768.671,1067.6a4.846,4.846,0,1,1,4.846-4.846A4.851,4.851,0,0,1,5768.671,1067.6Zm0-6.614a1.768,1.768,0,1,0,1.768,1.768A1.77,1.77,0,0,0,5768.671,1060.986Z" transform="translate(-5763.826 -1057.908)" fill="#231615"/>
      </g>
      <g id="Group_467" data-name="Group 467" transform="translate(5436.885 940.383)">
        <circle id="Ellipse_11" data-name="Ellipse 11" cx="3.307" cy="3.307" r="3.307" transform="translate(1.539 1.539)" fill="#ed5c56"/>
        <path id="Path_113" data-name="Path 113" d="M5610.246,955.616a4.846,4.846,0,1,1,4.845-4.846A4.851,4.851,0,0,1,5610.246,955.616Zm0-6.614a1.768,1.768,0,1,0,1.769,1.768A1.771,1.771,0,0,0,5610.246,949Z" transform="translate(-5605.4 -945.924)" fill="#231615"/>
      </g>
      <g id="Group_468" data-name="Group 468" transform="translate(5417.082 967.067)">
        <circle id="Ellipse_12" data-name="Ellipse 12" cx="3.307" cy="3.307" r="3.307" transform="translate(1.539 1.539)" fill="#ed5c56"/>
        <path id="Path_114" data-name="Path 114" d="M5421.928,1209.364a4.846,4.846,0,1,1,4.845-4.845A4.851,4.851,0,0,1,5421.928,1209.364Zm0-6.614a1.768,1.768,0,1,0,1.768,1.768A1.77,1.77,0,0,0,5421.928,1202.751Z" transform="translate(-5417.082 -1199.673)" fill="#231615"/>
      </g>
      <g id="Group_469" data-name="Group 469" transform="translate(5426.053 997.4)">
        <circle id="Ellipse_13" data-name="Ellipse 13" cx="3.307" cy="3.307" r="3.307" transform="translate(1.539 1.539)" fill="#1ddf92"/>
        <path id="Path_115" data-name="Path 115" d="M5507.238,1497.818a4.846,4.846,0,1,1,4.846-4.846A4.851,4.851,0,0,1,5507.238,1497.818Zm0-6.614a1.768,1.768,0,1,0,1.769,1.768A1.77,1.77,0,0,0,5507.238,1491.2Z" transform="translate(-5502.394 -1488.127)" fill="#231615"/>
      </g>
      <g id="Group_470" data-name="Group 470" transform="translate(5433.578 1004.322)">
        <circle id="Ellipse_14" data-name="Ellipse 14" cx="3.307" cy="3.307" r="3.307" transform="translate(1.539 1.539)" fill="#0561fc"/>
        <path id="Path_116" data-name="Path 116" d="M5578.8,1563.648a4.846,4.846,0,1,1,4.846-4.846A4.852,4.852,0,0,1,5578.8,1563.648Zm0-6.614a1.768,1.768,0,1,0,1.769,1.768A1.77,1.77,0,0,0,5578.8,1557.034Z" transform="translate(-5573.953 -1553.956)" fill="#231615"/>
      </g>
      <g id="Group_471" data-name="Group 471" transform="translate(5481.51 994.735)">
        <circle id="Ellipse_15" data-name="Ellipse 15" cx="3.307" cy="3.307" r="3.307" transform="translate(1.539 1.539)" fill="#0561fc"/>
        <path id="Path_117" data-name="Path 117" d="M6034.6,1472.478a4.846,4.846,0,1,1,4.846-4.845A4.852,4.852,0,0,1,6034.6,1472.478Zm0-6.614a1.768,1.768,0,1,0,1.769,1.768A1.77,1.77,0,0,0,6034.6,1465.864Z" transform="translate(-6029.757 -1462.786)" fill="#231615"/>
      </g>
      <g id="Group_472" data-name="Group 472" transform="translate(5488.124 984.338)">
        <circle id="Ellipse_16" data-name="Ellipse 16" cx="3.307" cy="3.307" r="3.307" transform="translate(1.539 1.539)" fill="#0561fc"/>
        <path id="Path_118" data-name="Path 118" d="M6097.5,1373.608a4.846,4.846,0,1,1,4.846-4.846A4.852,4.852,0,0,1,6097.5,1373.608Zm0-6.614a1.768,1.768,0,1,0,1.768,1.768A1.77,1.77,0,0,0,6097.5,1366.994Z" transform="translate(-6092.651 -1363.916)" fill="#231615"/>
      </g>
      <g id="Group_473" data-name="Group 473" transform="translate(5440.816 965.431)">
        <circle id="Ellipse_17" data-name="Ellipse 17" cx="3.307" cy="3.307" r="3.307" transform="translate(1.539 1.539)" fill="#eda756"/>
        <path id="Path_119" data-name="Path 119" d="M5647.63,1193.805a4.846,4.846,0,1,1,4.845-4.846A4.851,4.851,0,0,1,5647.63,1193.805Zm0-6.614a1.768,1.768,0,1,0,1.768,1.768A1.769,1.769,0,0,0,5647.63,1187.192Z" transform="translate(-5642.784 -1184.114)" fill="#231615"/>
      </g>
      <g id="Group_474" data-name="Group 474" transform="translate(5471.464 975.118)">
        <circle id="Ellipse_18" data-name="Ellipse 18" cx="3.307" cy="3.307" r="3.307" transform="translate(1.539 1.539)" fill="#eda756"/>
        <path id="Path_120" data-name="Path 120" d="M5939.071,1285.93a4.846,4.846,0,1,1,4.846-4.846A4.851,4.851,0,0,1,5939.071,1285.93Zm0-6.614a1.768,1.768,0,1,0,1.768,1.768A1.77,1.77,0,0,0,5939.071,1279.316Z" transform="translate(-5934.226 -1276.238)" fill="#231615"/>
      </g>
    </g>
  </g>
</svg>
