<svg xmlns="http://www.w3.org/2000/svg" width="384" height="262.452" viewBox="0 0 384 262.452">
  <g id="Group_8835" data-name="Group 8835" transform="translate(-1752.057 -8505.451)">
    <g id="Group_999" data-name="Group 999" transform="translate(1766.703 8762.487)">
      <path id="Path_593" data-name="Path 593" d="M2143.045,8885.118H1773.691v5.416h369.354Z" transform="translate(-1773.691 -8885.118)" fill="#231615"/>
    </g>
    <g id="Group_1040" data-name="Group 1040" transform="translate(2010.249 8561.866)">
      <g id="Group_1008" data-name="Group 1008" transform="translate(0 0)">
        <g id="Group_1000" data-name="Group 1000" transform="translate(26.621 19.063)">
          <path id="Path_594" data-name="Path 594" d="M2223.835,8616.939s-5.694,12.395-9.526,17.63-7.48,10.242-10.537,24.774-2.533,15.991-3.369,19.746-6.281,18.959-6.313,21.748-11,18.662-13.815,26.093-7.79,18.042-7.51,23.445l1.251-.317a58.139,58.139,0,0,1,9.693-25.332c8.674-12.733,7.434-15.137,17.284-21.678s16.213-24.609,16.213-24.609,10.02-19.626,9.553-29.83S2228.953,8629.206,2223.835,8616.939Z" transform="translate(-2172.753 -8616.939)" fill="#256653"/>
        </g>
        <g id="Group_1001" data-name="Group 1001" transform="translate(19.839)">
          <path id="Path_595" data-name="Path 595" d="M2207.265,8588.782s-.331,8.141-2.958,12.978-4.889,7.774-5.365,13.008-2.126,18.725-9.449,25.311-8.259,26.321-13.833,32.292-6.3,10.26-5.274,20.5,4.526,24.43-3.56,42.951l-1.827-4.606s5.785-15.238,4.385-24.16-6.274-22.4-4.49-28.87-4.849-7.729-.855-17.507,2.353-13.178,7.791-21.634c0,0,.558-.395,1.987-7.549s12.954-20.267,18.265-24.741S2205.045,8595.107,2207.265,8588.782Z" transform="translate(-2162.735 -8588.782)" fill="#256653"/>
        </g>
        <g id="Group_1002" data-name="Group 1002" transform="translate(24.31 40.312)">
          <path id="Path_596" data-name="Path 596" d="M2187.767,8648.327s-6.36,10.889-6.451,17.9.669,12.71-2.549,22.306,3.169,15.665,1.329,20.963-1.983,11.572-1.927,16.33-7.286,20.5-8.4,28.475.31,8,.31,8,1.217-10.525,2.906-14.006,6.825-15.479,8.024-20.122,4.452-7.622,7.257-15.484,6.794-14.483,6.489-25.64S2198.939,8664.113,2187.767,8648.327Z" transform="translate(-2169.339 -8648.327)" fill="#3c8f7c"/>
        </g>
        <g id="Group_1003" data-name="Group 1003" transform="translate(28.306 93.535)">
          <path id="Path_597" data-name="Path 597" d="M2176.209,8780.381s2.966-13.818,15.472-15.2,19.853,1.092,28.687-9,13.967-26.119,16.789-28.877c0,0-4.439-2.283-11.819,4.617s-12.564,12.133-16.836,16.15-7.742,1.4-12.252,4.047c-3.781,2.219-8.669,8.633-10.822,11.992a15.169,15.169,0,0,1-2.481,2.973c-.867.8-1.9,1.779-2.561,2.5-1.324,1.441-5.143,10.848-5.143,10.848Z" transform="translate(-2175.242 -8726.94)" fill="#3c8f7c"/>
        </g>
        <g id="Group_1004" data-name="Group 1004" transform="translate(0 70.092)">
          <path id="Path_598" data-name="Path 598" d="M2158.3,8766.759s4.408-16.9,1.456-25.171-12.194-14.39-11.823-19.585,6.305-19.236,1.467-29.689c0,0-1.837,9.325-3.651,11.4s-14.259,10.439-12.052,21.486,14.3,13.631,17.285,16.882,7,3.249,7.027,5.412.811,10.024-.526,17.783Z" transform="translate(-2133.431 -8692.313)" fill="#3c8f7c"/>
        </g>
        <g id="Group_1005" data-name="Group 1005" transform="translate(24.31 40.312)">
          <path id="Path_599" data-name="Path 599" d="M2174.714,8741.242l6.191-17.837s3.637-14.345,5.746-26.308,1.116-48.771,1.116-48.771-6.36,10.889-6.451,17.9.669,12.71-2.549,22.306,3.169,15.665,1.329,20.963-1.983,11.572-1.927,16.33-7.286,20.5-8.4,28.475c-.612,4.367-.46,6.348-.2,7.247C2168.575,8754.571,2174.714,8741.242,2174.714,8741.242Z" transform="translate(-2169.339 -8648.327)" fill="#327f6b"/>
        </g>
        <g id="Group_1006" data-name="Group 1006" transform="translate(28.306 93.897)">
          <path id="Path_600" data-name="Path 600" d="M2207.119,8756.182c-5.524,1.1-10.462.727-17.02,5.608a54.838,54.838,0,0,0-10.414,10.093s-2.948,5.266-4.165,8.044c-.176.424-.279.678-.279.678l.967-.051s2.966-13.818,15.472-15.2,19.853,1.094,28.687-9,13.967-26.118,16.789-28.876c0,0-9.4,7.311-15.2,13.78S2212.643,8755.079,2207.119,8756.182Z" transform="translate(-2175.242 -8727.477)" fill="#327f6b"/>
        </g>
        <g id="Group_1007" data-name="Group 1007" transform="translate(0 70.092)">
          <path id="Path_601" data-name="Path 601" d="M2145.745,8703.713c-1.813,2.074-14.259,10.439-12.052,21.487s14.3,13.63,17.285,16.881,7,3.249,7.027,5.412.811,10.024-.526,17.783l.358.646a99.137,99.137,0,0,0,1.855-11.141c.48-5.686-.441-8.04-2.269-12.646s-13.185-13.989-16.03-18.922,5.487-13.179,7.337-17.16.667-13.74.667-13.74S2147.558,8701.639,2145.745,8703.713Z" transform="translate(-2133.431 -8692.313)" fill="#327f6b"/>
        </g>
      </g>
      <g id="Group_1039" data-name="Group 1039" transform="translate(6.832 127.479)">
        <g id="Group_1009" data-name="Group 1009" transform="translate(13.743)">
          <path id="Path_602" data-name="Path 602" d="M2185.084,8785.973l1.944-4.7a6.633,6.633,0,0,1,8.621-3.686h0c8.2,3.576,11.762,13.537,7.96,22.246l-2.779,6.366a7.991,7.991,0,0,0,.848,8.021,7.061,7.061,0,0,1,.7,7.064l-1.465,3.356a13.345,13.345,0,0,1-8.333,7.436,8.094,8.094,0,0,0-5.031,4.548l-2.075,4.751c-2.293,5.254-8.162,7.764-13.108,5.6l-2.822-1.231c-4.946-2.159-7.1-8.169-4.8-13.424h0c3.709-6.281,3.414-10.97,2.1-14.15a19.022,19.022,0,0,1,.181-14.845l.293-.672a18.891,18.891,0,0,1,11.541-10.445C2181.1,8791.5,2183.43,8789.76,2185.084,8785.973Z" transform="translate(-2163.823 -8777.08)" fill="#50bfa5"/>
        </g>
        <g id="Group_1010" data-name="Group 1010" transform="translate(0 25.068)">
          <path id="Path_603" data-name="Path 603" d="M2143.523,8864.283c3.978-5.159,25.793-32.79,40.017-37.395,15.7-5.082.9,15.1.9,15.1s27.853-30.457,38.074-27.71c9.369,2.516,0,21.395,0,21.395s10.552-10.453,23.349-10.453c12.454,0-8.7,37.074-9.842,39.059Z" transform="translate(-2143.523 -8814.108)" fill="#96d9c9"/>
        </g>
        <g id="Group_1028" data-name="Group 1028" transform="translate(58.724 0.323)">
          <g id="Group_1012" data-name="Group 1012" transform="translate(0 4.794)">
            <g id="Group_1011" data-name="Group 1011">
              <path id="Path_604" data-name="Path 604" d="M2255.478,8794.989a183.559,183.559,0,0,0-24.434,58.49l-.78-.208a184.715,184.715,0,0,1,24.34-58c2.641-4.126,5.491-9.021,10.435-10.631.1-.03.132.114.041.147C2260.564,8786.492,2257.948,8791.131,2255.478,8794.989Z" transform="translate(-2230.264 -8784.639)" fill="#3c8f7c"/>
            </g>
          </g>
          <g id="Group_1014" data-name="Group 1014" transform="translate(3.524 27.162)">
            <g id="Group_1013" data-name="Group 1013">
              <path id="Path_605" data-name="Path 605" d="M2235.469,8864.888a229.329,229.329,0,0,1,46.559-47.177c.183-.138.431.182.246.324a229.1,229.1,0,0,0-45.839,47.111Z" transform="translate(-2235.469 -8817.677)" fill="#3c8f7c"/>
            </g>
          </g>
          <g id="Group_1015" data-name="Group 1015" transform="translate(25.394 0.516)">
            <path id="Path_606" data-name="Path 606" d="M2268.634,8781.927a8.094,8.094,0,0,1,1.743,3.03,6.25,6.25,0,0,1,.056,3.093,6.756,6.756,0,0,0,1.729-2.993c.559-1.783.167-4.255-.527-5.074-1.2-1.853-3.3-2.04-3.707-1.142C2267.5,8779.732,2268.044,8780.946,2268.634,8781.927Z" transform="translate(-2267.773 -8778.318)" fill="#3c8f7c"/>
          </g>
          <g id="Group_1016" data-name="Group 1016" transform="translate(22.889 16.167)">
            <path id="Path_607" data-name="Path 607" d="M2270.161,8805.259a8.085,8.085,0,0,0-3-1.8,6.241,6.241,0,0,0-3.091-.116,6.744,6.744,0,0,1,3.026-1.671c1.793-.522,4.257-.083,5.063.629,1.828,1.235,1.974,3.337,1.068,3.727C2272.331,8806.438,2271.129,8805.866,2270.161,8805.259Z" transform="translate(-2264.073 -8801.438)" fill="#3c8f7c"/>
          </g>
          <g id="Group_1017" data-name="Group 1017" transform="translate(18.781 23.121)">
            <path id="Path_608" data-name="Path 608" d="M2264.092,8815.527a8.119,8.119,0,0,0-3-1.8,6.27,6.27,0,0,0-3.09-.117,6.757,6.757,0,0,1,3.025-1.67c1.793-.521,4.258-.082,5.063.629,1.827,1.236,1.974,3.338,1.068,3.729C2266.263,8816.708,2265.06,8816.136,2264.092,8815.527Z" transform="translate(-2258.005 -8811.708)" fill="#3c8f7c"/>
          </g>
          <g id="Group_1018" data-name="Group 1018" transform="translate(33.435 39.248)">
            <path id="Path_609" data-name="Path 609" d="M2285.739,8839.35a8.094,8.094,0,0,0-3-1.8,6.26,6.26,0,0,0-3.091-.117,6.754,6.754,0,0,1,3.025-1.67c1.793-.523,4.258-.084,5.063.627,1.828,1.237,1.974,3.339,1.068,3.729C2287.909,8840.53,2286.707,8839.959,2285.739,8839.35Z" transform="translate(-2279.651 -8835.53)" fill="#3c8f7c"/>
          </g>
          <g id="Group_1019" data-name="Group 1019" transform="translate(40.922 32.652)">
            <path id="Path_610" data-name="Path 610" d="M2296.8,8829.606a8.116,8.116,0,0,0-3-1.8,6.248,6.248,0,0,0-3.091-.115,6.737,6.737,0,0,1,3.026-1.67c1.794-.523,4.258-.083,5.063.627,1.828,1.238,1.974,3.339,1.069,3.729C2298.968,8830.787,2297.766,8830.214,2296.8,8829.606Z" transform="translate(-2290.71 -8825.787)" fill="#3c8f7c"/>
          </g>
          <g id="Group_1020" data-name="Group 1020" transform="translate(19.259 8.349)">
            <path id="Path_611" data-name="Path 611" d="M2259.958,8793.53a8.1,8.1,0,0,1,2.2,2.719,6.251,6.251,0,0,1,.542,3.045,6.736,6.736,0,0,0,1.236-3.229c.271-1.848-.506-4.229-1.322-4.928-1.478-1.639-3.578-1.494-3.84-.543C2258.488,8791.544,2259.222,8792.655,2259.958,8793.53Z" transform="translate(-2258.711 -8789.89)" fill="#3c8f7c"/>
          </g>
          <g id="Group_1021" data-name="Group 1021" transform="translate(12.538 15.539)">
            <path id="Path_612" data-name="Path 612" d="M2250.71,8804.847c.508.27,2.284.759,3.178,2.088a5.39,5.39,0,0,1,1.073,3.165,8.939,8.939,0,0,0,1.207-4.134c.126-2.18-1.168-4.5-2.309-4.932-2.112-1.194-4.814-.13-5.036,1.044C2248.567,8803.26,2249.651,8804.187,2250.71,8804.847Z" transform="translate(-2248.784 -8800.511)" fill="#3c8f7c"/>
          </g>
          <g id="Group_1022" data-name="Group 1022" transform="translate(5.777 27.296)">
            <path id="Path_613" data-name="Path 613" d="M2241.125,8822.4c.547.18,2.38.363,3.484,1.523a5.392,5.392,0,0,1,1.59,2.939,8.936,8.936,0,0,0,.495-4.277c-.242-2.17-1.908-4.24-3.105-4.475-2.283-.82-4.768.684-4.789,1.877C2238.746,8821.2,2239.971,8821.926,2241.125,8822.4Z" transform="translate(-2238.798 -8817.875)" fill="#3c8f7c"/>
          </g>
          <g id="Group_1023" data-name="Group 1023" transform="translate(25.489 36.665)">
            <path id="Path_614" data-name="Path 614" d="M2269.346,8835.188a5.756,5.756,0,0,1,2.466,1.879,4.391,4.391,0,0,1,.692,2.635,7.266,7.266,0,0,0,1.217-3.292c.227-1.767-.694-3.729-1.6-4.144-1.65-1.093-3.909-.38-4.156.563C2267.693,8833.774,2268.521,8834.59,2269.346,8835.188Z" transform="translate(-2267.914 -8831.714)" fill="#3c8f7c"/>
          </g>
          <g id="Group_1024" data-name="Group 1024" transform="translate(33.2 4.59)">
            <path id="Path_615" data-name="Path 615" d="M2282.82,8786.666a4.812,4.812,0,0,0-1.693-1.2,3.707,3.707,0,0,0-1.823-.2,4.017,4.017,0,0,1,1.863-.854,3.914,3.914,0,0,1,2.968.593c1.027.811,1.022,2.061.469,2.251C2284.053,8787.46,2283.366,8787.069,2282.82,8786.666Z" transform="translate(-2279.303 -8784.338)" fill="#3c8f7c"/>
          </g>
          <g id="Group_1025" data-name="Group 1025" transform="translate(33.397)">
            <path id="Path_616" data-name="Path 616" d="M2280.633,8779.4a4.8,4.8,0,0,1-.085,2.072,3.729,3.729,0,0,1-.951,1.569,4.016,4.016,0,0,0,1.814-.954,3.917,3.917,0,0,0,1.343-2.712c-.016-1.31-1.009-2.068-1.5-1.746S2280.648,8778.724,2280.633,8779.4Z" transform="translate(-2279.595 -8777.557)" fill="#3c8f7c"/>
          </g>
          <g id="Group_1026" data-name="Group 1026" transform="translate(48.884 27.424)">
            <path id="Path_617" data-name="Path 617" d="M2305.988,8820.394a4.787,4.787,0,0,0-1.693-1.2,3.721,3.721,0,0,0-1.823-.2,4,4,0,0,1,1.863-.856,3.924,3.924,0,0,1,2.967.593c1.027.813,1.022,2.061.469,2.253S2306.534,8820.8,2305.988,8820.394Z" transform="translate(-2302.471 -8818.065)" fill="#3c8f7c"/>
          </g>
          <g id="Group_1027" data-name="Group 1027" transform="translate(48.912 22.721)">
            <path id="Path_618" data-name="Path 618" d="M2303.249,8813.032a4.793,4.793,0,0,1,.085,2.071,3.687,3.687,0,0,1-.82,1.641,3.99,3.99,0,0,0,1.731-1.1,3.919,3.919,0,0,0,1.116-2.812c-.123-1.306-1.175-1.979-1.635-1.618S2303.208,8812.354,2303.249,8813.032Z" transform="translate(-2302.512 -8811.119)" fill="#3c8f7c"/>
          </g>
        </g>
        <g id="Group_1038" data-name="Group 1038" transform="translate(65.115 51.398)">
          <g id="Group_1030" data-name="Group 1030" transform="translate(0 6.543)">
            <g id="Group_1029" data-name="Group 1029">
              <path id="Path_619" data-name="Path 619" d="M2281.047,8862.758c-11.621,1.273-22.442,6.4-32.861,11.405-7.025,3.373-6.671,4.334-8.1,4.836a.288.288,0,0,1-.351-.394c.551-1.091,1.994-1.828,3-2.455a39.052,39.052,0,0,1,3.63-1.978c2.652-1.287,5.372-2.446,8.075-3.621a117.454,117.454,0,0,1,16.9-6.158,59.391,59.391,0,0,1,9.706-1.729.047.047,0,0,1,.008.094Z" transform="translate(-2239.703 -8862.664)" fill="#3c8f7c"/>
            </g>
          </g>
          <g id="Group_1031" data-name="Group 1031" transform="translate(29.959)">
            <path id="Path_620" data-name="Path 620" d="M2284.867,8856.034a7.484,7.484,0,0,1,.266,3.229,5.783,5.783,0,0,1-1.173,2.614,6.254,6.254,0,0,0,2.63-1.826,6.119,6.119,0,0,0,1.56-4.461c-.276-2.026-1.96-3.011-2.656-2.42C2284.779,8853.747,2284.76,8854.981,2284.867,8856.034Z" transform="translate(-2283.956 -8853)" fill="#3c8f7c"/>
          </g>
          <g id="Group_1032" data-name="Group 1032" transform="translate(19.723 3.665)">
            <path id="Path_621" data-name="Path 621" d="M2269.747,8861.448a7.5,7.5,0,0,1,.265,3.229,5.769,5.769,0,0,1-1.173,2.613,6.246,6.246,0,0,0,2.63-1.825,6.117,6.117,0,0,0,1.56-4.461c-.276-2.025-1.96-3.011-2.656-2.42C2269.658,8859.16,2269.639,8860.395,2269.747,8861.448Z" transform="translate(-2268.835 -8858.414)" fill="#3c8f7c"/>
          </g>
          <g id="Group_1033" data-name="Group 1033" transform="translate(9.321 8.302)">
            <path id="Path_622" data-name="Path 622" d="M2254.382,8868.3a7.5,7.5,0,0,1,.266,3.228,5.772,5.772,0,0,1-1.173,2.613,6.246,6.246,0,0,0,2.63-1.825,6.119,6.119,0,0,0,1.56-4.461c-.276-2.026-1.961-3.012-2.656-2.419C2254.294,8866.01,2254.275,8867.244,2254.382,8868.3Z" transform="translate(-2253.471 -8865.263)" fill="#3c8f7c"/>
          </g>
          <g id="Group_1034" data-name="Group 1034" transform="translate(29.995 8.531)">
            <path id="Path_623" data-name="Path 623" d="M2287.94,8869.669a6.947,6.947,0,0,0-1.606-2.526,5.336,5.336,0,0,0-2.323-1.271,5.773,5.773,0,0,1,2.957-.123,5.655,5.655,0,0,1,3.64,2.418c.927,1.646.236,3.313-.607,3.265C2289.152,8871.4,2288.45,8870.506,2287.94,8869.669Z" transform="translate(-2284.01 -8865.601)" fill="#3c8f7c"/>
          </g>
          <g id="Group_1035" data-name="Group 1035" transform="translate(19.347 12.3)">
            <path id="Path_624" data-name="Path 624" d="M2272.212,8875.235a6.931,6.931,0,0,0-1.606-2.526,5.337,5.337,0,0,0-2.324-1.271,5.775,5.775,0,0,1,2.958-.123,5.655,5.655,0,0,1,3.639,2.418c.927,1.646.237,3.313-.607,3.264C2273.424,8876.971,2272.722,8876.071,2272.212,8875.235Z" transform="translate(-2268.281 -8871.167)" fill="#3c8f7c"/>
          </g>
          <g id="Group_1036" data-name="Group 1036" transform="translate(39.065 6.383)">
            <path id="Path_625" data-name="Path 625" d="M2300.377,8864.765a4.439,4.439,0,0,0-1.342-1.376,3.424,3.424,0,0,0-1.627-.491,3.719,3.719,0,0,1,1.841-.468,3.623,3.623,0,0,1,2.6,1.038c.8.91.586,2.048.05,2.13S2300.807,8865.222,2300.377,8864.765Z" transform="translate(-2297.407 -8862.427)" fill="#3c8f7c"/>
          </g>
          <g id="Group_1037" data-name="Group 1037" transform="translate(39.251 2.172)">
            <path id="Path_626" data-name="Path 626" d="M2299.237,8857.75a4.45,4.45,0,0,1-.424,1.873,3.409,3.409,0,0,1-1.13,1.27,3.672,3.672,0,0,0,1.814-.563,3.631,3.631,0,0,0,1.677-2.247c.205-1.2-.573-2.052-1.072-1.841S2299.364,8857.135,2299.237,8857.75Z" transform="translate(-2297.681 -8856.209)" fill="#3c8f7c"/>
          </g>
        </g>
      </g>
    </g>
    <g id="Group_1055" data-name="Group 1055" transform="translate(1783.605 8599.008)">
      <g id="Group_1042" data-name="Group 1042" transform="translate(10.882 10.543)">
        <g id="Group_1041" data-name="Group 1041">
          <path id="Path_627" data-name="Path 627" d="M1843.972,8726c-13.654-12.175-20.675-29.661-24.16-42.185a124.8,124.8,0,0,1-4.34-24.555l-.742-.046a125.648,125.648,0,0,0,4.365,24.727c3.518,12.647,10.613,30.312,24.436,42.637Z" transform="translate(-1814.729 -8659.217)" fill="#3c8f7c"/>
        </g>
      </g>
      <g id="Group_1044" data-name="Group 1044" transform="translate(6.879)">
        <g id="Group_1043" data-name="Group 1043">
          <path id="Path_628" data-name="Path 628" d="M1815.118,8651.085a10.716,10.716,0,0,1-1.326,8.224,12.554,12.554,0,0,1-4.692-7.44,10.716,10.716,0,0,1,1.325-8.224A12.546,12.546,0,0,1,1815.118,8651.085Z" transform="translate(-1808.818 -8643.645)" fill="#3c8f7c"/>
        </g>
      </g>
      <g id="Group_1046" data-name="Group 1046" transform="translate(1.215 13.227)">
        <g id="Group_1045" data-name="Group 1045">
          <path id="Path_629" data-name="Path 629" d="M1808.227,8666.31a12.525,12.525,0,0,1,3.993,7.833,10.9,10.9,0,0,1-7.776-3.121,12.514,12.514,0,0,1-3.994-7.831A10.9,10.9,0,0,1,1808.227,8666.31Z" transform="translate(-1800.451 -8663.182)" fill="#3c8f7c"/>
        </g>
      </g>
      <g id="Group_1048" data-name="Group 1048" transform="translate(0 25.224)">
        <g id="Group_1047" data-name="Group 1047">
          <path id="Path_630" data-name="Path 630" d="M1806.543,8681.4a11.985,11.985,0,0,1,6.74,5.427,9.339,9.339,0,0,1-7.888.838,11.988,11.988,0,0,1-6.74-5.426A9.337,9.337,0,0,1,1806.543,8681.4Z" transform="translate(-1798.656 -8680.901)" fill="#3c8f7c"/>
        </g>
      </g>
      <g id="Group_1050" data-name="Group 1050" transform="translate(6.019 36.669)">
        <g id="Group_1049" data-name="Group 1049">
          <path id="Path_631" data-name="Path 631" d="M1813.918,8698.128a8.784,8.784,0,0,1,5.215,4.956,6.624,6.624,0,0,1-6.37,1.3,8.784,8.784,0,0,1-5.216-4.958A6.624,6.624,0,0,1,1813.918,8698.128Z" transform="translate(-1807.547 -8697.808)" fill="#3c8f7c"/>
        </g>
      </g>
      <g id="Group_1052" data-name="Group 1052" transform="translate(13.785 18.496)">
        <g id="Group_1051" data-name="Group 1051">
          <path id="Path_632" data-name="Path 632" d="M1821.577,8673.377a8,8,0,0,1,6.572-2.367,8.982,8.982,0,0,1-2.545,6.814,8.013,8.013,0,0,1-6.573,2.365A8.976,8.976,0,0,1,1821.577,8673.377Z" transform="translate(-1819.018 -8670.964)" fill="#3c8f7c"/>
        </g>
      </g>
      <g id="Group_1054" data-name="Group 1054" transform="translate(15.897 26.57)">
        <g id="Group_1053" data-name="Group 1053">
          <path id="Path_633" data-name="Path 633" d="M1824.7,8685.3a8.007,8.007,0,0,1,6.573-2.366,8.981,8.981,0,0,1-2.546,6.814,8.008,8.008,0,0,1-6.573,2.364A8.98,8.98,0,0,1,1824.7,8685.3Z" transform="translate(-1822.138 -8682.891)" fill="#3c8f7c"/>
        </g>
      </g>
    </g>
    <g id="Group_1070" data-name="Group 1070" transform="translate(1767.437 8660.036)">
      <g id="Group_1057" data-name="Group 1057" transform="translate(5.437 4.951)">
        <g id="Group_1056" data-name="Group 1056">
          <path id="Path_634" data-name="Path 634" d="M1825.432,8768.961c-12.609-1.839-23.4-9.308-30.231-15.251a86.872,86.872,0,0,1-11.945-12.608l-.449.258a87.425,87.425,0,0,0,12.026,12.7c6.9,6,17.8,13.548,30.566,15.408Z" transform="translate(-1782.806 -8741.102)" fill="#50bfa5"/>
        </g>
      </g>
      <g id="Group_1059" data-name="Group 1059">
        <g id="Group_1058" data-name="Group 1058">
          <path id="Path_635" data-name="Path 635" d="M1780.358,8736.313a7.461,7.461,0,0,1,2.385,5.287,8.724,8.724,0,0,1-5.582-2.523,7.467,7.467,0,0,1-2.385-5.289A8.748,8.748,0,0,1,1780.358,8736.313Z" transform="translate(-1774.775 -8733.787)" fill="#50bfa5"/>
        </g>
      </g>
      <g id="Group_1061" data-name="Group 1061" transform="translate(0.852 9.19)">
        <g id="Group_1060" data-name="Group 1060">
          <path id="Path_636" data-name="Path 636" d="M1781.75,8747.487a8.726,8.726,0,0,1,5.327,3.019,7.591,7.591,0,0,1-5.717,1.172,8.728,8.728,0,0,1-5.327-3.021A7.586,7.586,0,0,1,1781.75,8747.487Z" transform="translate(-1776.033 -8747.363)" fill="#50bfa5"/>
        </g>
      </g>
      <g id="Group_1063" data-name="Group 1063" transform="translate(5.257 14.867)">
        <g id="Group_1062" data-name="Group 1062">
          <path id="Path_637" data-name="Path 637" d="M1786.8,8756.062a8.361,8.361,0,0,1,6,.567,6.5,6.5,0,0,1-4.264,3.515,8.342,8.342,0,0,1-6-.568A6.507,6.507,0,0,1,1786.8,8756.062Z" transform="translate(-1782.54 -8755.747)" fill="#50bfa5"/>
        </g>
      </g>
      <g id="Group_1065" data-name="Group 1065" transform="translate(13.259 19.806)">
        <g id="Group_1064" data-name="Group 1064">
          <path id="Path_638" data-name="Path 638" d="M1797.563,8763.24a6.127,6.127,0,0,1,4.935.881,4.619,4.619,0,0,1-3.2,3.2,6.119,6.119,0,0,1-4.935-.881A4.619,4.619,0,0,1,1797.563,8763.24Z" transform="translate(-1794.359 -8763.043)" fill="#50bfa5"/>
        </g>
      </g>
      <g id="Group_1067" data-name="Group 1067" transform="translate(12.472 5.242)">
        <g id="Group_1066" data-name="Group 1066">
          <path id="Path_639" data-name="Path 639" d="M1793.315,8745.427a5.58,5.58,0,0,1,2.913-3.9,6.254,6.254,0,0,1,1.135,4.938,5.574,5.574,0,0,1-2.913,3.9A6.252,6.252,0,0,1,1793.315,8745.427Z" transform="translate(-1793.197 -8741.529)" fill="#50bfa5"/>
        </g>
      </g>
      <g id="Group_1069" data-name="Group 1069" transform="translate(16.798 9.124)">
        <g id="Group_1068" data-name="Group 1068">
          <path id="Path_640" data-name="Path 640" d="M1799.706,8751.163a5.578,5.578,0,0,1,2.913-3.9,6.253,6.253,0,0,1,1.135,4.937,5.579,5.579,0,0,1-2.913,3.9A6.255,6.255,0,0,1,1799.706,8751.163Z" transform="translate(-1799.588 -8747.266)" fill="#50bfa5"/>
        </g>
      </g>
    </g>
    <g id="Group_1087" data-name="Group 1087" transform="translate(1752.057 8717.279)">
      <g id="Group_1072" data-name="Group 1072" transform="translate(8.941 3.64)">
        <g id="Group_1071" data-name="Group 1071">
          <path id="Path_641" data-name="Path 641" d="M1827.358,8833.383c-14.545,5.521-30.555,2.605-41.426-.812a103.859,103.859,0,0,1-20.346-8.852l-.322.617a104.687,104.687,0,0,0,20.486,8.916c10.977,3.455,27.153,6.4,41.877.809Z" transform="translate(-1765.264 -8823.719)" fill="#96d9c9"/>
        </g>
      </g>
      <g id="Group_1074" data-name="Group 1074" transform="translate(0 0)">
        <g id="Group_1073" data-name="Group 1073">
          <path id="Path_642" data-name="Path 642" d="M1759.531,8819.027a10.5,10.5,0,0,1,5.736,5.358,9.14,9.14,0,0,1-7.473.229,10.51,10.51,0,0,1-5.737-5.359A9.138,9.138,0,0,1,1759.531,8819.027Z" transform="translate(-1752.057 -8818.342)" fill="#96d9c9"/>
        </g>
      </g>
      <g id="Group_1076" data-name="Group 1076" transform="translate(7.243 8.334)">
        <g id="Group_1075" data-name="Group 1075">
          <path id="Path_643" data-name="Path 643" d="M1768.14,8831.183a9.3,9.3,0,0,1,7.5.574,8.935,8.935,0,0,1-5.384,5.1,9.313,9.313,0,0,1-7.5-.574A8.936,8.936,0,0,1,1768.14,8831.183Z" transform="translate(-1762.756 -8830.65)" fill="#96d9c9"/>
        </g>
      </g>
      <g id="Group_1078" data-name="Group 1078" transform="translate(16.865 11.592)">
        <g id="Group_1077" data-name="Group 1077">
          <path id="Path_644" data-name="Path 644" d="M1779.422,8838.49a8.831,8.831,0,0,1,6.736-3.025,9.649,9.649,0,0,1-2.419,7.226,8.822,8.822,0,0,1-6.736,3.025A9.648,9.648,0,0,1,1779.422,8838.49Z" transform="translate(-1776.968 -8835.464)" fill="#96d9c9"/>
        </g>
      </g>
      <g id="Group_1080" data-name="Group 1080" transform="translate(26.227 14.564)">
        <g id="Group_1079" data-name="Group 1079">
          <path id="Path_645" data-name="Path 645" d="M1793.25,8842.88a8.821,8.821,0,0,1,6.736-3.024,9.647,9.647,0,0,1-2.42,7.225,8.823,8.823,0,0,1-6.736,3.023A9.648,9.648,0,0,1,1793.25,8842.88Z" transform="translate(-1790.796 -8839.854)" fill="#96d9c9"/>
        </g>
      </g>
      <g id="Group_1082" data-name="Group 1082" transform="translate(17.69 1.076)">
        <g id="Group_1081" data-name="Group 1081">
          <path id="Path_646" data-name="Path 646" d="M1780.369,8826.845a10.262,10.262,0,0,1-2.157-6.915,8.916,8.916,0,0,1,5.9,3.577,10.264,10.264,0,0,1,2.158,6.915A8.911,8.911,0,0,1,1780.369,8826.845Z" transform="translate(-1778.187 -8819.93)" fill="#96d9c9"/>
        </g>
      </g>
      <g id="Group_1084" data-name="Group 1084" transform="translate(27.319 4.145)">
        <g id="Group_1083" data-name="Group 1083">
          <path id="Path_647" data-name="Path 647" d="M1794.688,8831.354a10.306,10.306,0,0,1-2.264-6.891,8.87,8.87,0,0,1,5.945,3.479,10.31,10.31,0,0,1,2.265,6.891A8.874,8.874,0,0,1,1794.688,8831.354Z" transform="translate(-1792.409 -8824.464)" fill="#96d9c9"/>
        </g>
      </g>
      <g id="Group_1086" data-name="Group 1086" transform="translate(40.705 16.24)">
        <g id="Group_1085" data-name="Group 1085">
          <path id="Path_648" data-name="Path 648" d="M1812.462,8844.492a3.627,3.627,0,0,1,2.286-2.164,4.153,4.153,0,0,1,.133,3.3,3.619,3.619,0,0,1-2.286,2.163A4.153,4.153,0,0,1,1812.462,8844.492Z" transform="translate(-1812.183 -8842.328)" fill="#96d9c9"/>
        </g>
      </g>
    </g>
    <g id="Group_1088" data-name="Group 1088" transform="translate(1762.888 8634.441)">
      <path id="Path_649" data-name="Path 649" d="M1859.476,8825.063s18.532-73.29,12.386-80.653c-8.492-10.178-15.5,23.584-16.185,20.717-6.492-27.082-8.221-61.732-29.162-65.4-11.9-2.086,2.749,25.768,1.868,33.3s-22.334-17.478-35.37-30.579-19.769-4.809-11.532,11.669c7.965,15.932,33.731,33.341,28.42,35.407s-37.555-18.509-41.5-9.715c-4.841,10.785,43.527,25.461,38.972,27.883s-27.672-5.555-27.04,2.69,31.708,7.94,31.176,11.567c-.86,5.873-21.413-7.421-22.317.706-.924,8.312,27.04,6.8,26.556,13.279-.278,3.726-6.279-1.895-7.163,3.267-2.016,11.767,34.848,26.1,34.848,26.1Z" transform="translate(-1768.055 -8695.982)" fill="#3c8f7c"/>
    </g>
    <g id="Group_1091" data-name="Group 1091" transform="translate(1795.979 8724.237)">
      <g id="Group_1089" data-name="Group 1089" transform="translate(0 0.314)">
        <path id="Path_650" data-name="Path 650" d="M1889.394,8868.5s-17.636-27.04-26.123-32.146c-9.042-5.439-2.158,10.847-2.158,10.847s-18.478-21.988-23.615-17.521-.475,9.642-.475,9.642-16.589-4.916-19.571,1.174c-4.582,9.355,22.73,17.115,22.73,17.115s-11.725-.124-9.568,6.193C1833.868,8873.333,1889.394,8868.5,1889.394,8868.5Z" transform="translate(-1816.934 -8829.083)" fill="#50bfa5"/>
      </g>
      <g id="Group_1090" data-name="Group 1090" transform="translate(0.518)">
        <path id="Path_651" data-name="Path 651" d="M1817.7,8840.348c2.982-6.091,19.571-1.174,19.571-1.174s-4.663-5.174.475-9.642,19.919,8.9,19.919,8.9-1.55-11.028,9.582-1.312c7.951,6.939,22.4,31.228,22.4,31.228Z" transform="translate(-1817.699 -8828.618)" fill="#96d9c9"/>
      </g>
    </g>
    <g id="Group_1111" data-name="Group 1111" transform="translate(1809.633 8581.172)">
      <g id="Group_1110" data-name="Group 1110" transform="translate(0 0)">
        <g id="Group_1093" data-name="Group 1093" transform="translate(16.922 14.813)">
          <g id="Group_1092" data-name="Group 1092">
            <path id="Path_652" data-name="Path 652" d="M1882.574,8739.271l.791-.541c-14.359-21.747-18.742-47.564-19.89-65.395a173.521,173.521,0,0,1,.964-33.873l-.981-.284a174.615,174.615,0,0,0-.976,34.086C1863.638,8691.245,1868.062,8717.292,1882.574,8739.271Z" transform="translate(-1862.098 -8639.179)" fill="#96d9c9"/>
          </g>
        </g>
        <g id="Group_1095" data-name="Group 1095" transform="translate(14.125)">
          <g id="Group_1094" data-name="Group 1094">
            <path id="Path_653" data-name="Path 653" d="M1865.93,8629.01c.032,4.368-1.484,7.979-3.9,10.146a19.467,19.467,0,0,1-4.06-11.711c-.031-4.368,1.484-7.98,3.9-10.147A19.466,19.466,0,0,1,1865.93,8629.01Z" transform="translate(-1857.966 -8617.298)" fill="#96d9c9"/>
          </g>
        </g>
        <g id="Group_1097" data-name="Group 1097" transform="translate(5.039 14.127)">
          <g id="Group_1096" data-name="Group 1096">
            <path id="Path_654" data-name="Path 654" d="M1853.818,8645.567a19.033,19.033,0,0,1,3.057,11.922,16.827,16.827,0,0,1-9.189-7.4,19.033,19.033,0,0,1-3.057-11.922A16.828,16.828,0,0,1,1853.818,8645.567Z" transform="translate(-1844.546 -8638.164)" fill="#96d9c9"/>
          </g>
        </g>
        <g id="Group_1099" data-name="Group 1099" transform="translate(0 30.613)">
          <g id="Group_1098" data-name="Group 1098">
            <path id="Path_655" data-name="Path 655" d="M1847.491,8665.164a19.114,19.114,0,0,1,7.238,9.967c-3.1.863-6.866.154-10.389-2.3a19.107,19.107,0,0,1-7.237-9.965C1840.2,8662.006,1843.968,8662.715,1847.491,8665.164Z" transform="translate(-1837.102 -8662.517)" fill="#96d9c9"/>
          </g>
        </g>
        <g id="Group_1101" data-name="Group 1101" transform="translate(10.599 52.87)">
          <g id="Group_1100" data-name="Group 1100">
            <path id="Path_656" data-name="Path 656" d="M1857.142,8696.264a7.977,7.977,0,0,1,3.3,3.969,5.13,5.13,0,0,1-4.384-.62,7.98,7.98,0,0,1-3.3-3.968A5.125,5.125,0,0,1,1857.142,8696.264Z" transform="translate(-1852.758 -8695.392)" fill="#96d9c9"/>
          </g>
        </g>
        <g id="Group_1103" data-name="Group 1103" transform="translate(11.848 60.457)">
          <g id="Group_1102" data-name="Group 1102">
            <path id="Path_657" data-name="Path 657" d="M1858.986,8707.471a7.972,7.972,0,0,1,3.3,3.968,5.126,5.126,0,0,1-4.384-.62,7.986,7.986,0,0,1-3.3-3.967A5.122,5.122,0,0,1,1858.986,8707.471Z" transform="translate(-1854.602 -8706.599)" fill="#96d9c9"/>
          </g>
        </g>
        <g id="Group_1105" data-name="Group 1105" transform="translate(17.472 29.384)">
          <g id="Group_1104" data-name="Group 1104">
            <path id="Path_658" data-name="Path 658" d="M1868.011,8661.937a9.953,9.953,0,0,1,9.1-.262,10.58,10.58,0,0,1-5.1,7.787,9.956,9.956,0,0,1-9.1.262A10.579,10.579,0,0,1,1868.011,8661.937Z" transform="translate(-1862.91 -8660.702)" fill="#96d9c9"/>
          </g>
        </g>
        <g id="Group_1107" data-name="Group 1107" transform="translate(18.039 40.814)">
          <g id="Group_1106" data-name="Group 1106">
            <path id="Path_659" data-name="Path 659" d="M1868.847,8678.818a9.954,9.954,0,0,1,9.1-.262,10.579,10.579,0,0,1-5.1,7.787,9.951,9.951,0,0,1-9.1.261A10.581,10.581,0,0,1,1868.847,8678.818Z" transform="translate(-1863.747 -8677.584)" fill="#96d9c9"/>
          </g>
        </g>
        <g id="Group_1109" data-name="Group 1109" transform="translate(19.257 57.604)">
          <g id="Group_1108" data-name="Group 1108">
            <path id="Path_660" data-name="Path 660" d="M1868.865,8703.187a6.48,6.48,0,0,1,5.925-.169,6.889,6.889,0,0,1-3.32,5.067,6.479,6.479,0,0,1-5.924.169A6.888,6.888,0,0,1,1868.865,8703.187Z" transform="translate(-1865.546 -8702.384)" fill="#96d9c9"/>
          </g>
        </g>
      </g>
    </g>
    <g id="Group_1115" data-name="Group 1115" transform="translate(2029.958 8686.289)">
      <g id="Group_1112" data-name="Group 1112" transform="translate(0 4.132)">
        <path id="Path_661" data-name="Path 661" d="M2167.409,8792.314a3.68,3.68,0,0,1,1.785.572,31.685,31.685,0,0,0,3.265-1.479s8.907-4.4,9.379-4.651l6.429-8.089,4.954,2.285s-7.23,8.6-7.688,8.979-13.229,4.856-14.339,5.289c0,0-1.12,1.024-1.844,1.642a7.692,7.692,0,0,1-1.925,1,8.228,8.228,0,0,1-1.963.688c-.974.211-.163-.449-.163-.449s1.722-.727,1.637-.858c-.065-.1-.98.353-2.055.6-.276.064-.548.125-.8.179-.66.144-.949-.233-.286-.5a6.4,6.4,0,0,1,.922-.3,5.4,5.4,0,0,0,.846-.333,6.939,6.939,0,0,0,.869-.349c-.027-.022.046-.136-.25-.079a15.856,15.856,0,0,1-1.6.449c-.3.034-.926.146-.926.146s-1.105.105-1.112-.05c-.016-.339.664-.526,1.082-.519a4.29,4.29,0,0,1,.924-.23s1.281-.508,1.207-.7a9.089,9.089,0,0,0-1.628.1c-.871.06-1.5.06-1.548-.108-.073-.269.619-.368.619-.368s.611-.091.811-.136c.234-.054.922-.269.922-.269s2.357-.865,2.272-1.041-.474-.537-.64-.536-.463.167-.63.167-.524-.03-.548-.239.9-.644.9-.644A2.63,2.63,0,0,1,2167.409,8792.314Z" transform="translate(-2162.544 -8778.668)" fill="#f8a492"/>
      </g>
      <g id="Group_1113" data-name="Group 1113" transform="translate(21.25)">
        <path id="Path_662" data-name="Path 662" d="M2193.932,8781.706s1.6,1.457,2.271,1.936c.555.4,3.257,1.7,3.257,1.7s2.689-4.117,3.864-6.183c1.427-2.5,2.414-6.229,2.077-6.33a4.936,4.936,0,0,0-3.45.095C2197.791,8774.835,2193.932,8781.706,2193.932,8781.706Z" transform="translate(-2193.932 -8772.564)" fill="#355389"/>
      </g>
      <g id="Group_1114" data-name="Group 1114" transform="translate(4.661 19.253)">
        <path id="Path_663" data-name="Path 663" d="M2171.192,8801.68a1.542,1.542,0,0,1-1.76-.677C2169.36,8801.778,2170.535,8802.163,2171.192,8801.68Z" transform="translate(-2169.428 -8801.003)" fill="#fe875e"/>
      </g>
    </g>
    <g id="Group_1116" data-name="Group 1116" transform="translate(1812.371 8667.326)">
      <path id="Path_664" data-name="Path 664" d="M1865.808,8754.566a14.582,14.582,0,0,0-1.321-7,5.9,5.9,0,0,0-5.267-3.013c-6.585-.009-7.423,8.729-11.614,12.1-1.281,1.03-2.713,1.869-3.925,2.979-4.475,4.1-2.46,11.692,1.65,15.288,2.851,2.5,7.333,3.913,10.848,1.962a11.092,11.092,0,0,0,4.219-4.563,62.6,62.6,0,0,0,3.318-8.474A31.743,31.743,0,0,0,1865.808,8754.566Z" transform="translate(-1841.146 -8744.556)" fill="#13375b"/>
    </g>
    <g id="Group_1117" data-name="Group 1117" transform="translate(1833.336 8682.805)">
      <path id="Path_665" data-name="Path 665" d="M1876.886,8773.563c-2.057-6.239-4.772-6.143-4.772-6.143l2.193,13.287c1.27-.348,2.924-1.121,4.193-1.479A57.087,57.087,0,0,0,1876.886,8773.563Z" transform="translate(-1872.114 -8767.42)" fill="#f7cc7f"/>
    </g>
    <g id="Group_1118" data-name="Group 1118" transform="translate(1835.53 8694.391)">
      <path id="Path_666" data-name="Path 666" d="M1888.327,8800.369l-7.519-5.736s-.756-5.352-1.769-10.1c-1.269.357-2.414,1.353-3.684,1.7l1.913,10.635,9.855,5.084,2.784,3.577.633-3.673Z" transform="translate(-1875.354 -8784.533)" fill="#f48c7f"/>
    </g>
    <g id="Group_1119" data-name="Group 1119" transform="translate(1834.393 8656.756)">
      <path id="Path_667" data-name="Path 667" d="M2014.534,8784.853a14.377,14.377,0,0,1-22.851,11.615l-.023-.013a8.7,8.7,0,0,0-5.23-1.347,8.544,8.544,0,0,0-3.933,1.3v41.356H1876.675V8731.942h41.417a8.535,8.535,0,0,1,1.237,3.835,8.7,8.7,0,0,1-1.345,5.23l-.013.022a14.377,14.377,0,1,0,23.129-.138.1.1,0,0,1-.011-.019,8.792,8.792,0,0,1-1.406-6.278,7.858,7.858,0,0,1,1-2.653H1982.5V8773.7a7.885,7.885,0,0,0,2.752,1.058,8.788,8.788,0,0,0,6.279-1.406c.008,0,.012,0,.018-.01a14.378,14.378,0,0,1,22.988,11.514Z" transform="translate(-1874.644 -8729.912)" fill="#a387bc"/>
      <path id="Path_668" data-name="Path 668" d="M1983.557,8838.825H1873.675V8728.942h44.586l.594.971a10.58,10.58,0,0,1,1.531,4.75,10.759,10.759,0,0,1-1.615,6.4l-.13.2a12.231,12.231,0,0,0-2.371,7.274,12.346,12.346,0,0,0,24.693,0,12.235,12.235,0,0,0-2.457-7.394l-.132-.2a10.858,10.858,0,0,1-1.657-7.684,9.862,9.862,0,0,1,1.253-3.33l.591-.989h45v42.539a5.835,5.835,0,0,0,1.08.307,6.766,6.766,0,0,0,4.8-1.1l0,0a16.408,16.408,0,1,1,.142,26.5,6.66,6.66,0,0,0-3.976-1.021,6.443,6.443,0,0,0-2.046.5Zm-105.82-4.062H1979.5v-40.447l.949-.6a10.618,10.618,0,0,1,4.87-1.605,10.742,10.742,0,0,1,6.373,1.6l.225.148a12.347,12.347,0,1,0-.119-19.865l-.214.144a10.859,10.859,0,0,1-7.665,1.646,9.938,9.938,0,0,1-3.448-1.324l-.971-.595V8733H1940.98a5.728,5.728,0,0,0-.267.979,6.773,6.773,0,0,0,1.1,4.794,16.409,16.409,0,1,1-26.491.144,6.665,6.665,0,0,0,1.016-3.97,6.438,6.438,0,0,0-.454-1.947h-38.143Z" transform="translate(-1873.675 -8728.942)" fill="#231615"/>
    </g>
    <g id="Group_1120" data-name="Group 1120" transform="translate(1940.861 8624.816)">
      <path id="Path_669" data-name="Path 669" d="M2139.759,8716.7v105.821H2033.938v-41.357a8.572,8.572,0,0,1,3.934-1.3,8.705,8.705,0,0,1,5.23,1.346c.009,0,.015.01.022.014a14.377,14.377,0,1,0-.137-23.129l-.019.01a8.787,8.787,0,0,1-6.279,1.406,7.9,7.9,0,0,1-2.752-1.058V8716.7h41.418a8.534,8.534,0,0,0,1.237-3.834,8.709,8.709,0,0,0-1.345-5.23c0-.01-.01-.015-.014-.024a14.377,14.377,0,1,1,23.129.139c0,.006-.006.011-.01.019a8.794,8.794,0,0,0-1.407,6.279,7.886,7.886,0,0,0,1,2.652Z" transform="translate(-2031.907 -8682.735)" fill="#daeaf8"/>
      <path id="Path_670" data-name="Path 670" d="M2140.821,8823.587H2030.938v-44.509l.949-.6a10.611,10.611,0,0,1,4.871-1.605,10.765,10.765,0,0,1,6.371,1.6l.226.147a12.234,12.234,0,0,0,7.274,2.37,12.347,12.347,0,1,0-7.394-22.235l-.215.144a10.84,10.84,0,0,1-7.665,1.646,9.925,9.925,0,0,1-3.449-1.325l-.97-.594V8713.7h42.205a6.394,6.394,0,0,0,.455-1.948,6.655,6.655,0,0,0-1.017-3.97,16.409,16.409,0,1,1,26.485.154,6.782,6.782,0,0,0-1.092,4.777,5.776,5.776,0,0,0,.269.986h42.578ZM2035,8819.525h101.759V8717.767h-40.935l-.592-.988a9.886,9.886,0,0,1-1.254-3.337,10.852,10.852,0,0,1,1.655-7.671l.158-.232a12.2,12.2,0,0,0,2.436-7.363,12.347,12.347,0,1,0-22.323,7.274l.119.178a10.769,10.769,0,0,1,1.628,6.417,10.6,10.6,0,0,1-1.531,4.752l-.595.971H2035v38.477a5.8,5.8,0,0,0,1.078.306,6.782,6.782,0,0,0,4.8-1.1v0a16.408,16.408,0,1,1,.143,26.5,6.69,6.69,0,0,0-3.976-1.021,6.439,6.439,0,0,0-2.047.5Z" transform="translate(-2030.938 -8681.765)" fill="#2a2441"/>
    </g>
    <g id="Group_1121" data-name="Group 1121" transform="translate(1834.279 8551.229)">
      <path id="Path_671" data-name="Path 671" d="M1950.48,8628.979a14.379,14.379,0,0,0,22.987,11.516l.019-.013a8.805,8.805,0,0,1,6.281-1.407,7.916,7.916,0,0,1,2.561.948v41.866h-41.815a7.879,7.879,0,0,0-1,2.652,8.8,8.8,0,0,0,1.406,6.279c0,.007.006.013.011.019a14.377,14.377,0,1,1-23.129.137.16.16,0,0,0,.014-.022,8.7,8.7,0,0,0,1.345-5.229,8.55,8.55,0,0,0-1.237-3.835h-41.418V8576.07h105.821v41.473a8.537,8.537,0,0,1-3.742,1.18,8.7,8.7,0,0,1-5.231-1.343l-.023-.014a14.377,14.377,0,0,0-22.851,11.613Z" transform="translate(-1874.475 -8574.04)" fill="#daeaf8"/>
      <path id="Path_672" data-name="Path 672" d="M1928.448,8714.891a16.408,16.408,0,0,1-13.332-25.975l.007-.012c.008-.01.015-.021.023-.032a6.654,6.654,0,0,0,1.019-3.973,6.41,6.41,0,0,0-.454-1.947h-42.205V8573.07h109.883v44.659l-.993.591a10.608,10.608,0,0,1-4.636,1.46,10.735,10.735,0,0,1-6.4-1.615l-.245-.165a12.21,12.21,0,0,0-7.229-2.335,12.346,12.346,0,0,0,0,24.691,12.234,12.234,0,0,0,7.393-2.456l.141-.1a10.867,10.867,0,0,1,7.74-1.692,9.876,9.876,0,0,1,3.215,1.188l1.013.587v45.068h-42.578a5.68,5.68,0,0,0-.267.979,6.774,6.774,0,0,0,1.093,4.788,16.242,16.242,0,0,1,3.219,9.763A16.427,16.427,0,0,1,1928.448,8714.891Zm-9.857-23.864-.12.182a12.236,12.236,0,0,0-2.37,7.274,12.346,12.346,0,0,0,24.693,0,12.235,12.235,0,0,0-2.458-7.394l-.126-.189a10.841,10.841,0,0,1-1.663-7.69,9.868,9.868,0,0,1,1.254-3.33l.591-.989h40.935v-38.547a5.681,5.681,0,0,0-.891-.236,6.781,6.781,0,0,0-4.738,1.061l-.07.05a16.409,16.409,0,1,1-.135-26.509,6.655,6.655,0,0,0,3.978,1.021,6.431,6.431,0,0,0,1.856-.419v-38.177H1877.568V8678.89h40.523l.594.969a10.6,10.6,0,0,1,1.531,4.751A10.766,10.766,0,0,1,1918.591,8691.026Z" transform="translate(-1873.506 -8573.07)" fill="#2a2441"/>
    </g>
    <g id="Group_1122" data-name="Group 1122" transform="translate(1909.014 8551.229)">
      <path id="Path_673" data-name="Path 673" d="M2124.565,8576.071V8681.89h-41.815a7.862,7.862,0,0,1-1-2.652,8.792,8.792,0,0,1,1.407-6.279c0-.007.006-.012.011-.019a14.378,14.378,0,1,0-23.129-.137.184.184,0,0,1,.013.023,8.7,8.7,0,0,1,1.345,5.229,8.529,8.529,0,0,1-1.237,3.834h-41.417v-41.865a7.908,7.908,0,0,0-2.561-.948,8.8,8.8,0,0,0-6.281,1.406.149.149,0,0,1-.018.014,14.378,14.378,0,1,1-.135-23.129l.022.014a8.709,8.709,0,0,0,5.23,1.344,8.561,8.561,0,0,0,3.743-1.182v-41.472Z" transform="translate(-1984.866 -8574.04)" fill="#a387bc"/>
      <path id="Path_674" data-name="Path 674" d="M2125.627,8682.952h-45l-.592-.989a9.861,9.861,0,0,1-1.254-3.338,10.858,10.858,0,0,1,1.654-7.669l.158-.232a12.2,12.2,0,0,0,2.436-7.364,12.347,12.347,0,1,0-24.693,0,12.237,12.237,0,0,0,2.37,7.274l.118.18a10.75,10.75,0,0,1,1.628,6.415,10.607,10.607,0,0,1-1.531,4.754l-.594.97h-44.586v-42.609a5.684,5.684,0,0,0-.89-.236,6.773,6.773,0,0,0-4.739,1.062l-.047.033a16.409,16.409,0,1,1-.155-26.491,6.662,6.662,0,0,0,3.977,1.02,6.452,6.452,0,0,0,1.854-.419v-42.24h109.883Zm-42.577-4.062h38.516V8577.133H2019.806v40.6l-.992.59a10.592,10.592,0,0,1-4.637,1.462,10.747,10.747,0,0,1-6.372-1.6l-.092-.046-.181-.138a12.209,12.209,0,0,0-7.228-2.334,12.345,12.345,0,1,0,7.394,22.235l.113-.079a10.866,10.866,0,0,1,7.768-1.713,9.906,9.906,0,0,1,3.213,1.188l1.014.586v41.007h38.143a6.394,6.394,0,0,0,.455-1.949,6.65,6.65,0,0,0-1.017-3.969,16.409,16.409,0,1,1,26.485.154,6.785,6.785,0,0,0-1.091,4.778A5.834,5.834,0,0,0,2083.049,8678.89Z" transform="translate(-1983.897 -8573.07)" fill="#2a2441"/>
    </g>
    <g id="Group_1123" data-name="Group 1123" transform="translate(1813.837 8754.529)">
      <path id="Path_675" data-name="Path 675" d="M1845.924,8873.363s-.464,3.227-1.263,4.266a8.288,8.288,0,0,0-1.079,1.422,4.2,4.2,0,0,0,.146,3.253c.19.414-.014.412.418.545a2.646,2.646,0,0,0,3.179-1.494,7.629,7.629,0,0,0,.624-2.748,9.964,9.964,0,0,1,1.045-4.418Z" transform="translate(-1843.312 -8873.363)" fill="#f7a491"/>
    </g>
    <g id="Group_1124" data-name="Group 1124" transform="translate(1829.883 8756.004)">
      <path id="Path_676" data-name="Path 676" d="M1867.542,8875.542a30.5,30.5,0,0,1,.054,4.818c-.125.633-.818,1.936-.5,2.532a1.587,1.587,0,0,0,.681.743l8.242.134c.449.007.152-.282-.21-.549a16.553,16.553,0,0,0-2.963-1.644c-.123-.061-.573-.347-.735-.445a5.751,5.751,0,0,1-1.179-1.043c-.592-.661-.644-3.865-.644-3.865Z" transform="translate(-1867.014 -8875.542)" fill="#f7a491"/>
    </g>
    <g id="Group_1125" data-name="Group 1125" transform="translate(1828.981 8706.752)">
      <path id="Path_677" data-name="Path 677" d="M1873.554,8803.7s1.038,5.9.356,9.775-3.953,39.754-3.953,39.754l-3.635.2s-.762-14.988-.626-17.071a32.352,32.352,0,0,1,1.215-5.573l-.362-12.1,4.587-15.9Z" transform="translate(-1865.681 -8802.792)" fill="#355389"/>
    </g>
    <g id="Group_1126" data-name="Group 1126" transform="translate(1815.995 8705.081)">
      <path id="Path_678" data-name="Path 678" d="M1856.676,8801.663s-2.862,4.317-3.543,7.892.5,14.555-.811,19.237c-.709,2.534-3.4,6.449-3.808,9.726s-2.013,11.855-2.013,11.855l3.633.721,8.444-21.428,6.623-19.367,1.7-9.976Z" transform="translate(-1846.5 -8800.323)" fill="#466eb6"/>
    </g>
    <g id="Group_1127" data-name="Group 1127" transform="translate(1822.911 8681.842)">
      <path id="Path_679" data-name="Path 679" d="M1862.291,8766.009s-3.789-.24-5.289,1.4,3.326,14.593,3.6,16.678-1.39,7.626-1.39,7.626,8.9,1.8,11.447.108c0,0,.272-14.988,0-16.479a44.15,44.15,0,0,0-3.09-8.14C1867.023,8766.605,1862.291,8766.009,1862.291,8766.009Z" transform="translate(-1856.714 -8765.996)" fill="#f7cc7f"/>
    </g>
    <g id="Group_1128" data-name="Group 1128" transform="translate(1828.359 8676.693)">
      <path id="Path_680" data-name="Path 680" d="M1866.153,8758.478s-.02.112-.055.3a28.932,28.932,0,0,1-1.259,4.775c-.531,1.007,1.818,4.216,4.08,3.823.674-.115-.569-2.948-.509-3.248.114-.574.269-1.357.428-2.161l.265-1.345c.242-1.228.439-2.232.439-2.232Z" transform="translate(-1864.763 -8758.393)" fill="#f7a491"/>
    </g>
    <g id="Group_1129" data-name="Group 1129" transform="translate(1829.592 8676.693)">
      <path id="Path_681" data-name="Path 681" d="M1866.686,8758.78c.035-.19.055-.3.055-.3l3.388-.085s-.2,1-.439,2.232l-.264,1.336a3.174,3.174,0,0,1-1.618-.812,4.277,4.277,0,0,1-1.225-1.827C1866.624,8759.106,1866.66,8758.921,1866.686,8758.78Z" transform="translate(-1866.583 -8758.393)" fill="#f47458"/>
    </g>
    <g id="Group_1130" data-name="Group 1130" transform="translate(1828.315 8669.05)">
      <path id="Path_682" data-name="Path 682" d="M1868.412,8747.11a3.05,3.05,0,0,0-2.6,1.112c-1,1.3-2.081,5.312.407,7.5s4.945-.288,5.309-2.908S1872.036,8747.015,1868.412,8747.11Z" transform="translate(-1864.697 -8747.102)" fill="#f7a491"/>
    </g>
    <g id="Group_1131" data-name="Group 1131" transform="translate(1834.52 8673.289)">
      <path id="Path_683" data-name="Path 683" d="M1875.226,8754.794c-.3.578-.8.9-1.113.717s-.334-.8-.038-1.381.8-.9,1.113-.714S1875.523,8754.216,1875.226,8754.794Z" transform="translate(-1873.863 -8753.364)" fill="#f7a491"/>
    </g>
    <g id="Group_1132" data-name="Group 1132" transform="translate(1826.821 8668.59)">
      <path id="Path_684" data-name="Path 684" d="M1867.879,8746.463s-2.135,3.816-3.661,3.992-1.727,2.2-1.727,2.2.546-4.673,2.057-5.573A5.6,5.6,0,0,1,1867.879,8746.463Z" transform="translate(-1862.491 -8746.422)" fill="#13375b"/>
    </g>
    <g id="Group_1133" data-name="Group 1133" transform="translate(1813.557 8760.206)">
      <path id="Path_685" data-name="Path 685" d="M1847.438,8883.417a4.058,4.058,0,0,1-3.983-1.668,4.387,4.387,0,0,0-.379,3.263c.326.712,1.279.691,2.03.719a1.956,1.956,0,0,0,1.8-1.1A6.591,6.591,0,0,0,1847.438,8883.417Z" transform="translate(-1842.898 -8881.749)" fill="#f47458"/>
    </g>
    <g id="Group_1134" data-name="Group 1134" transform="translate(1829.865 8761.409)">
      <path id="Path_686" data-name="Path 686" d="M1872.1,8883.71a7.445,7.445,0,0,1-4.693-.186,3.808,3.808,0,0,0-.377,1.966c.2.586.485.719.737.725,1.991.053,7.293.124,8.812.145a.249.249,0,0,0,.192-.409C1876.4,8885.5,1872.265,8883.81,1872.1,8883.71Z" transform="translate(-1866.986 -8883.524)" fill="#f47458"/>
    </g>
    <g id="Group_1135" data-name="Group 1135" transform="translate(1827.352 8672.505)">
      <path id="Path_687" data-name="Path 687" d="M1864.871,8753.283c.124.678-.126,1.3-.558,1.389s-.883-.389-1.007-1.067.126-1.3.558-1.389S1864.747,8752.6,1864.871,8753.283Z" transform="translate(-1863.274 -8752.205)" fill="#f7a491"/>
    </g>
    <g id="Group_1136" data-name="Group 1136" transform="translate(1831.441 8675.93)">
      <path id="Path_688" data-name="Path 688" d="M1869.315,8757.263l1.927.088a.843.843,0,0,1-.925.716C1869.281,8758.049,1869.315,8757.263,1869.315,8757.263Z" transform="translate(-1869.315 -8757.263)" fill="#fff"/>
    </g>
    <g id="Group_1158" data-name="Group 1158" transform="translate(1981.365 8505.451)">
      <g id="Group_1137" data-name="Group 1137" transform="translate(16.934 15.725)">
        <path id="Path_689" data-name="Path 689" d="M2118.076,8528.678c.24.011.9.229,1.858,2.047,1.228,2.321,3.023,9.33,3.023,9.33l-5.356,2-.688-1.462-1.133-11.265S2118.01,8528.676,2118.076,8528.678Z" transform="translate(-2115.779 -8528.678)" fill="#dd513a"/>
      </g>
      <g id="Group_1138" data-name="Group 1138" transform="translate(2.65 14.714)">
        <path id="Path_690" data-name="Path 690" d="M2104.18,8527.186a32.813,32.813,0,0,1,7.082,1.011s1.292,11.107-1.164,19.547c-.55,1.89.455,7.832.455,7.832l-15.872-.21s1.88-14.365,1.172-16.686-.725-10.408-.725-10.408.108-.018,3.566-.615A35.882,35.882,0,0,1,2104.18,8527.186Z" transform="translate(-2094.68 -8527.186)" fill="#f47458"/>
      </g>
      <g id="Group_1139" data-name="Group 1139" transform="translate(5.789 63.718)">
        <path id="Path_691" data-name="Path 691" d="M2103.828,8599.569s.351,4.053,1,5.175-.034,3.031-.068,3.293-1.359.636-3.466.411-2.073-.711-1.9-1.5,1.291-1.795,1.359-2.543a19.59,19.59,0,0,0-.646-3.442Z" transform="translate(-2099.317 -8599.569)" fill="#f7a491"/>
      </g>
      <g id="Group_1140" data-name="Group 1140" transform="translate(2.379 39.51)">
        <path id="Path_692" data-name="Path 692" d="M2108.632,8564.06s10.958-.607,13.4.873-1.738,8.755-1.738,8.755-7.624-.352-22.558.511c-3.536.2-3.841-9.221-3.179-10S2108.632,8564.06,2108.632,8564.06Z" transform="translate(-2094.28 -8563.811)" fill="#e0973f"/>
      </g>
      <g id="Group_1141" data-name="Group 1141" transform="translate(5.66 69.138)">
        <path id="Path_693" data-name="Path 693" d="M2100.967,8611.349c-2.169-.232-1.9-1.3-1.727-2.106a7.18,7.18,0,0,1,1.1-1.668,3.629,3.629,0,0,0,1.451.706,5.426,5.426,0,0,0,3.174-.643,10.485,10.485,0,0,1,.291,2.8C2105.224,8610.706,2103.136,8611.579,2100.967,8611.349Z" transform="translate(-2099.126 -8607.574)" fill="#dd513a"/>
      </g>
      <g id="Group_1142" data-name="Group 1142" transform="translate(0.395 39.619)">
        <path id="Path_694" data-name="Path 694" d="M2099.653,8571.949c.437,3.313,2.6,19.8,2.6,19.8l-5.029.623s-6.185-21.523-5.867-24.816,2.632-3.568,2.632-3.568S2098.494,8563.182,2099.653,8571.949Z" transform="translate(-2091.349 -8563.972)" fill="#f7cc7f"/>
      </g>
      <g id="Group_1143" data-name="Group 1143" transform="translate(0.449 17.018)">
        <path id="Path_695" data-name="Path 695" d="M2093.9,8530.6c1.484-.558,2.211,12.815,2.41,18.318a64.409,64.409,0,0,0,8.349-.084c.536-.04,1.773-.492,2.307-.562a5.4,5.4,0,0,1,1.311-.062,24.72,24.72,0,0,1,3.072,1.383c.291.3,1.077,1.073.944,1.406s-1.511-.927-1.511-.927l-.674-.378c.839.819,2.438,1.9,2.208,2.291s-1.667-.712-2.7-1.458c.882.8,1.978,2.223,1.726,2.445-.228.2-1.474-1.451-2.806-1.927-.493-.176-.985.312-1.374.371a2.806,2.806,0,0,1-1.006.056l-1.443-.409c-.491.044-.5.334-1,.44-.576.123-1.521.252-2.255.431-4.224,1.033-5.633,1.512-6.926,1.512C2090.624,8553.447,2090.4,8531.92,2093.9,8530.6Z" transform="translate(-2091.429 -8530.588)" fill="#f7a491"/>
      </g>
      <g id="Group_1144" data-name="Group 1144" transform="translate(0 15.768)">
        <path id="Path_696" data-name="Path 696" d="M2090.873,8542.563c-.278-5.637-.237-12.586,2.924-13.771,1.247-.468,3.445,2.345,3.05,13.887A23.769,23.769,0,0,1,2090.873,8542.563Z" transform="translate(-2090.766 -8528.743)" fill="#dd513a"/>
      </g>
      <g id="Group_1145" data-name="Group 1145" transform="translate(21.065 67.186)">
        <path id="Path_697" data-name="Path 697" d="M2125.822,8604.69a2.739,2.739,0,0,0,.347,2.337c.786.931,4.051,1.845,4.479,2.348a1.411,1.411,0,0,1,.4.934l-9.164-.253.1-2.767.423-1.989Z" transform="translate(-2121.881 -8604.69)" fill="#f7a491"/>
      </g>
      <g id="Group_1146" data-name="Group 1146" transform="translate(20.552 69.776)">
        <path id="Path_698" data-name="Path 698" d="M2126.494,8608.729s-2.354.952-3.492.388-1.1-.72-1.432-.509-.447,2.8-.447,2.8l10.3.3c.717-.017,1.08-.545.5-1a8.446,8.446,0,0,0-1.123-.667A32.131,32.131,0,0,0,2126.494,8608.729Z" transform="translate(-2121.123 -8608.518)" fill="#dd513a"/>
      </g>
      <g id="Group_1147" data-name="Group 1147" transform="translate(21.242 39.735)">
        <path id="Path_699" data-name="Path 699" d="M2125.56,8566.763c.708-1.49,2.319-3.431,5.153-2.261,2.7,1.114,3.429,3.854,2.576,6.66s-6.468,19.3-6.664,21.564l-4.483.029s.815-13.058,1.015-16.215A30.563,30.563,0,0,1,2125.56,8566.763Z" transform="translate(-2122.142 -8564.144)" fill="#f7cc7f"/>
      </g>
      <g id="Group_1148" data-name="Group 1148" transform="translate(2.752 27.166)">
        <path id="Path_700" data-name="Path 700" d="M2124.016,8545.578H2109.03a.977.977,0,0,0-.9.608l-4.614,11.293h-8.262a.419.419,0,0,0-.418.419h0a.418.418,0,0,0,.418.419h23.514a1.641,1.641,0,0,0,1.5-.972l4.646-10.386A.981.981,0,0,0,2124.016,8545.578Z" transform="translate(-2094.831 -8545.578)"/>
      </g>
      <g id="Group_1149" data-name="Group 1149" transform="translate(22.245 32.648)">
        <path id="Path_701" data-name="Path 701" d="M2125.247,8554.769a.825.825,0,1,1-.618-1.079A.883.883,0,0,1,2125.247,8554.769Z" transform="translate(-2123.624 -8553.676)" fill="#fff"/>
      </g>
      <g id="Group_1156" data-name="Group 1156" transform="translate(7.37)">
        <g id="Group_1150" data-name="Group 1150">
          <path id="Path_702" data-name="Path 702" d="M2109.993,8506.6a11.687,11.687,0,0,1-1.325-.531,6.662,6.662,0,0,0-1.512-.57,3.648,3.648,0,0,0-3.067.819c-.989,1.071-2.744.191-2.39,5.809.4,6.356,3.935,5.659,4.021,5.552s3.152-4.066,3.152-4.066,1.072,2.345,1.072,2.259S2115.419,8508.427,2109.993,8506.6Z" transform="translate(-2101.653 -8505.451)" fill="#0e2e35"/>
        </g>
        <g id="Group_1151" data-name="Group 1151" transform="translate(2.027 9.119)">
          <path id="Path_703" data-name="Path 703" d="M2108.277,8522.5l.305,2.271s.684,3.273-.2,3.9-3.74-4-3.74-4l.3-5.756Z" transform="translate(-2104.647 -8518.921)" fill="#f7a491"/>
        </g>
        <g id="Group_1152" data-name="Group 1152" transform="translate(2.232 9.119)">
          <path id="Path_704" data-name="Path 704" d="M2104.949,8520.787a6.515,6.515,0,0,0,3.685,3.637l-.259-1.925-3.328-3.578Z" transform="translate(-2104.949 -8518.921)" fill="#f47458"/>
        </g>
        <g id="Group_1153" data-name="Group 1153" transform="translate(1.636 2.817)">
          <path id="Path_705" data-name="Path 705" d="M2107.911,8509.651a3.029,3.029,0,0,1,3.488,3.063,23.033,23.033,0,0,1-.255,2.914c-.405,2.621-2.195,4.931-3.377,4.724a5.681,5.681,0,0,1-3.636-6.2C2104.455,8511.85,2105.955,8509.967,2107.911,8509.651Z" transform="translate(-2104.07 -8509.612)" fill="#f7a491"/>
        </g>
        <g id="Group_1154" data-name="Group 1154" transform="translate(0.798 6.6)">
          <path id="Path_706" data-name="Path 706" d="M2104.552,8516.4a.882.882,0,1,1-.67-1.192A.975.975,0,0,1,2104.552,8516.4Z" transform="translate(-2102.831 -8515.2)" fill="#f7a491"/>
        </g>
        <g id="Group_1155" data-name="Group 1155" transform="translate(1.397 1.947)">
          <path id="Path_707" data-name="Path 707" d="M2104.167,8512.991s1.431.355,1.961-.564,2.428-2.9,4.84-2.082-2.122-2-2.315-2-2.51-.016-2.51-.016-1.785,1.469-1.85,1.63-.579,1.92-.579,1.92Z" transform="translate(-2103.716 -8508.328)" fill="#0e2e35"/>
        </g>
      </g>
      <g id="Group_1157" data-name="Group 1157" transform="translate(11.826 10.449)">
        <path id="Path_708" data-name="Path 708" d="M2108.243,8520.885l2.6.5a1.159,1.159,0,0,1-1.4.795C2108.044,8521.951,2108.243,8520.885,2108.243,8520.885Z" transform="translate(-2108.234 -8520.885)" fill="#fff"/>
      </g>
    </g>
    <g id="Group_1181" data-name="Group 1181" transform="translate(1940.843 8668.055)">
      <g id="Group_1159" data-name="Group 1159" transform="translate(3.49 28.615)">
        <path id="Path_709" data-name="Path 709" d="M2036.066,8789.424a2.711,2.711,0,0,0,.283.688,26.142,26.142,0,0,0,2.709,3.605l1.464-3.3s-.239-1.035-.653-2.518A8.459,8.459,0,0,0,2036.066,8789.424Z" transform="translate(-2036.066 -8787.898)" fill="#f8a492"/>
      </g>
      <g id="Group_1160" data-name="Group 1160" transform="translate(0.069 15.74)">
        <path id="Path_710" data-name="Path 710" d="M2042.831,8780.419s-8.169,3.519-8.433,3.45a21.706,21.706,0,0,1-3.385-10.373c-.016-2.312,2.386-5.095,5.065-4.544,1.349.275,1.328.651,3.324,3.552A33.412,33.412,0,0,1,2042.831,8780.419Z" transform="translate(-2031.013 -8768.882)" fill="#13375b"/>
      </g>
      <g id="Group_1161" data-name="Group 1161" transform="translate(18.314 90.35)">
        <path id="Path_711" data-name="Path 711" d="M2058.51,8879.088s-.195,3.209-.2,3.215a17.525,17.525,0,0,0-.352,1.783c0,1.393,6.606-1.182,5.126-1.795-.134-.057-.836-.479-.88-.951-.068-.732-.24-2.207-.24-2.207Z" transform="translate(-2057.963 -8879.088)" fill="#f7a491"/>
      </g>
      <g id="Group_1162" data-name="Group 1162" transform="translate(18.08 93.482)">
        <path id="Path_712" data-name="Path 712" d="M2062.961,8883.771s-1.551.426-2.346.532-1.841-.789-2.4-.547c-.618.266-.594,2.663-.594,2.663s8.317.683,10.656-.023C2069.2,8886.116,2066.131,8884.762,2062.961,8883.771Z" transform="translate(-2057.618 -8883.714)" fill="#dd513a"/>
      </g>
      <g id="Group_1163" data-name="Group 1163" transform="translate(4.801 90.35)">
        <path id="Path_713" data-name="Path 713" d="M2038.55,8879.088s-.194,3.209-.2,3.215a17.651,17.651,0,0,0-.351,1.783c0,1.393,6.605-1.182,5.125-1.795-.134-.057-1.044-.793-1.088-1.268-.068-.729-.032-1.891-.032-1.891Z" transform="translate(-2038.003 -8879.088)" fill="#f7a491"/>
      </g>
      <g id="Group_1164" data-name="Group 1164" transform="translate(4.518 93.482)">
        <path id="Path_714" data-name="Path 714" d="M2042.977,8883.771s-1.551.426-2.345.532-1.842-.789-2.4-.547c-.619.266-.643,2.663-.643,2.663s8.355.795,10.705-.023C2049.2,8886.077,2046.147,8884.762,2042.977,8883.771Z" transform="translate(-2037.585 -8883.714)" fill="#dd513a"/>
      </g>
      <g id="Group_1167" data-name="Group 1167" transform="translate(7.366 6.727)">
        <g id="Group_1165" data-name="Group 1165">
          <path id="Path_715" data-name="Path 715" d="M2041.792,8780.76l5.818-8.151q.037-.105.158-.44c.293-.808.9-2.491,1.434-4.165l.005-.017c.167-.586.521-1.607.863-2.595.381-1.1.853-2.46.869-2.692l-.078-.206a18.855,18.855,0,0,1-.6-2.445c-.065-.366-.13-1.253.3-1.253.682,0,.357.886.672,1.44a13.989,13.989,0,0,0,.473-1.847l.114-1.734c.022-.129-.117-1.085.362-1.085h.023c.43.032.42,1.048.6,2.768.056-.2.113-.437.156-.655a6.222,6.222,0,0,1,.145-.908c-.087-.479-.037-1.233.474-1.163.255.036.234,1.09.234,1.09,0,.145-.018,1.26-.01,1.479.052-.374.257-1.969.656-1.969.332,0,.359.429.352.77,0,.2-.213,1.929-.224,2.13.156-.263.342-1.785.5-1.785.647,0,.414,2.166.176,2.729a2.6,2.6,0,0,0-.074.3,5.289,5.289,0,0,1-.555,1.611c-.406.7-.967,1.8-1.052,1.97-.062.347-.257,1.587-.5,3.148-.1.668-.219,1.4-.339,2.159h-.006c-.022.165-.143.687-.6,2.646a23.281,23.281,0,0,1-.723,2.847c-.273.483-6.547,9-6.813,9.365l-.157.214Z" transform="translate(-2041.792 -8755.569)" fill="#f7a491"/>
        </g>
        <g id="Group_1166" data-name="Group 1166" transform="translate(9.508 4.927)">
          <path id="Path_716" data-name="Path 716" d="M2057.15,8764.1s-.473-1.208-1.313-1.21a.969.969,0,0,1,.873.149A1.667,1.667,0,0,1,2057.15,8764.1Z" transform="translate(-2055.837 -8762.846)" fill="#f47458"/>
        </g>
      </g>
      <g id="Group_1173" data-name="Group 1173">
        <g id="Group_1168" data-name="Group 1168" transform="translate(5.212 10.298)">
          <path id="Path_717" data-name="Path 717" d="M2039.359,8761.121l-.749,4.736s2.854,2.291,4.517,1.808c1.4-.4.439-2.23.439-2.23a11.862,11.862,0,0,1-.515-3.854C2043.279,8760.255,2039.359,8761.121,2039.359,8761.121Z" transform="translate(-2038.61 -8760.843)" fill="#f7a491"/>
        </g>
        <g id="Group_1169" data-name="Group 1169" transform="translate(5.817 10.298)">
          <path id="Path_718" data-name="Path 718" d="M2040.185,8762.552a11.645,11.645,0,0,0,3.23.911,6.287,6.287,0,0,1-.076-1.883c.1-.61-.673-.755-1.542-.735-1.136.1-2.15.276-2.15.276l-.144.909A2.322,2.322,0,0,0,2040.185,8762.552Z" transform="translate(-2039.503 -8760.843)" fill="#fe875e"/>
        </g>
        <g id="Group_1170" data-name="Group 1170" transform="translate(2.351 2.566)">
          <path id="Path_719" data-name="Path 719" d="M2034.392,8751.967c-.118,0,1.128,5.293,3.056,6.2s4.8.437,5.344-.988c.6-1.576-1.581-6.975-4.292-7.66S2034.392,8751.967,2034.392,8751.967Z" transform="translate(-2034.385 -8749.422)" fill="#f7a491"/>
        </g>
        <g id="Group_1171" data-name="Group 1171">
          <path id="Path_720" data-name="Path 720" d="M2035.5,8745.883a6.064,6.064,0,0,0-2.485,2.744c-.723.344-1.6,1.086-2.017,3.084a4.335,4.335,0,0,0,3.264,4.923,2.957,2.957,0,0,1,2.247,1.857l.221-1.386a5.488,5.488,0,0,0-1.084-1.811c-.651-.6.308-1.483.393-2.2.065-.554-.342-1.627-.254-2.534a6.262,6.262,0,0,1,2.147-2.043C2039.751,8747.827,2037.478,8744.742,2035.5,8745.883Z" transform="translate(-2030.912 -8745.632)" fill="#13375b"/>
        </g>
        <g id="Group_1172" data-name="Group 1172" transform="translate(3.899 7.497)">
          <path id="Path_721" data-name="Path 721" d="M2038.182,8757.591c.253.612.149,1.219-.229,1.355s-.891-.245-1.143-.857-.149-1.218.23-1.354S2037.93,8756.981,2038.182,8757.591Z" transform="translate(-2036.672 -8756.706)" fill="#f7a491"/>
        </g>
      </g>
      <g id="Group_1174" data-name="Group 1174" transform="translate(12.592 27.004)">
        <path id="Path_722" data-name="Path 722" d="M2049.511,8790.564l11.222-1.83s-1.277-3.214-1.733-3.214-8.486,3.506-8.486,3.506l-.638,1.281Z" transform="translate(-2049.511 -8785.521)" fill="#f8a492"/>
      </g>
      <g id="Group_1175" data-name="Group 1175" transform="translate(4.931 39.23)">
        <path id="Path_723" data-name="Path 723" d="M2040.108,8804.092a36.931,36.931,0,0,0-.663,9.515c.456,4.105.492,18.684.492,18.684l-1.741,23.324,4.131.09s4.9-23.314,4.807-22.716,1.642-16.413,1.642-16.413l-5.839-13Z" transform="translate(-2038.195 -8803.578)" fill="#184655"/>
      </g>
      <g id="Group_1176" data-name="Group 1176" transform="translate(7.662 37.691)">
        <path id="Path_724" data-name="Path 724" d="M2042.505,8803.1s-.73,4.873.183,7.012,7.825,23.109,7.917,24.817,2.391,20.61,2.391,20.61l4.8-.135,1.039-21.014-2.176-26.409-2.112-6.677Z" transform="translate(-2042.229 -8801.306)" fill="#13375b"/>
      </g>
      <g id="Group_1177" data-name="Group 1177" transform="translate(5.212 13.779)">
        <path id="Path_725" data-name="Path 725" d="M2038.61,8767.518a4.293,4.293,0,0,0,2.289.688,7.607,7.607,0,0,0,2.667-1.109l-.217-.734s-2.858-.418-2.93-.373S2038.61,8767.518,2038.61,8767.518Z" transform="translate(-2038.61 -8765.985)" fill="#f7a491"/>
      </g>
      <g id="Group_1178" data-name="Group 1178" transform="translate(17.836 22.874)">
        <path id="Path_726" data-name="Path 726" d="M2057.257,8783.392s4.245,4.006,6.161,3.322,2.709-3.022-1.967-6.443C2057.268,8777.209,2057.257,8783.392,2057.257,8783.392Z" transform="translate(-2057.257 -8779.419)" fill="#f8a492"/>
      </g>
      <g id="Group_1179" data-name="Group 1179" transform="translate(1.25 14.812)">
        <path id="Path_727" data-name="Path 727" d="M2052.221,8784.491c-.631-3.43-5.2-14.105-5.566-16.072-.177-.957-2.642-.978-4.991-.854-2.48.133-4.943.446-4.943.446a7.551,7.551,0,0,0-3.162,1.265c-.966.906-1.222,3.409.166,8.162,1.1,3.75,2.455,5.811,3.128,8.542.136.918.252,1.822.407,2.877.247,4.086,0,9.483,0,9.483s11.954,2.48,16.424-1.282C2053.68,8797.059,2052.866,8788.007,2052.221,8784.491Z" transform="translate(-2032.758 -8767.512)" fill="#355389"/>
      </g>
      <g id="Group_1180" data-name="Group 1180" transform="translate(10.387 14.95)">
        <path id="Path_728" data-name="Path 728" d="M2059.627,8777.18s-4.689,3.871-4.963,3.871c-.177,0-6.694-4.794-8.2-8.731a3.443,3.443,0,0,1,2.905-4.605c1.381,0,1.995.361,4.732,2.67A34.925,34.925,0,0,1,2059.627,8777.18Z" transform="translate(-2046.253 -8767.714)" fill="#466eb6"/>
      </g>
    </g>
    <g id="Group_1182" data-name="Group 1182" transform="translate(2073.134 8758.536)">
      <path id="Path_729" data-name="Path 729" d="M2230.719,8879.282s.177,3.152.178,3.158c.066.4.323,1.39.323,1.753,0,1.367-6.064-1.159-4.7-1.766.123-.055.767-.469.807-.935.063-.717.22-2.167.22-2.167Z" transform="translate(-2226.317 -8879.282)" fill="#f7a491"/>
    </g>
    <g id="Group_1183" data-name="Group 1183" transform="translate(2068.243 8761.639)">
      <path id="Path_730" data-name="Path 730" d="M2224.124,8883.922a21.785,21.785,0,0,0,2.152.522c.73.1,1.69-.775,2.206-.539.568.263.546,2.618.546,2.618s-7.635.671-9.781-.023C2218.4,8886.226,2221.214,8884.9,2224.124,8883.922Z" transform="translate(-2219.093 -8883.865)" fill="#f7cc7f"/>
    </g>
    <g id="Group_1184" data-name="Group 1184" transform="translate(2083.231 8758.373)">
      <path id="Path_731" data-name="Path 731" d="M2245.634,8879.04s.178,3.152.178,3.159c.066.4.324,1.39.324,1.753,0,1.368-6.064-1.16-4.705-1.767.123-.054.959-.778,1-1.244.063-.716.029-1.856.029-1.856Z" transform="translate(-2241.232 -8879.04)" fill="#f7a491"/>
    </g>
    <g id="Group_1185" data-name="Group 1185" transform="translate(2078.404 8761.448)">
      <path id="Path_732" data-name="Path 732" d="M2239.143,8883.641a21.715,21.715,0,0,0,2.153.523c.729.1,1.69-.775,2.207-.538.567.262.59,2.616.59,2.616a95.054,95.054,0,0,1-9.826-.022C2233.382,8886.088,2236.232,8884.616,2239.143,8883.641Z" transform="translate(-2234.102 -8883.585)" fill="#f7cc7f"/>
    </g>
    <g id="Group_1186" data-name="Group 1186" transform="translate(2077.877 8707.802)">
      <path id="Path_733" data-name="Path 733" d="M2241.281,8804.848a38.8,38.8,0,0,1,.609,9.349c-.419,4.031-.451,18.354-.451,18.354l1.931,22.909-4.126.1s-4.5-22.905-4.413-22.317-1.507-16.127-1.507-16.127l5.36-12.769Z" transform="translate(-2233.324 -8804.343)" fill="#355389"/>
    </g>
    <g id="Group_1187" data-name="Group 1187" transform="translate(2072.495 8704.872)">
      <path id="Path_734" data-name="Path 734" d="M2237.275,8800.015s4.655,4.9,2.924,10.261c-.7,2.151-7.185,22.7-7.268,24.384s-2.194,20.248-2.194,20.248l-4.41-.133-.954-20.644,1.26-27.815,2.677-4.692Z" transform="translate(-2225.374 -8800.015)" fill="#466eb6"/>
    </g>
    <g id="Group_1188" data-name="Group 1188" transform="translate(2055.956 8682.405)">
      <path id="Path_735" data-name="Path 735" d="M2201.119,8773.337a40.733,40.733,0,0,1,4.842-4.122,15.8,15.8,0,0,1,2.783-1.966c1.186-.409,3.218-1.5,6.156,2.952,2.1,3.188,15.371,19.688,17.549,20.243l-14.223,6.8c-.389-3.25-7.419-9.39-8.431-10.535C2207.534,8784.153,2199.677,8774.946,2201.119,8773.337Z" transform="translate(-2200.944 -8766.829)" fill="#f47458"/>
    </g>
    <g id="Group_1189" data-name="Group 1189" transform="translate(2054.571 8681.999)">
      <path id="Path_736" data-name="Path 736" d="M2201.122,8766.229l4.431,2.594s.125,3.783-1.324,4.765c-1.215.824-2.14-1.154-2.14-1.154a13.543,13.543,0,0,0-2.9-3C2197.938,8768.728,2201.122,8766.229,2201.122,8766.229Z" transform="translate(-2198.898 -8766.229)" fill="#f7a491"/>
    </g>
    <g id="Group_1190" data-name="Group 1190" transform="translate(2054.572 8681.999)">
      <path id="Path_737" data-name="Path 737" d="M2201.866,8767.893a9.267,9.267,0,0,1-1.15,2.87,7.238,7.238,0,0,0-1.526-1.325c-.578-.327-.21-1.035.353-1.7.795-.829,1.58-1.506,1.58-1.506l.852.5A3.969,3.969,0,0,1,2201.866,8767.893Z" transform="translate(-2198.899 -8766.229)" fill="#f47458"/>
    </g>
    <g id="Group_1191" data-name="Group 1191" transform="translate(2049.623 8675.305)">
      <path id="Path_738" data-name="Path 738" d="M2196.454,8756.535c.074-.092,3.717,4.441,3.268,6.567s-2.651,4.067-4.181,3.534c-1.692-.59-4.84-5.927-3.711-8.519S2196.454,8756.535,2196.454,8756.535Z" transform="translate(-2191.591 -8756.342)" fill="#f7a491"/>
    </g>
    <g id="Group_1192" data-name="Group 1192" transform="translate(2048.576 8673.288)">
      <path id="Path_739" data-name="Path 739" d="M2191.967,8754.143a6.9,6.9,0,0,1,6.113-.123c2.379,1.245,2.921,4.381,2.176,6.292a3.091,3.091,0,0,0,.109,2.992l-1.262-.737a6.012,6.012,0,0,1-.834-2.068c-.1-.916-1.434-.753-2.087-1.17-.5-.32-1.145-1.36-1.958-1.9a6.481,6.481,0,0,0-3.056.315C2189.448,8758.705,2189.692,8755.408,2191.967,8754.143Z" transform="translate(-2190.044 -8753.363)" fill="#13375b"/>
    </g>
    <g id="Group_1193" data-name="Group 1193" transform="translate(2055.737 8678.798)">
      <path id="Path_740" data-name="Path 740" d="M2200.621,8762.721c-.012.682.309,1.236.718,1.244s.749-.539.761-1.221-.31-1.236-.718-1.242S2200.633,8762.041,2200.621,8762.721Z" transform="translate(-2200.621 -8761.502)" fill="#f7a491"/>
    </g>
    <g id="Group_1194" data-name="Group 1194" transform="translate(2052.007 8682.186)">
      <path id="Path_741" data-name="Path 741" d="M2195.111,8767.947l1.928-1.441a1.065,1.065,0,0,1-.32,1.438C2195.708,8768.748,2195.111,8767.947,2195.111,8767.947Z" transform="translate(-2195.111 -8766.506)" fill="#fff"/>
    </g>
    <g id="Group_1195" data-name="Group 1195" transform="translate(2041.624 8690.761)">
      <path id="Path_742" data-name="Path 742" d="M2185.315,8800.719a21.04,21.04,0,0,1,1.362-2.5,5.982,5.982,0,0,1,.988-.849c3.212-1.879,11.581-6.723,11.906-7.1.386-.446,6.1-9.936,6.1-9.936l-5.13-1.162-5.013,8.853c-.418.332-8.376,6.213-8.376,6.213s-1.582,1.237-2.448,1.815a6.956,6.956,0,0,1-1.232.55,7.835,7.835,0,0,0-1.536.763c-.208.185-.627.578-.876.817s-.55.512-.666.653a1.741,1.741,0,0,1-.452.288.3.3,0,0,0,.049.55,1.288,1.288,0,0,0,.777-.18c.576-.271,1.28-1,1.317-.913s-.677,1.656-.748,1.84a21.076,21.076,0,0,0-.933,2.417c-.042.406.2.5.385.352.157-.128,1.477-2.563,1.477-2.563s.168-.312.234-.134-1.128,2.392-1.245,2.756-.024.661.313.533c.409-.154,1.538-2.6,1.538-2.6s.147-.3.247-.2-.946,1.974-.958,2.188a.281.281,0,0,0,.465.249,13.134,13.134,0,0,0,1.322-2.4s.122-.146.161-.043-.741,1.757-.683,2a.2.2,0,0,0,.232.163C2184.3,8803.139,2184.832,8801.424,2185.315,8800.719Z" transform="translate(-2179.775 -8779.172)" fill="#f8a492"/>
    </g>
    <g id="Group_1196" data-name="Group 1196" transform="translate(2059.522 8682.299)">
      <path id="Path_743" data-name="Path 743" d="M2212.8,8781.31s-1.671-.531-2.743-1.021c-.718-.328-3.848-1.886-3.848-1.886a68.979,68.979,0,0,1,2.262-7.74c3.348-7.515,7.153-2.332,7.67-1.124C2217.3,8772.238,2212.8,8781.31,2212.8,8781.31Z" transform="translate(-2206.212 -8766.672)" fill="#355389"/>
    </g>
    <g id="Group_1197" data-name="Group 1197" transform="translate(1949.425 8676.076)">
      <path id="Path_744" data-name="Path 744" d="M2043.588,8758.669l1.59-1.187a.878.878,0,0,1-.263,1.186C2044.08,8759.329,2043.588,8758.669,2043.588,8758.669Z" transform="translate(-2043.588 -8757.481)" fill="#fff"/>
    </g>
    <g id="Group_1217" data-name="Group 1217" transform="translate(1849.453 8509.988)">
      <g id="Group_1198" data-name="Group 1198" transform="translate(30.998)">
        <path id="Path_745" data-name="Path 745" d="M1943.353,8517.218c.769-1.849,1.55-3.7,3.545-4.64a4.462,4.462,0,0,1,4.734.605c4.063,3.056.523,6.422,5.148,12.216,1.437,1.8,3.176,3.254,4.038,5.364,1.205,2.952-.23,4.37-2.531,5.784-11.009,6.768-16.78-7.126-16.572-10.3A51.166,51.166,0,0,1,1943.353,8517.218Z" transform="translate(-1941.708 -8512.152)" fill="#13375b"/>
      </g>
      <g id="Group_1199" data-name="Group 1199" transform="translate(21.046 17.467)">
        <path id="Path_746" data-name="Path 746" d="M1927.181,8561.563c.464-.073,1.591-.881,1.989-.954.308-.057.976-.158,1.259-.2.349-1.3,2.116-8.388,2.314-10.467.215-2.25,1.806-11.988,1.806-11.988l4.122.748s-1.711,7.492-2.185,11.125c-.407,3.119-3.83,10.134-4.265,10.875,0,.018,0,.035,0,.055-.066,1.1-.6.733-.6.733l-.862.22s-3.05.294-3.249.367S1926.716,8561.637,1927.181,8561.563Z" transform="translate(-1927.008 -8537.954)" fill="#f7a491"/>
      </g>
      <g id="Group_1200" data-name="Group 1200" transform="translate(27.612 11.774)">
        <path id="Path_747" data-name="Path 747" d="M1941.277,8529.544c-2.914.989-4.571,8.91-4.571,8.91s4.571,1.276,5.742.606c0,0,1.33-5.893,1.806-5.687Z" transform="translate(-1936.706 -8529.544)" fill="#6a97ce"/>
      </g>
      <g id="Group_1201" data-name="Group 1201" transform="translate(1.83 54.763)">
        <path id="Path_748" data-name="Path 748" d="M1906.437,8593.043a31.182,31.182,0,0,0-1.4,4.889c-.02.133.166.771.148.908-1.789,2.441-4.361,2.975-6.566,3.131,1.124-1.1,2.774-2.137,2.853-2.484a43.023,43.023,0,0,0,1.139-6.428C1903.986,8593.693,1904.917,8593.191,1906.437,8593.043Z" transform="translate(-1898.623 -8593.043)" fill="#f7a491"/>
      </g>
      <g id="Group_1202" data-name="Group 1202" transform="translate(5.116 28.457)">
        <path id="Path_749" data-name="Path 749" d="M1933.363,8554.186l3.938,11.092s-6.328,1.19-8.693,1.624-15.584,1.012-15.919,1.245c-.249.176-2.979,9.007-4.2,13.876a11.478,11.478,0,0,1-5.012-.5c.681-6.968,3.14-18.007,3.927-19.208C1908.688,8560.362,1933.363,8554.186,1933.363,8554.186Z" transform="translate(-1903.478 -8554.186)" fill="#256653"/>
      </g>
      <g id="Group_1203" data-name="Group 1203" transform="translate(13.617 59.624)">
        <path id="Path_750" data-name="Path 750" d="M1922.036,8600.223a31.088,31.088,0,0,0-.454,5.065c0,.134.307.727.316.863-1.3,2.733-3.727,3.74-5.864,4.306.9-1.287,2.324-2.617,2.337-2.973a43.188,43.188,0,0,0-.086-6.528C1919.751,8601.322,1920.571,8600.654,1922.036,8600.223Z" transform="translate(-1916.034 -8600.223)" fill="#f7a491"/>
      </g>
      <g id="Group_1204" data-name="Group 1204" transform="translate(15.023 29.033)">
        <path id="Path_751" data-name="Path 751" d="M1942.687,8555.037l1.527,2.608a7.476,7.476,0,0,1-3.748,10.746l-.069.026c-2.242.87-15.117,3.914-15.4,4.207-.211.218-1.239,9.4-1.524,14.416a11.467,11.467,0,0,1-5.016.452c-.637-6.972-.29-18.274.258-19.6C1919.605,8565.728,1942.687,8555.037,1942.687,8555.037Z" transform="translate(-1918.112 -8555.037)" fill="#327f6b"/>
      </g>
      <g id="Group_1205" data-name="Group 1205" transform="translate(12.153 64.721)">
        <path id="Path_752" data-name="Path 752" d="M1920.685,8607.8c.343-.379,1.6,1.7,1.916,2.149a1,1,0,0,1,.211.955c-.112.206-6.748,4.111-8.366,4.388a.8.8,0,0,1-.485-.128c-.632-.56,2.279-4.7,3.586-5.238A6.276,6.276,0,0,0,1920.685,8607.8Z" transform="translate(-1913.872 -8607.752)" fill="#13375b"/>
      </g>
      <g id="Group_1206" data-name="Group 1206" transform="translate(0 59.699)">
        <path id="Path_753" data-name="Path 753" d="M1903.956,8600.363c.407-.309,1.254,1.975,1.479,2.471a.992.992,0,0,1,.028.977c-.148.182-7.4,2.774-9.041,2.744a.826.826,0,0,1-.452-.218c-.516-.669,3.119-4.186,4.5-4.474A6.282,6.282,0,0,0,1903.956,8600.363Z" transform="translate(-1895.921 -8600.335)" fill="#13375b"/>
      </g>
      <g id="Group_1207" data-name="Group 1207" transform="translate(29.251 11.584)">
        <path id="Path_754" data-name="Path 754" d="M1944.821,8529.432h0a1.127,1.127,0,0,1-.294-.061,5.084,5.084,0,0,0-2.645.149c-1.119.473-2.854,4.887-2.751,9.417.042.692.084,1.313.119,1.744.283,3.423,1.264,9.844,1.317,9.879,1.335.858,9.394-2.474,9.948-3.205s.881-9.628,1.149-10.071l.53-7.736C1951.26,8529.27,1946.255,8529.422,1944.821,8529.432Z" transform="translate(-1939.127 -8529.264)" fill="#9bc1f9"/>
      </g>
      <g id="Group_1208" data-name="Group 1208" transform="translate(34.052 7.503)">
        <path id="Path_755" data-name="Path 755" d="M1950.378,8524.636a20.6,20.6,0,0,0-.415,3.741c.1,1.059-.4,4.471-2.636,4.482s-.426-4.338-.215-5.376a39.669,39.669,0,0,0,.261-4.248Z" transform="translate(-1946.218 -8523.235)" fill="#f7a491"/>
      </g>
      <g id="Group_1209" data-name="Group 1209" transform="translate(35.16 7.503)">
        <path id="Path_756" data-name="Path 756" d="M1947.855,8524.847c.035-.879.047-1.611.047-1.611l3,1.4s-.106.549-.213,1.248A2.625,2.625,0,0,1,1947.855,8524.847Z" transform="translate(-1947.855 -8523.235)" fill="#f47458"/>
      </g>
      <g id="Group_1210" data-name="Group 1210" transform="translate(34.021 1.142)">
        <path id="Path_757" data-name="Path 757" d="M1951.461,8514.193a3.722,3.722,0,0,1,1.582,2.035c.423,1.392-.059,4.984-3.05,5.851s-4.286-1.978-3.67-4.2S1948.279,8512.838,1951.461,8514.193Z" transform="translate(-1946.173 -8513.839)" fill="#f7a491"/>
      </g>
      <g id="Group_1211" data-name="Group 1211" transform="translate(33.788 3.173)">
        <path id="Path_758" data-name="Path 758" d="M1945.837,8517.984c.059.6.388,1.055.736,1.021s.583-.547.524-1.144-.388-1.055-.736-1.021S1945.779,8517.387,1945.837,8517.984Z" transform="translate(-1945.828 -8516.839)" fill="#f7a491"/>
      </g>
      <g id="Group_1212" data-name="Group 1212" transform="translate(38.959 1.314)">
        <path id="Path_759" data-name="Path 759" d="M1953.466,8514.094s.542,4.008,1.838,4.731.754,2.5.754,2.5,1.176-4.129.15-5.454A5.7,5.7,0,0,0,1953.466,8514.094Z" transform="translate(-1953.466 -8514.094)" fill="#13375b"/>
      </g>
      <g id="Group_1213" data-name="Group 1213" transform="translate(39.767 6.012)">
        <path id="Path_760" data-name="Path 760" d="M1954.923,8521.642c-.351.522-.35,1.139,0,1.376s.924.006,1.275-.516.351-1.138,0-1.376S1955.274,8521.12,1954.923,8521.642Z" transform="translate(-1954.66 -8521.033)" fill="#f7a491"/>
      </g>
      <g id="Group_1214" data-name="Group 1214" transform="translate(35.655 6.843)">
        <path id="Path_761" data-name="Path 761" d="M1948.6,8522.261l2.107.532a.959.959,0,0,1-1.187.594C1948.385,8523.135,1948.6,8522.261,1948.6,8522.261Z" transform="translate(-1948.586 -8522.261)" fill="#fff"/>
      </g>
      <g id="Group_1215" data-name="Group 1215" transform="translate(40.726 17.168)">
        <path id="Path_762" data-name="Path 762" d="M1970.782,8560.619c-.037-.1-.122-.1-.208-.1a21.313,21.313,0,0,1-2.494-.186,1.894,1.894,0,0,1-.4-.1,1.04,1.04,0,0,0-.69-.026,1.4,1.4,0,0,1-.383.041c-.419,0-1.616-.409-2.23-.516a.364.364,0,0,1-.287-.27c-.6-2.391-1.9-7.757-2.07-9.521-.215-2.257-1.774-12.429-1.774-12.429l-4.168,1.162s1.715,7.51,2.19,11.15c.366,2.813,3.176,8.777,4.057,10.493a1.757,1.757,0,0,0,1.62,1.339.52.52,0,0,1,.331.178,2.316,2.316,0,0,0,.526.457,1.241,1.241,0,0,1,.359.357c.177.26.335.529.491.8.1.18.213.237.368.194a.327.327,0,0,0,.241-.368,1.659,1.659,0,0,0-.249-.822.447.447,0,0,1,.033-.6,1.858,1.858,0,0,1,.313-.347.543.543,0,0,1,.427-.156,6.692,6.692,0,0,0,.909.169l.253.053.137.028c.021.007.464.055.616.055.123,0,.32.009.488.017a2.748,2.748,0,0,0,.485-.073.583.583,0,0,0,.389-.154c.045-.042.089-.087.066-.156a.155.155,0,0,0-.135-.1,5.638,5.638,0,0,1-.612-.1c.154,0,.636-.01.79-.016a.717.717,0,0,0,.529-.232C1970.754,8560.776,1970.819,8560.716,1970.782,8560.619Z" transform="translate(-1956.077 -8537.511)" fill="#f7a491"/>
      </g>
      <g id="Group_1216" data-name="Group 1216" transform="translate(38.576 11.841)">
        <path id="Path_763" data-name="Path 763" d="M1956.694,8529.654c2.057-.375,3.755,8.831,3.755,8.831s-4.572,1.275-5.743.607c0,0-1.33-5.894-1.805-5.687Z" transform="translate(-1952.901 -8529.644)" fill="#9bc1f9"/>
      </g>
    </g>
    <g id="Group_1218" data-name="Group 1218" transform="translate(1822.839 8686.209)">
      <path id="Path_764" data-name="Path 764" d="M1875.843,8778.149c.136-.39-1.761-.705-1.862-1.1s2.4-.426,2.485-.772c.165-.639-2.736-.135-2.679-.434s3.023-.966,2.7-1.479-3,1.013-3.085.665,2.623-1.194,2.574-1.956c-.026-.409-4.438,2.031-4.95,1.811s.551-2.139.144-2.422-1.577,3.894-1.858,4.033-6.242,3.54-8.363,4.082c-.257-.711-.813-1.668-1.041-2.341-1.19.846-2.074,1.272-3.3,2.045.89,2.229,2.156,4.671,2.776,4.95,1.887.853,9.188-5.2,10.645-6.236s2.293-.7,3.279-1.029S1875.707,8778.539,1875.843,8778.149Z" transform="translate(-1856.608 -8772.449)" fill="#f7a491"/>
    </g>
    <g id="Group_1219" data-name="Group 1219" transform="translate(1821.2 8682.329)">
      <path id="Path_765" data-name="Path 765" d="M1855.572,8779.5s-1.634-7.216-1.351-9.31,2.771-4.044,4.5-3.32,2.506,10.8,2.506,10.8Z" transform="translate(-1854.188 -8766.717)" fill="#f7cc7f"/>
    </g>
  </g>
</svg>
