<svg xmlns="http://www.w3.org/2000/svg" width="20.119" height="15.092" viewBox="0 0 20.119 15.092">
  <path id="Icon_ionic-logo-youtube" data-name="Icon ionic-logo-youtube" d="M19.988,7.833A3.055,3.055,0,0,0,17.08,4.641c-2.177-.1-4.4-.141-6.665-.141H9.707c-2.264,0-4.488.039-6.665.141a3.062,3.062,0,0,0-2.9,3.2c-.1,1.4-.141,2.8-.138,4.2s.039,2.8.134,4.2a3.065,3.065,0,0,0,2.9,3.2c2.287.106,4.634.153,7.019.149s4.728-.039,7.019-.149a3.066,3.066,0,0,0,2.908-3.2c.094-1.4.138-2.8.134-4.205S20.083,9.236,19.988,7.833ZM8.135,15.893V8.171l5.7,3.859Z" transform="translate(0 -4.5)" fill="#e80000"/>
</svg>
