<svg xmlns="http://www.w3.org/2000/svg" viewBox="0 0 337.79 95.03"><defs><style>.cls-1{fill:#2a2441;}.cls-2{fill:#a387bc;}.cls-3{fill:#daeaf8;}</style></defs><g id="Layer_2" data-name="Layer 2"><g id="Layer_1-2" data-name="Layer 1"><path class="cls-1" d="M176.39,95H39a5.92,5.92,0,0,1-5.91-5.91V60.27a5.87,5.87,0,0,0-1-3.22L1,9.14A5.91,5.91,0,0,1,5.93,0H176.39a5.92,5.92,0,0,1,5.92,5.92v83.2A5.92,5.92,0,0,1,176.39,95Z"/><path class="cls-2" d="M127.76,33.33a23.23,23.23,0,0,1-3.85,13.45A22.3,22.3,0,0,1,112.69,55a35,35,0,0,1-9,1.78c-1.06.08-2.16.13-3.28.13H82.7V78.6a5.93,5.93,0,0,1-5.93,5.93H72.89A5.9,5.9,0,0,1,67,78.6V72.44c0-11.75,2.21-19.95,6.87-27.38L82.7,32.44v12H98.79a22.86,22.86,0,0,0,4.7-.43,11.45,11.45,0,0,0,5.26-2.33C110.84,40,112,37.33,112,33.6c0-5.73-3.09-9.12-8.47-10.27-.26-.06-.53-.1-.79-.14a22.33,22.33,0,0,0-3.77-.3A5.17,5.17,0,0,1,94.6,15l.09-.13,1-1.57a5.93,5.93,0,0,1,5-2.77,36.38,36.38,0,0,1,12.32,2C122.22,15.84,127.76,23.21,127.76,33.33Z"/><path class="cls-3" d="M103.64,63.08V78.6a5.91,5.91,0,0,1-5.91,5.93H95.32a5.92,5.92,0,0,1-5.93-5.93V63.21h11C101.48,63.21,102.58,63.17,103.64,63.08Z"/><path class="cls-3" d="M169.84,16.43V78.6a5.91,5.91,0,0,1-5.91,5.93h-3.3a5.91,5.91,0,0,1-5.91-5.93V55.8c0-12.9.15-26.62.51-34.82h-.32c-3.32,13.15-10.82,36-18.51,59.47a5.93,5.93,0,0,1-5.63,4.08H125.9a5.93,5.93,0,0,1-5.68-4.25c-1.63-5.61-3.4-11.56-5.18-17.49-.17-.6-.34-1.19-.53-1.76a1.08,1.08,0,0,0,.29-.09A29.15,29.15,0,0,0,126.05,54c.19.7.38,1.35.57,2,1.12,4,2,7.33,2.56,9.85h.13c2.29-9.53,9.78-31.53,16.56-51.4a5.94,5.94,0,0,1,5.61-4h12.45A5.92,5.92,0,0,1,169.84,16.43Z"/><path class="cls-2" d="M77.07,10.5a5.92,5.92,0,0,1,5,9.06L71.6,36.29a104,104,0,0,0-7.94,15.38h0l0,.11a40.35,40.35,0,0,0-2.86,14.54l-.27,12.29a5.92,5.92,0,0,1-5.92,5.92H49a5.92,5.92,0,0,1-5.92-5.92V58a3.83,3.83,0,0,0-.73-2.3L20,19.54a5.92,5.92,0,0,1,5-9h4.16a5.87,5.87,0,0,1,5.08,2.93C40.63,24.51,48.37,37.9,51.65,44.62c1.53-3.15,4.14-7.89,7.17-13.2,1.31-2.29,2.69-4.67,4.08-7.08s2.75-4.69,4.08-7c.79-1.33,1.56-2.65,2.31-3.93a5.91,5.91,0,0,1,5.1-2.92Z"/><path class="cls-1" d="M206.59,1.78v3.9a9.17,9.17,0,0,1-7.35,9v9.06a1.8,1.8,0,1,1-3.6,0V14.63a9.14,9.14,0,0,1-7.32-9V1.78A1.79,1.79,0,0,1,190.11,0a1.82,1.82,0,0,1,1.82,1.78v3.9a5.53,5.53,0,0,0,11.06,0V1.78A1.78,1.78,0,0,1,204.77,0,1.82,1.82,0,0,1,206.59,1.78Z"/><path class="cls-1" d="M207.5,12.77a12.59,12.59,0,1,1,12.59,12.81A12.61,12.61,0,0,1,207.5,12.77Zm3.53,0a9.08,9.08,0,1,0,9.06-9.06A9.15,9.15,0,0,0,211,12.77Z"/><path class="cls-1" d="M234.53,16.48V2.22a1.8,1.8,0,1,1,3.6,0V16.48a5.53,5.53,0,0,0,11.06,0V2.22a1.8,1.8,0,1,1,3.6,0V16.48a9.13,9.13,0,0,1-18.26,0Z"/><path class="cls-1" d="M266.26,14.55l5.09,8.3a1.85,1.85,0,0,1-.62,2.51,1.77,1.77,0,0,1-.94.25,1.9,1.9,0,0,1-1.57-.87l-6-9.9h-3.71v9a1.79,1.79,0,0,1-1.82,1.78,1.77,1.77,0,0,1-1.82-1.78V2.07A1.86,1.86,0,0,1,256.69.25h7.71a7.4,7.4,0,0,1,7.24,7.21A7.65,7.65,0,0,1,266.26,14.55Zm1.78-7a3.7,3.7,0,0,0-3.78-3.61h-5.79v7.32h5.79A3.77,3.77,0,0,0,268,7.5Z"/><path class="cls-1" d="M206.33,42.11a7.49,7.49,0,0,1-7,7.32c-.11,0-.25,0-6.22,0v9a1.82,1.82,0,0,1-1.82,1.82,1.8,1.8,0,0,1-1.82-1.82V36.69a1.8,1.8,0,0,1,1.82-1.82h7.9A7.33,7.33,0,0,1,206.33,42.11ZM199,45.83a3.77,3.77,0,0,0,3.78-3.72,3.7,3.7,0,0,0-3.78-3.6h-5.79v7.32Z"/><path class="cls-1" d="M218.85,49.25l5.09,8.29a1.84,1.84,0,0,1-.61,2.51,1.81,1.81,0,0,1-1,.26,1.91,1.91,0,0,1-1.57-.88l-6-9.89h-3.71v9a1.79,1.79,0,0,1-1.82,1.79,1.77,1.77,0,0,1-1.81-1.79V36.77A1.85,1.85,0,0,1,209.28,35H217a7.39,7.39,0,0,1,7.24,7.2A7.67,7.67,0,0,1,218.85,49.25Zm1.78-7.06a3.7,3.7,0,0,0-3.78-3.61h-5.79V45.9h5.79A3.76,3.76,0,0,0,220.63,42.19Z"/><path class="cls-1" d="M226.09,47.46a12.59,12.59,0,1,1,12.59,12.81A12.62,12.62,0,0,1,226.09,47.46Zm3.53,0a9.08,9.08,0,1,0,9.06-9.06A9.15,9.15,0,0,0,229.62,47.46Z"/><path class="cls-1" d="M255.2,60.34a1.84,1.84,0,0,1-1.82-1.82V36.66a1.85,1.85,0,0,1,1.82-1.86h5.27a13.79,13.79,0,0,1,5.46,1.13,12.12,12.12,0,0,1,4.26,3.13,12.66,12.66,0,0,1,2.58,4.55,12.8,12.8,0,0,1-12.19,16.73Zm5.38-3.64a9.23,9.23,0,0,0,6.91-15.24,9.34,9.34,0,0,0-7-3H257V56.7Z"/><path class="cls-1" d="M275.35,51.17V36.91a1.81,1.81,0,1,1,3.61,0V51.17a5.53,5.53,0,1,0,11.06,0V36.91a1.8,1.8,0,1,1,3.6,0V51.17a9.14,9.14,0,1,1-18.27,0Z"/><path class="cls-1" d="M295.76,47.64a12.84,12.84,0,0,1,12.85-12.8,12.31,12.31,0,0,1,10.88,6.29,1.78,1.78,0,0,1-.66,2.62,1.76,1.76,0,0,1-2.4-.65,9.07,9.07,0,0,0-7.82-4.55,9.17,9.17,0,0,0-9.13,9.09,9.1,9.1,0,0,0,16.73,4.81,1.58,1.58,0,0,1,2.4-.44,1.6,1.6,0,0,1,.66,2.4,12.58,12.58,0,0,1-10.66,5.9A12.83,12.83,0,0,1,295.76,47.64Z"/><path class="cls-1" d="M321.38,34.8H336a1.8,1.8,0,0,1,0,3.6h-5.53V58.52a1.8,1.8,0,1,1-3.6,0V38.4h-5.49a1.8,1.8,0,1,1,0-3.6Z"/><path class="cls-1" d="M212.52,93.47,209.43,78.3l-5.72,15.35A1.81,1.81,0,0,1,202,94.92a1.89,1.89,0,0,1-1.75-1.27l-5.06-14.81-2.73,14.63a1.81,1.81,0,1,1-3.56-.62L192.54,71a1.84,1.84,0,0,1,1.71-1.49,1.82,1.82,0,0,1,1.86,1.28L202,87.32l6.12-16.59a1.82,1.82,0,0,1,3.53.22l4.43,21.83a1.83,1.83,0,0,1-1.41,2.14c-.11,0-.26,0-.37,0A1.85,1.85,0,0,1,212.52,93.47Z"/><path class="cls-1" d="M235.91,95a2.15,2.15,0,0,1-2.4-1.31l-1.31-3.71h-8.88l-1.52,3.71A1.68,1.68,0,0,1,220.05,95h-.4a2.1,2.1,0,0,1-1.31-2.4l7.79-21.68a1.84,1.84,0,0,1,1.78-1.31,1.8,1.8,0,0,1,1.71,1.31L237,92.56A1.8,1.8,0,0,1,235.91,95Zm-4.8-8.69L227.91,77l-3.28,9.32Z"/><path class="cls-1" d="M235.84,69.49h14.63a1.8,1.8,0,0,1,0,3.6h-5.53V93.21a1.81,1.81,0,1,1-3.61,0V73.09h-5.49a1.8,1.8,0,1,1,0-3.6Z"/><path class="cls-1" d="M254.07,69.49h14.62a1.8,1.8,0,0,1,0,3.6h-5.53V93.21a1.8,1.8,0,1,1-3.6,0V73.09h-5.49a1.8,1.8,0,1,1,0-3.6Z"/><path class="cls-1" d="M289,93.14A1.82,1.82,0,0,1,287.21,95H274.52a1.8,1.8,0,0,1-1.82-1.82V71.38a1.8,1.8,0,0,1,1.82-1.81h12.69a1.82,1.82,0,1,1,0,3.63H276.33v7.32h8.3a1.82,1.82,0,1,1,0,3.63h-8.3v7.17h10.88A1.82,1.82,0,0,1,289,93.14Z"/><path class="cls-1" d="M302.64,83.94l5.09,8.29a1.84,1.84,0,0,1-.61,2.51,1.81,1.81,0,0,1-.95.26,1.91,1.91,0,0,1-1.57-.88l-6-9.89h-3.71v9A1.79,1.79,0,0,1,293,95a1.77,1.77,0,0,1-1.81-1.79V71.46a1.85,1.85,0,0,1,1.85-1.82h7.71a7.39,7.39,0,0,1,7.24,7.2A7.67,7.67,0,0,1,302.64,83.94Zm1.78-7.06a3.69,3.69,0,0,0-3.78-3.6h-5.79v7.31h5.79A3.76,3.76,0,0,0,304.42,76.88Z"/><path class="cls-1" d="M324,87.72a7.28,7.28,0,1,1-14.55,0,1.82,1.82,0,1,1,3.64,0,3.64,3.64,0,1,0,3.63-3.64A7.28,7.28,0,1,1,324,76.81a1.8,1.8,0,0,1-1.82,1.81,1.82,1.82,0,0,1-1.82-1.81,3.64,3.64,0,1,0-3.64,3.63A7.3,7.3,0,0,1,324,87.72Z"/></g></g></svg>